<?xml version="1.0" encoding="UTF-8" standalone="no"?> <!-- Created with Vectornator for iOS (http://vectornator.io/) --><!DOCTYPE svg PUBLIC "-//W3C//DTD SVG 1.1//EN" "http://www.w3.org/Graphics/SVG/1.1/DTD/svg11.dtd">
<svg height="100%" style="fill-rule:nonzero;clip-rule:evenodd;stroke-linecap:round;stroke-linejoin:round;" xmlns:xlink="http://www.w3.org/1999/xlink" xmlns="http://www.w3.org/2000/svg" xml:space="preserve" width="100%" xmlns:vectornator="http://vectornator.io" version="1.1" viewBox="0 0 257 257">
<metadata>
<vectornator:setting key="DimensionsVisible" value="1"/>
<vectornator:setting key="PencilOnly" value="0"/>
<vectornator:setting key="SnapToPoints" value="0"/>
<vectornator:setting key="OutlineMode" value="0"/>
<vectornator:setting key="CMYKEnabledKey" value="0"/>
<vectornator:setting key="RulersVisible" value="1"/>
<vectornator:setting key="SnapToEdges" value="0"/>
<vectornator:setting key="GuidesVisible" value="1"/>
<vectornator:setting key="DisplayWhiteBackground" value="0"/>
<vectornator:setting key="doHistoryDisabled" value="0"/>
<vectornator:setting key="SnapToGuides" value="1"/>
<vectornator:setting key="TimeLapseWatermarkDisabled" value="0"/>
<vectornator:setting key="Units" value="Points"/>
<vectornator:setting key="DynamicGuides" value="0"/>
<vectornator:setting key="IsolateActiveLayer" value="0"/>
<vectornator:setting key="SnapToGrid" value="0"/>
</metadata>
<defs/>
<g id="Layer 1" vectornator:layerName="Layer 1">
<path stroke="#000000" stroke-width="12.8075" d="M141.376+98.156L139.363+97.3583L168.888+22.8383L170.902+23.636L141.376+98.156Z" fill="#432e2e" stroke-linecap="round" fill-opacity="0" opacity="1" stroke-linejoin="round"/>
<path stroke="#000000" stroke-width="12.8075" d="M88.0914+232.644L86.078+231.846L115.603+157.326L117.617+158.124L88.0914+232.644Z" fill="#432e2e" stroke-linecap="round" fill-opacity="0" opacity="1" stroke-linejoin="round"/>
<path stroke="#000000" stroke-width="12.8075" d="M98.3608+115.554L97.5631+117.567L23.0431+88.0417L23.8408+86.0283L98.3608+115.554Z" fill="#432e2e" stroke-linecap="round" fill-opacity="0" opacity="1" stroke-linejoin="round"/>
<path stroke="#000000" stroke-width="12.8075" d="M232.849+168.839L232.051+170.852L157.531+141.327L158.329+139.313L232.849+168.839Z" fill="#432e2e" stroke-linecap="round" fill-opacity="0" opacity="1" stroke-linejoin="round"/>
<path stroke="#000000" stroke-width="12.8075" d="M158.993+114.453L158.291+112.404L234.129+86.4483L234.83+88.4973L158.993+114.453Z" fill="#432e2e" stroke-linecap="round" fill-opacity="0" opacity="1" stroke-linejoin="round"/>
<path stroke="#000000" stroke-width="12.8075" d="M24.4693+174.553L23.5544+172.59L96.2055+138.726L97.1205+140.689L24.4693+174.553Z" fill="#432e2e" stroke-linecap="round" fill-opacity="0" opacity="1" stroke-linejoin="round"/>
<path stroke="#000000" stroke-width="12.8075" d="M114.049+95.9043L112.062+96.764L80.2456+23.1928L82.2334+22.3332L114.049+95.9043Z" fill="#432e2e" stroke-linecap="round" fill-opacity="0" opacity="1" stroke-linejoin="round"/>
<path stroke="#000000" stroke-width="12.8075" d="M173.996+227.567L172.009+228.427L140.193+154.855L142.18+153.996L173.996+227.567Z" fill="#432e2e" stroke-linecap="round" fill-opacity="0" opacity="1" stroke-linejoin="round"/>
<path stroke="#80674d" stroke-width="30.4205" d="M128.507+16.2265L128.507+16.2265C190.514+16.2265+240.781+66.493+240.781+128.5L240.781+128.5C240.781+190.507+190.514+240.774+128.507+240.774L128.507+240.774C66.5003+240.774+16.2338+190.507+16.2338+128.5L16.2338+128.5C16.2338+66.493+66.5003+16.2265+128.507+16.2265Z" fill="#432e2e" stroke-linecap="butt" fill-opacity="0" opacity="1" stroke-linejoin="round"/>
<path stroke="#80674d" stroke-width="12.8075" d="M128.507+99.3091L128.507+99.3091C144.629+99.3091+157.698+112.378+157.698+128.5L157.698+128.5C157.698+144.622+144.629+157.691+128.507+157.691L128.507+157.691C112.386+157.691+99.3164+144.622+99.3164+128.5L99.3164+128.5C99.3164+112.378+112.386+99.3091+128.507+99.3091Z" fill="#ece1e1" stroke-linecap="butt" opacity="1" stroke-linejoin="round"/>
</g>
</svg>
