<?xml version="1.0" encoding="UTF-8" standalone="no"?> <!-- Created with Vectornator for iOS (http://vectornator.io/) --><!DOCTYPE svg PUBLIC "-//W3C//DTD SVG 1.1//EN" "http://www.w3.org/Graphics/SVG/1.1/DTD/svg11.dtd">
<svg height="100%" style="fill-rule:nonzero;clip-rule:evenodd;stroke-linecap:round;stroke-linejoin:round;" xmlns:xlink="http://www.w3.org/1999/xlink" xmlns="http://www.w3.org/2000/svg" xml:space="preserve" width="100%" xmlns:vectornator="http://vectornator.io" version="1.1" viewBox="0 0 3370.82 2384.24">
<metadata>
<vectornator:setting key="DimensionsVisible" value="1"/>
<vectornator:setting key="PencilOnly" value="0"/>
<vectornator:setting key="SnapToPoints" value="0"/>
<vectornator:setting key="OutlineMode" value="0"/>
<vectornator:setting key="RulersVisible" value="1"/>
<vectornator:setting key="CMYKEnabledKey" value="0"/>
<vectornator:setting key="SnapToEdges" value="0"/>
<vectornator:setting key="GuidesVisible" value="1"/>
<vectornator:setting key="DisplayWhiteBackground" value="0"/>
<vectornator:setting key="doHistoryDisabled" value="0"/>
<vectornator:setting key="SnapToGuides" value="1"/>
<vectornator:setting key="TimeLapseWatermarkDisabled" value="0"/>
<vectornator:setting key="Units" value="Millimeters"/>
<vectornator:setting key="IsolateActiveLayer" value="0"/>
<vectornator:setting key="SnapToGrid" value="0"/>
<vectornator:setting key="DynamicGuides" value="0"/>
</metadata>
<defs/>
<g id="Layer 1" vectornator:layerName="Layer 1">
<path d="M2061.64+662.184L2061.64+662.184C2115.53+613.798+2198.44+618.26+2246.83+672.15L3067.81+1586.52C3116.2+1640.41+3111.73+1723.33+3057.84+1771.71L3057.84+1771.71C3003.95+1820.1+2921.04+1815.64+2872.66+1761.75L2051.67+847.371C2003.29+793.481+2007.75+710.57+2061.64+662.184Z" opacity="1" fill="#c59563"/>
<path d="M2173.44+658.489C2144.08+659.713+2114.94+670.767+2091.36+691.936C2037.47+740.322+2033.03+823.21+2081.42+877.1L2403.48+1235.77L2558.96+1016.41L2276.57+701.877C2249.35+671.563+2211.2+656.915+2173.44+658.489Z" fill-opacity="0.149388" fill="#000000" opacity="1"/>
<path d="M2113.7+104.023L2113.7+104.023C2186.12+104.023+2244.84+162.735+2244.84+235.16L2244.84+1464.02C2244.84+1536.44+2186.12+1595.15+2113.7+1595.15L2113.7+1595.15C2041.28+1595.15+1982.56+1536.44+1982.56+1464.02L1982.56+235.16C1982.56+162.735+2041.28+104.023+2113.7+104.023Z" opacity="1" fill="#c59563"/>
<path stroke="#bd7b36" stroke-width="62.9515" d="M307.324+1521.65L3071.6+1521.65C3164.48+1521.65+3239.78+1596.94+3239.78+1689.82L3239.78+1689.82C3239.78+1782.7+3164.48+1857.99+3071.6+1857.99L307.324+1857.99C214.446+1857.99+139.153+1782.7+139.153+1689.82L139.153+1689.82C139.153+1596.94+214.446+1521.65+307.324+1521.65Z" fill="#bd7b36" stroke-linecap="round" opacity="1" stroke-linejoin="round"/>
<path d="M2650.12+1887.8C2591.39+1682.35+2418.78+1533.69+2215+1534.01C2011.21+1534.33+1838.88+1683.51+1780.52+1889.15L2650.12+1887.8Z" opacity="1" fill="#8e5e2d"/>
<path d="M1294.59+1889.5C1235.49+1684.15+1062.63+1535.81+858.844+1536.48C655.06+1537.16+482.989+1686.65+424.989+1892.39L1294.59+1889.5Z" opacity="1" fill="#8e5e2d"/>
<path stroke="#c59563" stroke-width="62.9515" d="M772.409+1570.57L772.409+1570.57C946.561+1570.57+1087.74+1711.75+1087.74+1885.9L1087.74+1885.9C1087.74+2060.06+946.561+2201.23+772.409+2201.23L772.409+2201.23C598.257+2201.23+457.079+2060.06+457.079+1885.9L457.079+1885.9C457.079+1711.75+598.257+1570.57+772.409+1570.57Z" fill="#753c00" stroke-linecap="round" opacity="1" stroke-linejoin="round"/>
<path d="M772.409+1739.15L772.409+1739.15C853.458+1739.15+919.161+1804.86+919.161+1885.9L919.161+1885.9C919.161+1966.95+853.458+2032.66+772.409+2032.66L772.409+2032.66C691.36+2032.66+625.657+1966.95+625.657+1885.9L625.657+1885.9C625.657+1804.86+691.36+1739.15+772.409+1739.15Z" opacity="1" fill="#c59563"/>
<path stroke="#c59563" stroke-width="62.9515" d="M2130.32+1570.57L2130.32+1570.57C2304.47+1570.57+2445.65+1711.75+2445.65+1885.9L2445.65+1885.9C2445.65+2060.06+2304.47+2201.23+2130.32+2201.23L2130.32+2201.23C1956.17+2201.23+1814.99+2060.06+1814.99+1885.9L1814.99+1885.9C1814.99+1711.75+1956.17+1570.57+2130.32+1570.57Z" fill="#753c00" stroke-linecap="round" opacity="1" stroke-linejoin="round"/>
<path d="M2130.32+1739.15L2130.32+1739.15C2211.37+1739.15+2277.07+1804.86+2277.07+1885.9L2277.07+1885.9C2277.07+1966.95+2211.37+2032.66+2130.32+2032.66L2130.32+2032.66C2049.27+2032.66+1983.57+1966.95+1983.57+1885.9L1983.57+1885.9C1983.57+1804.86+2049.27+1739.15+2130.32+1739.15Z" opacity="1" fill="#c59563"/>
</g>
</svg>
