<?xml version="1.0" encoding="UTF-8" standalone="no"?> <!-- Created with Vectornator for iOS (http://vectornator.io/) --><!DOCTYPE svg PUBLIC "-//W3C//DTD SVG 1.1//EN" "http://www.w3.org/Graphics/SVG/1.1/DTD/svg11.dtd">
<svg xmlns:vectornator="http://vectornator.io" xmlns:xlink="http://www.w3.org/1999/xlink" height="100%" xml:space="preserve" width="100%" viewBox="0 0 1000 500" xmlns="http://www.w3.org/2000/svg" style="fill-rule:nonzero;clip-rule:evenodd;stroke-linecap:round;stroke-linejoin:round;" version="1.1">
<metadata>
<vectornator:setting key="WDIsolateActiveLayer" value="false"/>
<vectornator:setting key="WDOutlineMode" value="false"/>
<vectornator:setting value="false" key="WDCMYKEnabledKey"/>
<vectornator:setting key="UndoHistoryDisabled" value="true"/>
<vectornator:setting value="true" key="WDRulersVisible"/>
<vectornator:setting key="WDDisplayWhiteBackground" value="false"/>
<vectornator:setting value="true" key="VNDimensionsVisible"/>
<vectornator:setting value="false" key="WDSnapToGrid"/>
<vectornator:setting key="WDUnits" value="Points"/>
<vectornator:setting key="WDDynamicGuides" value="false"/>
<vectornator:setting value="false" key="WDSnapToEdges"/>
<vectornator:setting key="WDGuidesVisible" value="true"/>
<vectornator:setting value="false" key="IsTimeLapseWatermarkDisabled"/>
<vectornator:setting value="true" key="VNSnapToGuides"/>
<vectornator:setting key="WDSnapToPoints" value="false"/>
</metadata>
<defs/>
<g id="Layer 1" vectornator:layerName="Layer 1">
<path d="M12.9959-195.486L938.301-195.486C1061.92-195.486+1162.13-87.611+1162.13+45.4593L1162.13+375.541C1162.13+508.611+1061.92+616.486+938.301+616.486L12.9959+616.486C-110.619+616.486-210.829+508.611-210.829+375.541L-210.829+45.4593C-210.829-87.611-110.619-195.486+12.9959-195.486Z" stroke-linecap="round" opacity="1" fill="#7fbc77" stroke-width="2.72925" stroke-linejoin="round" stroke="#bfaa52"/>
<path stroke-linejoin="round" stroke-linecap="round" stroke-width="9.10254" stroke="#7d5000" d="M885.006+203.026C825.459+286.143+753.595+136.479+735.009+245.794C715.063+363.11+494.698+392.442+409.446+305.983C245.523+139.74+262.473+353.538+141.793+369.44" opacity="1" fill="none"/>
<path stroke="#2e2e2e" stroke-linecap="round" fill="#7fbc77" opacity="1" stroke-linejoin="round" d="M140.595+362.622L140.749+362.622C145.17+362.622+148.755+366.207+148.755+370.628L148.755+370.628C148.755+375.05+145.17+378.634+140.749+378.634L140.595+378.634C136.174+378.634+132.589+375.05+132.589+370.628L132.589+370.628C132.589+366.207+136.174+362.622+140.595+362.622Z" stroke-width="9.10254"/>
<path opacity="1" fill="#7fbc77" stroke-linejoin="round" d="M225.735+303.21L225.888+303.21C230.31+303.21+233.894+306.794+233.894+311.216L233.894+311.216C233.894+315.637+230.31+319.222+225.888+319.222L225.735+319.222C221.313+319.222+217.729+315.637+217.729+311.216L217.729+311.216C217.729+306.794+221.313+303.21+225.735+303.21Z" stroke-linecap="round" stroke="#2e2e2e" stroke-width="9.10254"/>
<path stroke-linecap="round" opacity="1" stroke-width="9.10254" fill="#7fbc77" stroke="#2e2e2e" d="M304.061+234.437L304.214+234.437C308.636+234.437+312.22+238.022+312.22+242.443L312.22+242.443C312.22+246.865+308.636+250.449+304.214+250.449L304.061+250.449C299.64+250.449+296.055+246.865+296.055+242.443L296.055+242.443C296.055+238.022+299.64+234.437+304.061+234.437Z" stroke-linejoin="round"/>
<path stroke-width="9.10254" stroke-linecap="round" d="M394.095+280.956L394.248+280.956C398.67+280.956+402.254+284.54+402.254+288.962L402.254+288.962C402.254+293.384+398.67+296.968+394.248+296.968L394.095+296.968C389.673+296.968+386.089+293.384+386.089+288.962L386.089+288.962C386.089+284.54+389.673+280.956+394.095+280.956Z" stroke="#2e2e2e" opacity="1" stroke-linejoin="round" fill="#7fbc77"/>
<path stroke="#2e2e2e" fill="#7fbc77" stroke-linejoin="round" stroke-width="9.10254" stroke-linecap="round" opacity="1" d="M494.585+339.798L494.738+339.798C499.16+339.798+502.744+343.382+502.744+347.804L502.744+347.804C502.744+352.225+499.16+355.81+494.738+355.81L494.585+355.81C490.163+355.81+486.579+352.225+486.579+347.804L486.579+347.804C486.579+343.382+490.163+339.798+494.585+339.798Z"/>
<g opacity="1">
<path opacity="1" fill="#7fbc77" d="M171.471+204.9C171.471+200.609+170.975+196.052+171.968+191.852C174.67+180.427+182.307+168.754+191.098+161.074C194.439+158.155+198.207+155.693+201.462+152.675C205.084+149.317+208.231+143.368+212.622+140.95C213.039+140.72+216.597+140.081+217.041+140.525C218.865+142.347+218.186+147.831+218.186+150.012C218.186+152.141+218.507+154.295+218.186+156.4C217.091+163.571+214.052+170.308+211.782+177.197C209.55+183.973+207.408+190.799+205.405+197.646C203.994+202.471+202.994+206.635+202.994+211.667C202.994+212.47+202.192+214.029+202.994+214.077C204.284+214.154+205.131+212.623+206.172+211.857C207.574+210.824+208.982+209.792+210.322+208.679C212.84+206.587+215.242+204.36+217.74+202.245C223.636+197.254+229.574+192.306+235.284+187.102C242.708+180.335+249.508+173.285+258.459+168.594"/>
<path fill="#2e2e2e" d="M217.094+136.125C216.19+135.942+215.229+136.119+214.312+136.219C213.283+136.331+212.058+136.474+211.094+136.906C208.406+138.11+206.206+140.315+204.406+142.594C203.497+143.745+202.666+144.933+201.812+146.125C200.907+147.39+199.998+148.757+198.906+149.875C196.361+152.484+193.509+154.743+190.812+157.188C189.076+158.762+187.419+160.423+185.875+162.188C180.262+168.604+175.781+176.129+173.062+184.219C172.019+187.323+171.144+190.596+170.906+193.875C170.64+197.542+171.211+201.255+171.469+204.906C171.664+201.309+171.541+197.611+172.25+194.062C173.057+190.024+174.873+186.12+176.844+182.531C180.442+175.978+185.258+169.989+190.938+165.125C195.065+161.59+199.85+158.966+204.031+155.5C205.922+153.933+207.518+151.998+209.125+150.156C210.456+148.632+211.772+147.04+213.312+145.719C213.551+145.514+213.824+145.352+214.094+145.188C214.113+145.48+214.147+145.77+214.156+146.062C214.208+147.781+214.098+149.501+214.219+151.219C214.326+152.746+214.604+154.31+214.469+155.844C214.167+159.253+213.415+162.622+212.594+165.938C211.862+168.889+211.022+171.801+210.281+174.75C209.111+179.408+208.133+184.121+206.969+188.781C205.76+193.62+204.328+198.446+203.375+203.344C202.999+205.275+202.743+207.222+202.625+209.188C202.573+210.045+202.661+210.994+202.562+211.844C202.48+212.553+201.739+213.94+202.625+214.406C203.947+215.103+205.59+212.79+206.375+212.156C207.734+211.059+209.139+210.01+210.469+208.875C212.96+206.749+215.335+204.486+217.812+202.344C223.657+197.289+229.588+192.317+235.312+187.125C237.664+184.992+239.986+182.894+242.312+180.781C240.595+182.334+238.832+183.833+237.125+185.406C232.252+189.897+227.211+194.19+222.125+198.438C219.804+200.376+217.448+202.309+215.156+204.281C213.066+206.08+210.992+207.91+208.781+209.562C207.468+210.544+206.088+211.358+204.906+212.5C204.54+212.854+204.15+213.264+203.688+213.5C203.552+213.569+202.999+213.649+203.062+213.688C203.09+213.704+203.062+213.625+203.062+213.594C203.066+213.468+203.068+213.373+203.094+213.25C203.13+213.075+203.174+212.924+203.219+212.75C203.426+211.946+203.435+211.3+203.469+210.438C203.544+208.496+203.77+206.559+204.156+204.656C204.746+201.752+205.674+198.958+206.625+196.156C207.582+193.337+208.588+190.529+209.656+187.75C211.586+182.73+213.672+177.784+215.938+172.906C218.327+167.762+220.818+162.577+221.906+156.969C222.355+154.657+222.124+152.333+222.219+150C222.352+146.737+222.924+143.34+221.75+140.188C221.498+139.512+221.156+138.689+220.656+138.156C220.214+137.684+219.78+137.165+219.219+136.844C218.566+136.47+217.831+136.274+217.094+136.125ZM242.312+180.781C243.805+179.431+245.274+178.038+246.812+176.75C245.279+178.04+243.802+179.429+242.312+180.781ZM246.812+176.75C247.931+175.809+249.089+174.919+250.25+174.031C249.086+174.917+247.935+175.811+246.812+176.75Z" opacity="1"/>
</g>
<g opacity="1">
<path fill="#7fbc77" opacity="1" d="M222.658+167.452C222.658+162.464+222.74+157.475+222.658+152.487C222.605+149.238+222.02+145.98+222.322+142.744C222.99+135.57+225.776+125.664+227.706+118.607C229.166+113.265+230.814+107.934+233.084+102.87C233.389+102.191+233.372+101.033+234.101+100.882C235.687+100.553+237.68+103.849+238.211+104.563C240.9+108.18+243.512+111.889+245.631+115.867C254.157+131.879+259.42+149.616+268.838+165.153"/>
<path opacity="1" d="M233.156+98.125C232.711+98.2732+232.276+98.4613+231.906+98.75C231.518+99.0528+231.224+99.4436+230.938+99.8438C230.58+100.343+230.467+100.953+230.219+101.5C230.007+101.966+229.659+102.367+229.406+102.812C228.687+104.08+228.013+105.362+227.406+106.688C227.005+107.564+226.641+108.481+226.281+109.375C225.746+110.707+225.267+112.045+224.812+113.406C223.955+115.973+223.155+118.593+222.5+121.219C221.712+124.379+221.31+127.655+220.844+130.875C220.288+134.716+219.774+138.673+219.844+142.562C219.904+145.94+220.692+149.198+221.125+152.531C221.769+157.488+222.167+162.464+222.656+167.438C223.183+162.442+223.817+157.448+224.188+152.438C224.423+149.257+224.245+146.058+224.812+142.906C225.203+140.74+225.832+138.634+226.469+136.531C227.395+133.473+228.434+130.419+229.5+127.406C229.962+126.101+230.484+124.797+230.875+123.469C232.253+118.791+233.321+114.02+234.594+109.312C234.982+107.878+235.396+106.458+235.812+105.031C236.595+105.818+237.327+106.64+238.094+107.438C239.644+109.049+241.185+110.711+242.531+112.5C244.557+115.193+246.252+118.129+247.781+121.125C251.571+128.55+254.859+136.22+258.219+143.844C258.709+144.957+259.256+146.042+259.75+147.156C255.002+136.305+251.042+125.127+245.719+114.531C243.832+110.776+241.846+107.072+239.906+103.344C238.878+101.367+237.778+98.9583+235.5+98.1875C234.765+97.9388+233.907+97.8751+233.156+98.125ZM259.75+147.156C260.021+147.776+260.254+148.414+260.531+149.031C261.439+151.056+262.427+153.059+263.406+155.062C262.122+152.453+260.929+149.817+259.75+147.156ZM263.406+155.062C263.757+155.774+264.042+156.515+264.406+157.219C265.792+159.9+267.373+162.52+268.844+165.156C267.378+162.518+265.819+159.902+264.438+157.219C264.074+156.513+263.756+155.779+263.406+155.062ZM233.781+103.469C233.904+103.491+233.974+103.66+234.094+103.719C234.003+103.697+233.914+103.629+233.844+103.562C233.84+103.559+233.775+103.468+233.781+103.469Z" fill="#2e2e2e"/>
</g>
<g opacity="1">
<path d="M263.444+164.956C263.444+156.323+262.87+147.613+264.623+139.087C265.853+133.1+267.891+127.295+269.959+121.543C271.163+118.195+272.404+114.853+273.862+111.606C273.947+111.417+275.778+107.448+276.471+107.752C277.451+108.182+277.376+109.71+277.602+110.755C277.893+112.096+277.753+113.503+278.01+114.85C278.496+117.408+279.18+119.925+279.827+122.448C281.121+127.495+282.496+132.521+283.83+137.558C286.086+146.077+288.427+154.575+290.99+163.006C292.254+167.164+293.378+171.302+295.576+175.07" opacity="1" fill="#7fbc77"/>
<path fill="#2e2e2e" d="M275.812+104.5C275.595+104.533+275.108+104.546+274.906+104.688C274.406+105.039+273.879+105.363+273.406+105.75C272.841+106.213+272.224+107.089+271.812+107.656C270.555+109.39+269.56+111.429+268.656+113.344C268.133+114.451+267.651+115.554+267.188+116.688C266.731+117.803+266.295+118.933+265.875+120.062C265.332+121.524+264.863+122.992+264.469+124.5C263.17+129.468+262.168+134.534+261.75+139.656C261.058+148.13+262.463+156.575+263.438+164.969C264.306+156.844+264.715+148.522+267.094+140.656C268.05+137.496+269.258+134.407+270.562+131.375C271.356+129.532+272.247+127.704+273+125.844C274.254+122.746+275.252+119.549+276.312+116.375C276.493+116.849+276.627+117.342+276.812+117.812C277.943+120.673+279.081+123.52+280.062+126.438C281.311+130.151+282.342+133.897+283.438+137.656C284.978+142.946+286.607+148.203+288.125+153.5C288.934+156.324+289.819+159.153+290.656+161.969C290.047+159.845+289.453+157.702+288.844+155.594C287.107+149.588+285.701+143.538+284.219+137.469C283.187+133.244+282.068+129.037+281.312+124.75C280.716+121.362+280.191+117.916+280.156+114.469C280.131+111.997+281.078+108.861+279.781+106.562C278.961+105.108+277.508+104.243+275.812+104.5ZM274.281+109.656C274.392+109.866+274.43+110.11+274.5+110.344C274.486+110.332+274.483+110.325+274.469+110.312C274.375+110.232+274.24+109.928+274.219+109.781C274.213+109.742+274.263+109.621+274.281+109.656ZM291+163.094C291.427+164.546+291.887+165.977+292.375+167.406C291.897+165.986+291.436+164.551+291+163.094ZM292.375+167.406C292.582+168.022+292.808+168.641+293.031+169.25C292.802+168.637+292.587+168.026+292.375+167.406ZM293.031+169.25C293.773+171.234+294.565+173.189+295.562+175.062C294.542+173.155+293.757+171.226+293.031+169.25Z" opacity="1"/>
</g>
<g opacity="1">
<path opacity="1" d="M235.246+189.75C235.246+184.449+235.114+179.147+235.247+173.848C235.402+167.613+236.541+161.826+237.981+155.791C238.188+154.922+238.382+154.049+238.573+153.176C238.724+152.489+238.304+151.047+239.005+151.11C240.076+151.205+240.562+152.597+241.258+153.416C242.304+154.647+243.225+155.978+244.222+157.25C247.474+161.398+250.634+165.619+253.877+169.775C260.707+178.53+268.922+188.16+280.393+190.508" fill="#7fbc77"/>
<path fill="#2e2e2e" d="M237.875+147.188C236.729+147.241+235.538+148.537+235.031+149.469C234.662+150.148+234.525+150.921+234.469+151.688C234.458+151.837+234.44+152.098+234.438+152.312C234.437+152.377+234.439+152.448+234.438+152.5C234.436+152.547+234.41+152.565+234.406+152.625C234.413+152.528+234.47+152.22+234.438+152.312C234.25+152.847+234.144+153.421+234+153.969C233.661+155.255+233.283+156.563+233.062+157.875C232.802+159.424+232.744+161.028+232.656+162.594C232.477+165.789+232.479+168.966+232.75+172.156C233.25+178.046+234.35+183.912+235.25+189.75C236.006+184.468+236.688+179.165+237.594+173.906C238.177+170.52+239.081+167.208+240.125+163.938C240.677+162.21+241.252+160.508+241.688+158.75C245.137+161.793+248.663+164.656+251.75+168.094C253.602+170.156+255.257+172.391+257.125+174.438C260.176+177.78+263.442+181.059+267.031+183.875C264.612+181.915+262.384+179.683+260.375+177.344C259.126+175.889+258.017+174.327+256.844+172.812C254.898+170.301+253.022+167.784+251.375+165.062C249.387+161.779+247.78+158.24+246.125+154.781C245.521+153.519+244.839+152.344+244.156+151.125C243.682+150.278+243.355+149.432+242.656+148.719C242.007+148.055+241.279+147.6+240.406+147.281C239.614+146.992+238.718+147.148+237.875+147.188ZM267.031+183.875C268.05+184.675+269.101+185.424+270.188+186.125C269.107+185.417+268.038+184.691+267.031+183.875ZM270.188+186.125C270.748+186.493+271.325+186.822+271.906+187.156C271.324+186.825+270.75+186.488+270.188+186.125ZM271.906+187.156C272.488+187.488+273.021+187.891+273.625+188.188C273.843+188.295+274.093+188.306+274.312+188.406C273.492+188.025+272.69+187.607+271.906+187.156ZM274.312+188.406C274.528+188.507+274.719+188.655+274.938+188.75C276.711+189.523+278.526+190.062+280.406+190.5C278.294+190.014+276.277+189.305+274.312+188.406ZM237.094+154.312C237.211+154.423+237.331+154.535+237.438+154.656C237.402+154.628+237.341+154.617+237.312+154.594C237.243+154.536+237.134+154.409+237.094+154.312Z" opacity="1"/>
</g>
<g opacity="1">
<path fill="#7fbc77" d="M257.855+185.049C264.714+177.033+270.432+167.991+276.4+159.301C277.495+157.707+278.618+156.129+279.598+154.462C280.006+153.768+279.935+152.417+280.735+152.332C281.804+152.218+282.6+153.409+283.462+154.05C284.444+154.779+285.306+155.656+286.253+156.43C287.961+157.825+289.751+159.119+291.426+160.554C299.306+167.303+306.782+174.013+316.071+178.768" opacity="1"/>
<path fill="#2e2e2e" opacity="1" d="M281.25+149.344C280.856+149.306+280.448+149.286+280.062+149.375C279.516+149.501+278.961+149.681+278.5+150C278.035+150.322+277.687+150.8+277.344+151.25C277.047+151.639+276.904+152.063+276.719+152.5C276.638+152.691+276.51+152.992+276.469+152.969C276.443+152.955+276.461+152.904+276.469+152.875C276.492+152.785+276.628+152.528+276.562+152.594C276.128+153.033+275.748+153.533+275.344+154C274.94+154.467+274.519+154.931+274.125+155.406C273.715+155.9+273.302+156.401+272.906+156.906C271.822+158.292+270.77+159.745+269.906+161.281C268.169+164.371+266.778+167.71+265.25+170.906C262.951+175.717+260.524+180.452+257.844+185.062C262.315+181.266+266.527+177.226+270.594+173C272.756+170.753+275.014+168.495+276.969+166.062C278.061+164.704+278.98+163.181+279.875+161.688C280.926+159.933+281.837+158.185+282.656+156.312C282.683+156.251+282.689+156.161+282.719+156.094C283.631+156.519+284.488+157.024+285.375+157.5C287.014+158.381+288.654+159.286+290.188+160.344C291.91+161.532+293.453+162.926+295.094+164.219C298.909+167.224+302.769+170.144+306.75+172.906C304.203+171.088+301.724+169.167+299.344+167.094C298.056+165.972+296.849+164.782+295.594+163.625C293.504+161.7+291.388+159.821+289.375+157.812C288.591+157.031+287.828+156.199+287.125+155.344C286.328+154.376+285.62+153.29+284.875+152.281C283.913+150.98+283.07+149.517+281.25+149.344ZM306.75+172.906C309.73+175.034+312.81+177.032+316.062+178.781C312.812+177.046+309.763+174.997+306.75+172.906ZM280.344+154.938C280.529+154.858+280.824+155.112+280.906+155.156C280.981+155.196+281.051+155.241+281.125+155.281C280.9+155.291+280.673+155.296+280.469+155.188C280.435+155.169+280.191+155.003+280.344+154.938Z"/>
</g>
<g opacity="1">
<path opacity="1" d="M296.116+172.233C297.195+169.257+299.099+166.646+300.722+163.928C303.547+159.196+305.974+154.234+308.416+149.294C311.667+142.717+315.015+136.189+318.379+129.67C318.97+128.524+319.566+127.379+320.118+126.214C320.531+125.339+320.319+123.393+321.273+123.552C322.796+123.808+323.495+125.712+324.434+126.937C327.054+130.353+329.295+134.045+331.64+137.655C337.477+146.64+343.253+159.789+352.161+166.156C354.43+167.778+357.233+168.355+359.852+169.131" fill="#7fbc77"/>
<path fill="#2e2e2e" opacity="1" d="M320.438+120.5C319.938+120.605+319.463+120.821+319.031+121.094C318.232+121.598+317.765+122.464+317.438+123.312C317.296+123.68+317.126+124.655+316.875+124.938C316.824+124.995+316.953+124.658+316.906+124.719C315.42+126.661+314.183+128.886+312.969+131C311.754+133.115+310.507+135.276+309.5+137.5C308.738+139.182+308.146+140.959+307.5+142.688C306.367+145.718+305.278+148.767+304.188+151.812C302.8+155.689+301.373+159.541+299.719+163.312C298.425+166.263+296.913+169.079+296.125+172.219C297.647+169.391+299.787+167.054+301.75+164.531C304.336+161.207+306.662+157.709+308.969+154.188C310.74+151.484+312.506+148.784+314.25+146.062C315.235+144.525+316.317+142.995+317.219+141.406C318.716+138.768+319.98+135.968+321.188+133.188C321.838+131.689+322.421+130.096+322.969+128.531C323.376+128.939+323.77+129.344+324.188+129.75C327.732+133.195+330.823+137.252+333.438+141.438C337.168+147.41+340.664+153.606+345.062+159.125C347.253+161.873+349.702+164.691+352.719+166.562C354.876+167.901+357.433+168.439+359.844+169.125C357.436+168.434+354.904+167.874+352.75+166.531C349.732+164.65+347.281+161.874+345.125+159.094C341.678+154.649+339.071+149.742+336.406+144.812C334.53+141.341+332.446+137.971+330.625+134.469C329.955+133.181+329.283+131.903+328.656+130.594C328.177+129.593+327.739+128.559+327.25+127.562C326.926+126.902+326.572+126.255+326.25+125.594C325.33+123.707+324.787+121.742+322.656+120.812C322.369+120.687+322.092+120.544+321.781+120.5C321.341+120.438+320.872+120.408+320.438+120.5ZM320.5+126.281C320.564+126.207+320.746+126.433+320.938+126.594C320.886+126.588+320.833+126.6+320.781+126.594C320.741+126.589+320.42+126.375+320.5+126.281Z"/>
</g>
<g opacity="1">
<path fill="#7fbc77" d="M340.43+165.294C352.579+155.914+361.898+142.884+370.109+130.036C372.725+125.942+375.009+121.651+377.719+117.605C378.128+116.994+378.232+115.74+378.966+115.785C379.909+115.844+380.331+117.095+380.954+117.806C382.08+119.09+383.135+120.436+384.209+121.765C387.806+126.214+391.277+130.765+394.721+135.333C406.234+150.606+417.667+167.636+433.542+178.789" opacity="1"/>
<path opacity="1" fill="#2e2e2e" d="M378.719+112.031C378.054+112.096+377.37+112.215+376.781+112.531C376.193+112.848+375.765+113.384+375.312+113.875C375.023+114.189+374.729+114.796+374.531+115.219C374.491+115.304+374.446+115.383+374.406+115.469C374.159+115.781+373.924+116.117+373.688+116.438C372.939+117.452+372.222+118.477+371.531+119.531C370.203+121.556+368.952+123.654+367.688+125.719C365.956+128.547+364.456+131.509+362.844+134.406C361.293+137.194+359.719+139.961+358.062+142.688C353.073+150.903+347.366+158.596+340.438+165.281C349.86+159.23+357.904+151.529+365.188+143.062C368.162+139.605+371.063+136.054+373.719+132.344C376.071+129.057+377.874+125.364+379.844+121.844C379.884+121.772+379.927+121.697+379.969+121.625C382.024+123.593+384.113+125.523+386.156+127.5C389.489+130.725+392.659+134.089+395.625+137.656C398.216+140.773+400.578+144.075+403.094+147.25C407.855+153.259+412.846+159.131+418.094+164.75C412.916+159.074+408.175+153.012+403.719+146.75C399.787+141.226+395.819+135.782+392.312+129.969C389.416+125.167+386.674+120.271+383.625+115.562C383.396+115.209+383.292+114.798+383.062+114.438C382.428+113.439+381.364+112.498+380.188+112.219C379.711+112.105+379.207+111.983+378.719+112.031ZM418.094+164.75C418.98+165.721+419.766+166.776+420.688+167.719C421.381+168.428+422.131+169.064+422.844+169.75C421.188+168.154+419.665+166.433+418.094+164.75ZM422.844+169.75C423.3+170.19+423.692+170.693+424.156+171.125C424.538+171.48+424.988+171.746+425.375+172.094C424.52+171.326+423.673+170.549+422.844+169.75ZM425.375+172.094C427.995+174.446+430.67+176.704+433.531+178.781C430.672+176.713+427.999+174.448+425.375+172.094ZM377.125+118.656C377.242+118.769+377.334+118.906+377.438+119.031C377.356+118.966+377.258+118.923+377.188+118.844C377.147+118.799+377.081+118.614+377.125+118.656Z"/>
</g>
<g opacity="1">
<path opacity="1" d="M297.124+130.542C298.252+125.162+300.602+120.24+302.746+115.183C305.7+108.218+308.35+101.053+311.459+94.1568C312.39+92.0922+314.155+88.8862+314.298+88.9063C315.517+89.0765+316.166+90.5102+317.148+91.251C317.98+91.8785+318.883+92.4071+319.735+93.0069C324.734+96.526+326.867+98.0579+331.754+102C340.53+109.08+349.019+117.089+359.281+122.003" fill="#7fbc77"/>
<path opacity="1" fill="#2e2e2e" d="M314.875+85.4062C313.871+85.5687+312.887+85.8852+311.938+86.25C311.726+86.3313+311.624+86.5533+311.469+86.7188C311.118+87.0928+310.803+87.5259+310.5+87.9375C309.445+89.372+308.462+90.8783+307.656+92.4688C306.5+94.7524+305.338+97.0643+304.531+99.5C303.132+103.726+302.229+108.136+301.094+112.438C299.513+118.427+297.637+124.327+297.125+130.531C299.333+124.79+302.751+119.722+305.844+114.438C308.091+110.597+310.415+106.732+312.406+102.75C313.517+100.528+314.37+98.1642+315.25+95.8438C315.513+95.1504+315.79+94.4707+316.062+93.7812C316.219+93.8609+316.332+93.9876+316.5+94.0625C319.442+95.3705+322.417+96.5133+325.219+98.125C328.652+100.1+331.672+102.579+334.812+104.969C340.759+109.495+346.488+114.316+352.781+118.312C346.499+114.304+340.832+109.42+335.281+104.406C332.066+101.502+328.687+98.8208+325.562+95.8125C324+94.3082+322.52+92.7018+321+91.1562C320.302+90.4462+319.506+89.7697+318.906+88.9688C318.632+88.6016+318.478+88.0761+318.219+87.6875C317.605+86.7677+316.686+86.0229+315.656+85.625C315.406+85.5283+315.14+85.3634+314.875+85.4062ZM313.188+92C313.302+91.9208+313.619+92.2121+313.812+92.375C313.78+92.3824+313.751+92.3988+313.719+92.4062C313.641+92.4242+313.101+92.0596+313.188+92Z"/>
</g>
<g opacity="1">
<path opacity="1" fill="#7fbc77" d="M345.645+128.357C345.645+121.285+346.413+115.144+347.985+108.23C349.282+102.522+350.781+96.8283+352.443+91.2147C352.445+91.209+353.897+87.0398+353.954+87.0036C355.508+86.0112+358.365+87.8274+359.377+88.4376C361.217+89.5475+362.996+90.7561+364.765+91.9771C367.264+93.7024+369.759+95.4368+372.176+97.2746C385.443+107.362+395.975+120.393+409.63+129.965"/>
<path fill="#2e2e2e" d="M354.031+82.5625C353.42+82.6277+352.824+82.771+352.375+83.0625C351.758+83.463+351.121+83.863+350.625+84.4062C350.264+84.8017+350.078+85.3309+349.844+85.8125C349.711+86.0848+349.61+86.3742+349.5+86.6562C348.701+88.7016+347.986+90.7078+347.562+92.875C347.408+93.6673+347.192+95.0159+347.062+95.8125C346.903+96.7967+346.741+97.7951+346.594+98.7812C346.373+100.26+346.181+101.735+346+103.219C345.746+105.296+345.5+107.385+345.312+109.469C344.742+115.789+344.908+122.046+345.656+128.344C346.189+124.443+346.901+120.614+347.938+116.812C349.316+111.757+351.158+106.856+353.031+101.969C353.899+99.7043+354.822+97.4526+355.688+95.1875C356.03+94.292+356.329+93.3903+356.594+92.4688C356.624+92.3819+356.658+92.2723+356.688+92.1875C356.759+91.9836+356.838+91.7675+356.906+91.5625C356.914+91.5405+356.93+91.522+356.938+91.5C357.075+91.5632+357.208+91.6235+357.344+91.6875C358.931+92.437+360.527+93.2092+362.125+93.9375C366.811+96.0737+371.533+98.1005+375.75+101.094C378.579+103.102+381.107+105.416+383.719+107.688C388.15+111.542+392.405+115.586+396.781+119.5C398.83+121.332+400.901+123.202+403.031+124.938C400.906+123.198+398.834+121.327+396.812+119.469C392.485+115.491+388.442+111.206+384.25+107.094C381.774+104.666+379.204+102.356+376.719+99.9375C373.97+97.2621+371.33+94.4999+368.625+91.7812C367.636+90.7876+366.634+89.7859+365.625+88.8125C363.011+86.2898+359.553+83.0689+355.781+82.5625C355.27+82.4938+354.643+82.4973+354.031+82.5625Z" opacity="1"/>
</g>
<g opacity="1">
<path d="M318.2+139.812C319.596+133.547+322.414+128.538+325.057+122.75C327.261+117.922+328.836+112.93+331.113+108.145C331.699+106.916+333.423+102.283+335.379+102.086C338.095+101.813+340.215+104.664+342.403+106.297C345.311+108.47+348.36+110.45+351.382+112.462C369.923+124.801+383.533+142.939+401.695+155.678" opacity="1" fill="#7fbc77"/>
<path fill="#2e2e2e" opacity="1" d="M336.031+97.7188C335.344+97.6898+334.659+97.7758+333.969+97.9688C329.746+99.1482+328.538+104.169+327.281+107.844C325.703+112.46+324.675+117.241+323.156+121.875C321.198+127.851+318.986+133.524+318.188+139.812C320.169+134.426+323.168+129.871+326.125+125C327.804+122.234+329.285+119.367+330.781+116.5C332.091+113.99+333.498+111.534+334.875+109.062C335.251+108.387+335.737+107.556+336.281+106.812C337.333+107.452+338.267+108.346+339.219+109.062C340.951+110.367+342.872+111.478+344.781+112.5C347.215+113.802+349.737+114.89+352.219+116.094C355.945+117.901+359.556+119.933+362.906+122.375C366.267+124.825+369.324+127.594+372.406+130.375C376.518+134.086+380.564+137.861+384.656+141.594C386.357+143.145+388.122+144.659+389.844+146.188C390.874+147.103+391.876+148.058+392.938+148.938C391.525+147.763+390.206+146.452+388.844+145.219C384.74+141.504+380.71+137.713+376.812+133.781C375.512+132.469+374.28+131.114+372.969+129.812C370.673+127.535+368.268+125.337+365.969+123.062C361.613+118.754+357.54+114.152+353.031+110C351.688+108.763+350.298+107.589+348.906+106.406C347.564+105.266+346.213+104.144+344.875+103C343.783+102.066+342.817+100.959+341.688+100.062C340.079+98.7857+338.093+97.8056+336.031+97.7188ZM337.188+105.781C337.239+105.746+337.14+105.896+337.094+105.938C337.072+105.957+337.035+105.977+337+106C337.068+105.943+337.117+105.829+337.188+105.781Z"/>
</g>
<g opacity="1">
<path d="M391.343+143.424C392.02+138.074+393.826+133.69+395.543+128.614C397.748+122.097+399.876+115.257+402.877+109.047C403.606+107.538+407.47+100.398+408.673+100.164C409.792+99.9458+413.388+102.118+414.229+102.588C421.12+106.433+427.28+111.068+433.768+115.538C447.69+125.131+462.487+133.502+477.631+141.003" opacity="1" fill="#7fbc77"/>
<path fill="#2e2e2e" d="M407.656+96.0312C405.283+96.6521+403.779+98.8734+402.531+100.812C400.221+104.403+398.803+108.457+397.594+112.531C397.081+114.259+396.614+115.999+396.188+117.75C395.628+120.047+395.131+122.347+394.625+124.656C393.266+130.857+391.537+137.061+391.344+143.438C392.665+138.41+395.025+133.87+397.219+129.188C399.428+124.471+401.517+119.724+403.969+115.125C404.764+113.633+405.608+112.143+406.469+110.688C407.159+109.519+408.025+108.46+408.75+107.312C409.23+106.552+409.676+105.762+410.156+105C410.661+105.226+411.159+105.454+411.656+105.688C413.602+106.602+415.57+107.495+417.531+108.375C422.902+110.784+428.21+113.274+433.312+116.219C436.986+118.339+440.5+120.697+444.156+122.844C455.103+129.271+466.269+135.328+477.625+141C466.269+135.299+455.118+129.279+444.562+122.188C441.053+119.83+437.498+117.557+434.219+114.875C431.669+112.79+429.283+110.527+426.906+108.25C422.738+104.257+418.468+100.332+413.438+97.4375C411.751+96.4672+409.652+95.5093+407.656+96.0312Z" opacity="1"/>
</g>
<g opacity="1">
<path d="M383.017+105.553C382.851+99.7689+382.817+94.2692+383.905+88.5288C385.135+82.0403+386.686+75.174+388.424+68.7659C388.788+67.4235+389.262+66.1134+389.674+64.785C389.943+63.9178+389.694+62.6535+390.468+62.1792C391.079+61.8046+391.774+62.7734+392.406+63.1116C394.127+64.032+395.891+64.8863+397.525+65.9539C401.749+68.7137+405.947+72.485+409.714+75.7447C422.005+86.3792+432.001+98.734+449.29+98.734" opacity="1" fill="#7fbc77"/>
<path d="M391.531+58C390.862+57.8737+390.185+57.8872+389.531+58.0938C388.962+58.2734+388.395+58.5334+387.906+58.875C386.992+59.5135+386.382+60.5576+385.969+61.5938C385.722+62.2132+385.75+62.8826+385.594+63.5C385.109+64.8415+384.592+66.2078+384.25+67.5938C383.562+70.3825+383.256+73.3107+382.906+76.1562C382.486+79.5788+382.196+82.9992+381.938+86.4375C381.746+88.9912+381.611+91.5326+381.719+94.0938C381.881+97.9402+382.459+101.76+383.031+105.562C383.413+101.802+383.81+98.0152+384.594+94.3125C385.096+91.9403+385.784+89.6482+386.531+87.3438C388.093+82.531+389.797+77.7527+391.531+73C392.158+71.2817+392.682+69.5587+393.219+67.8125C394.407+68.2877+395.588+68.7788+396.75+69.3125C401.375+71.4359+405.834+74.0218+409.938+77.0312C412.914+79.2143+415.567+81.739+418.375+84.125C421.804+87.0384+425.385+89.9158+429.156+92.375C435.394+96.4423+441.861+98.6234+449.281+98.7188C441.851+98.6066+435.409+96.4254+429.219+92.25C425.457+89.713+422.215+86.6446+418.938+83.5312C415.08+79.867+411.199+76.2211+407.719+72.1875C404.568+68.5361+401.584+64.6521+397.656+61.7812C396.583+60.997+395.448+60.3022+394.344+59.5625C394.299+59.5325+394.512+59.6774+394.5+59.625C394.439+59.3618+394.12+59.2589+393.906+59.0938C393.752+58.9744+393.572+58.8529+393.406+58.75C392.842+58.4001+392.2+58.1263+391.531+58Z" opacity="1" fill="#2e2e2e"/>
</g>
<path fill="#2e2e2e" opacity="1" d="M413.906+129.875C412.605+129.603+411.875+131.181+411.219+131.969C409.641+133.863+407.91+135.605+406.406+137.562C404.262+140.353+402.338+143.554+401.219+146.906C400.838+148.046+400.567+149.239+400.281+150.406C399.711+152.735+399.207+155.065+398.688+157.406C397.779+161.501+396.896+165.597+395.969+169.688C399.079+165.267+402.122+160.806+405.125+156.312C406.758+153.869+408.579+151.441+409.781+148.75C410.969+146.09+411.942+143.229+412.531+140.375C412.895+138.611+413.15+136.83+413.5+135.062C413.695+134.079+413.988+133.107+414.188+132.125C414.59+132.373+414.94+132.644+415.375+132.844C417.234+133.696+418.599+135.102+420.094+136.469C420.585+136.918+421.106+137.36+421.594+137.812C424.521+140.524+427.121+143.526+429.844+146.438C431.667+148.387+433.539+150.282+435.438+152.156C432.127+148.865+428.965+145.468+425.875+141.969C424.111+139.971+422.446+137.88+420.656+135.906C419.616+134.759+418.465+133.632+417.281+132.625C416.782+132.201+416.252+131.856+415.75+131.438C415.164+130.948+414.717+130.045+413.906+129.875Z"/>
<path opacity="1" fill="#2e2e2e" d="M327.812+83.1562C327.233+83.0839+326.646+83.1842+326.094+83.5C324.766+84.2602+324.296+86.6966+323.906+87.9375C323.764+88.3901+323.61+88.8283+323.469+89.2812C323.41+89.4685+323.372+89.6569+323.312+89.8438C323.293+89.9049+323.252+90.0954+323.25+90.0312C323.106+90.4123+322.95+90.7726+322.812+91.1562C322.66+91.5819+322.49+92.0097+322.344+92.4375C322.06+93.2668+321.814+94.1078+321.531+94.9375C320.398+98.2636+319.323+101.603+318.312+104.969C317.539+107.544+317.016+110.176+316.5+112.812C315.976+115.49+315.495+118.181+315.062+120.875C314.279+125.753+313.214+130.786+313.469+135.75C313.673+139.742+314.654+143.667+315.156+147.625C315.552+143.733+315.467+139.734+316.156+135.875C316.688+132.897+317.798+130.033+318.875+127.219C319.966+124.368+321.106+121.517+322.25+118.688C323.586+115.383+325.114+112.109+326.219+108.719C326.917+106.575+327.479+104.38+328+102.188C329.04+97.8115+329.644+93.252+329.656+88.7188C330.235+88.9651+330.822+89.2023+331.375+89.5C333.546+90.669+335.544+92.4009+337.281+94.125C339.388+96.2153+341.283+98.4831+343.156+100.781C346.199+104.515+349.21+108.267+351.969+112.219C354.285+115.536+356.496+118.931+358.781+122.281C357.532+120.408+356.315+118.514+355.094+116.625C352.805+113.085+350.444+109.603+348.062+106.125C347.04+104.632+346.051+103.107+344.969+101.656C342.611+98.4967+340.172+95.3606+337.75+92.25C336.443+90.572+335.127+88.8225+333.656+87.2812C333.254+86.8601+332.83+86.461+332.406+86.0625C331.292+85.0152+329.551+83.3732+327.812+83.1562ZM327.688+88C327.708+88.0028+327.73+88.028+327.75+88.0312C327.636+88.0349+327.461+88.0961+327.406+88.0312C327.347+87.9609+327.596+87.9874+327.688+88ZM360.25+124.344C361.166+125.623+362.002+126.94+363+128.156C364.493+129.977+366.117+131.653+367.844+133.25C366.12+131.65+364.52+129.98+363.031+128.156C362.035+126.936+361.154+125.631+360.25+124.344Z"/>
<path fill="#2e2e2e" opacity="1" d="M362.656+99.8438C361.6+99.9034+360.563+100.365+359.75+101.281C359.168+101.937+358.844+102.809+358.562+103.625C358.476+103.876+358.399+104.211+358.25+104.438C358.236+104.459+358.201+104.383+358.188+104.406C357.369+105.836+356.7+107.371+356.031+108.875C355.588+109.871+355.102+110.905+354.75+111.938C353.383+115.945+353.066+120.377+353.469+124.562C353.96+129.67+355.407+134.655+356.344+139.688C357.156+134.774+357.485+129.724+358.656+124.875C359.179+122.711+359.938+120.644+360.938+118.656C361.539+117.459+362.257+116.345+362.812+115.125C363.79+112.979+364.512+110.685+365.094+108.406C365.109+108.345+365.109+108.28+365.125+108.219C365.746+108.887+366.282+109.652+366.875+110.344C368.076+111.746+369.293+113.094+370.375+114.594C371.15+115.668+371.796+116.83+372.469+117.969C373.394+119.535+374.428+121.02+375.438+122.531C376.892+124.708+378.382+126.93+380.25+128.781C383.387+131.889+387.415+134.017+391.031+136.5C387.427+134.009+383.391+131.885+380.312+128.719C376.896+125.205+374.866+120.612+372.594+116.344C371.323+113.957+370.025+111.542+369.094+109C368.775+108.129+368.692+107.172+368.438+106.281C368.25+105.626+367.95+105.044+367.719+104.406C367.248+103.105+366.827+101.825+365.719+100.906C364.796+100.141+363.712+99.7841+362.656+99.8438ZM362.25+105.906C362.415+105.761+362.907+106.204+363+106.281C363.011+106.29+363.02+106.303+363.031+106.312C362.872+106.295+362.699+106.356+362.562+106.281C362.55+106.274+362.098+106.04+362.25+105.906Z"/>
<path d="M343.125+130.094C342.189+130.025+341.237+130.157+340.281+130.594C338.083+131.597+336.874+133.77+336.25+136C336.062+136.671+335.939+137.377+335.812+138.062C335.769+138.299+335.763+138.368+335.719+138.594C335.707+138.653+335.669+138.723+335.656+138.781C335.651+138.808+335.634+138.859+335.656+138.844C335.362+139.958+335.109+141.066+334.844+142.188C334.573+143.33+334.292+144.488+334+145.625C333.553+147.362+333.083+149.078+332.625+150.812C332.159+152.575+331.696+154.326+331.25+156.094C330.797+157.893+330.398+159.726+329.969+161.531C329.2+164.765+328.382+167.907+328.469+171.25C329.456+167.473+331.562+164.229+333.438+160.844C335.781+156.615+338.319+152.499+340.625+148.25C341.805+146.076+342.958+143.862+343.875+141.562C344.221+140.695+344.279+139.7+344.438+138.781C344.538+138.82+344.625+138.827+344.75+138.875C346.34+139.489+347.947+140.108+349.5+140.812C353.277+142.526+356.851+144.626+360.406+146.75C362.892+148.234+365.405+149.712+368+151C369.793+151.89+371.639+152.628+373.469+153.438C376.869+154.942+380.293+156.467+383.656+158.062C382.55+157.53+381.478+156.932+380.375+156.406C376.307+154.466+372.306+152.488+368.375+150.281C366.284+149.107+364.202+147.896+362.312+146.406C359.406+144.114+357.111+141.295+354.719+138.5C354.198+137.892+353.326+136.893+352.781+136.312C352.086+135.572+351.386+134.86+350.625+134.188C348.589+132.388+345.934+130.3+343.125+130.094ZM383.656+158.062C385.763+159.077+387.871+160.08+389.906+161.219C388.543+160.466+387.165+159.719+385.781+159.031C385.086+158.686+384.358+158.395+383.656+158.062ZM389.906+161.219C390.29+161.431+390.687+161.625+391.062+161.844C392.782+162.844+394.447+163.993+396.125+165.062C394.449+163.989+392.78+162.817+391.062+161.812C390.689+161.594+390.284+161.43+389.906+161.219Z" fill="#2e2e2e" opacity="1"/>
<path opacity="1" d="M293.75+127.875C292.746+127.928+291.758+128.23+290.844+128.844C287.395+131.161+286.443+136.147+285.312+139.938C284.442+142.858+283.637+145.753+283.5+148.812C283.284+153.623+283.963+158.423+284.531+163.188C285.466+171.036+286.375+178.898+287.281+186.75C288.169+179.262+289.066+171.781+289.844+164.281C290.233+160.533+290.513+156.751+291.125+153.031C291.414+151.272+291.86+149.548+292.25+147.812C292.752+145.58+293.246+143.358+293.75+141.125C294.069+139.712+294.22+138.264+294.5+136.844C294.649+136.088+294.867+135.344+295.031+134.594C295.052+134.498+295.189+134.292+295.094+134.312C295.004+134.331+294.923+134.424+294.844+134.469C294.757+134.518+294.725+134.464+294.656+134.438C294.627+134.426+294.543+134.431+294.562+134.406C294.775+134.139+295.367+134.108+295.656+134.094C296.571+134.049+297.49+134.224+298.375+134.438C302.03+135.318+305.284+137.079+308.281+139.312C311.532+141.734+314.36+144.548+317.219+147.406C320.1+150.288+322.976+153.199+325.875+156.062C327.579+157.746+329.405+159.285+331.188+160.875C329.153+159.014+327.099+157.137+325.219+155.125C322.686+152.415+320.297+149.595+317.812+146.844C315.331+144.096+312.681+141.491+310.094+138.844C307.56+136.251+305.112+133.609+302.219+131.406C299.974+129.697+296.761+127.715+293.75+127.875ZM331.188+160.875C331.795+161.431+332.352+162.05+332.969+162.594C333.27+162.859+333.603+163.081+333.906+163.344C332.975+162.55+332.101+161.69+331.188+160.875ZM333.906+163.344C337.552+166.451+341.275+169.443+345.125+172.312C341.285+169.438+337.535+166.482+333.906+163.344Z" fill="#2e2e2e"/>
<path opacity="1" fill="#2e2e2e" d="M222.75+177C222.123+176.94+221.496+176.987+220.812+177.156C218.403+177.754+216.845+179.837+215.781+181.938C214.189+185.083+213.288+188.782+212.656+192.219C212.463+193.27+212.284+194.438+212.156+195.5C211.961+197.121+211.841+198.775+211.781+200.406C211.703+202.538+211.715+204.681+211.812+206.812C212.1+213.116+213.015+219.367+213.781+225.625C214.727+217.475+215.39+209.198+217.531+201.25C218.169+198.884+218.95+196.52+219.875+194.25C220.471+192.789+221.173+191.409+221.812+189.969C222.422+188.596+222.94+187.175+223.562+185.812C223.999+186+224.425+186.19+224.875+186.344C226.78+186.994+228.74+187.469+230.688+187.969C235.621+189.235+240.595+190.375+245.375+192.156C249.525+193.702+253.302+195.87+257.219+197.906C261.351+200.055+265.498+202.248+269.719+204.219C270.567+204.615+271.48+204.831+272.344+205.188C266.863+202.817+261.831+199.663+256.688+196.656C251.164+193.428+245.576+190.335+240.25+186.781C237.907+185.218+235.59+183.598+233.188+182.125C231.494+181.086+229.727+180.168+228+179.188C226.313+178.229+224.632+177.181+222.75+177ZM272.344+205.188C272.636+205.314+272.893+205.504+273.188+205.625C274.361+206.108+275.586+206.455+276.781+206.875C275.283+206.361+273.809+205.792+272.344+205.188ZM276.781+206.875C278.459+207.45+280.111+208.088+281.812+208.594C280.115+208.085+278.452+207.462+276.781+206.875Z"/>
<path opacity="1" d="M179.562+193.594C177.506+194.086+176.608+196.13+175.656+197.812C173.76+201.164+172.456+204.8+171.969+208.625C171.016+216.097+172.004+223.641+172.906+231.062C173.911+239.329+174.969+247.585+176.031+255.844C177.001+248.303+177.95+240.765+178.875+233.219C179.227+230.347+179.56+227.47+179.875+224.594C180.04+223.09+180.25+221.606+180.312+220.094C180.449+216.786+180.092+213.423+179.875+210.125C179.673+207.064+179.534+204.025+179.844+200.969C179.95+199.922+180.087+198.88+180.281+197.844C180.345+197.503+180.442+197.179+180.531+196.844C180.889+196.924+181.218+197.062+181.562+197.188C182.708+197.603+183.814+198.12+184.906+198.656C186.571+199.474+188.286+200.157+189.969+200.938C191.96+201.861+193.899+202.887+195.875+203.844C205.731+208.616+215.093+214.383+224.594+219.812C217.468+215.719+210.403+211.56+203.312+207.406C199.041+204.904+194.791+202.418+190.438+200.062C189.109+199.344+187.767+198.637+186.5+197.812C185.189+196.96+183.998+195.899+182.719+195C182.023+194.511+180.459+193.379+179.562+193.594Z" fill="#2e2e2e"/>
<path fill="#2e2e2e" d="M401.062+149.281C400.486+149.335+399.905+149.452+399.344+149.688C398.068+150.223+397.143+151.179+396.469+152.375C396.238+152.784+396.149+153.359+395.875+153.75C395.631+154.098+395.405+154.479+395.188+154.844C394.948+155.245+394.699+155.625+394.469+156.031C391.247+161.713+389.896+168.248+388.094+174.469C386.492+179.997+385.057+185.561+385+191.344C386.625+185.953+389.47+181.146+392.406+176.375C394.579+172.844+396.661+169.256+398.875+165.75C400.038+163.909+401.083+162.069+402.062+160.125C402.507+159.244+402.921+158.346+403.312+157.438C403.963+157.724+404.613+158.023+405.219+158.375C406.751+159.265+408.142+160.353+409.625+161.312C410.845+162.101+412.066+162.876+413.25+163.719C416.784+166.235+419.841+169.17+422.906+172.219C424.867+174.169+426.794+176.114+428.594+178.219C431.684+181.832+434.467+185.693+437.625+189.25C437.63+189.256+437.651+189.244+437.656+189.25C434.055+185.173+430.919+180.67+427.469+176.469C426.146+174.859+424.846+173.219+423.469+171.656C422.127+170.134+420.714+168.715+419.344+167.219C417.146+164.819+415.028+162.329+413.125+159.688C410.904+156.604+409.189+152.952+406+150.719C404.547+149.701+402.792+149.12+401.062+149.281ZM401.781+156.969C401.843+156.904+402.019+157.023+402.188+157.062C402.067+157.072+401.95+157.114+401.844+157.094C401.804+157.086+401.753+156.998+401.781+156.969Z" opacity="1"/>
<path fill="#2e2e2e" d="M459.375+126.906C458.401+127.219+457.479+127.675+456.594+128.188C456.371+128.316+456.246+128.574+456.094+128.781C455.77+129.22+455.528+129.767+455.281+130.25C454.613+131.557+453.985+132.867+453.344+134.188C452.607+135.707+451.836+137.239+451.219+138.812C450.478+140.701+449.904+142.664+449.281+144.594C448.022+148.497+446.896+152.442+445.844+156.406C444.11+162.935+442.487+169.446+442.781+176.25C443.923+170.573+446.399+165.536+449.062+160.438C451.169+156.405+453.379+152.425+455.625+148.469C456.776+146.441+457.992+144.447+459.062+142.375C459.93+140.695+460.61+138.894+461.312+137.125C462.631+138.112+463.95+139.1+465.281+140.062C468.575+142.443+471.816+144.891+474.656+147.812C477.688+150.93+480.271+154.432+483.031+157.781C487.146+162.775+491.072+167.895+495.125+172.938C498.373+176.978+501.732+180.926+505.125+184.844C501.742+180.92+498.358+176.982+495.156+172.906C491.963+168.841+488.858+164.699+485.844+160.5C484.71+158.921+483.619+157.317+482.469+155.75C480.933+153.657+479.336+151.594+477.844+149.469C475.621+146.304+473.479+143.099+471.344+139.875C469.152+136.567+466.852+133.364+464.438+130.219C464.062+129.73+463.84+129.16+463.406+128.688C462.593+127.8+461.57+127.186+460.375+126.969C460.044+126.909+459.695+126.804+459.375+126.906Z" opacity="1"/>
<path opacity="1" fill="#2e2e2e" d="M460.5+76.75C459.85+76.7851+459.207+76.9105+458.562+77C458.304+77.0359+457.983+77.2302+457.781+77.3438C456.275+78.1918+455.713+79.4857+455.375+81.0625C455.296+81.431+455.283+81.8751+455.281+82.25C455.28+82.4268+455.283+82.6044+455.281+82.7812C455.178+83.1952+455.057+83.6141+454.969+84.0312C454.858+84.5526+454.74+85.0674+454.656+85.5938C454.487+86.6592+454.391+87.7392+454.281+88.8125C453.842+93.0972+453.553+97.3937+453.219+101.688C452.782+107.293+452.756+112.787+453.688+118.344C453.995+115.653+454.463+112.996+455.156+110.375C456.672+104.647+458.96+99.1203+460.906+93.5312C461.475+91.8974+461.905+90.2357+462.438+88.5938C463.877+89.7484+465.274+90.9573+466.719+92.0625C470.285+94.7909+473.794+97.5035+477.031+100.625C479.048+102.57+480.887+104.685+482.875+106.656C485.946+109.701+489.017+112.745+491.938+115.938C493.698+117.861+495.446+119.767+497.25+121.625C495.073+119.352+493.005+116.948+490.875+114.594C488.084+111.51+485.341+108.399+482.625+105.25C480.535+102.826+478.394+100.461+476.5+97.875C474.089+94.5813+472.095+91.0453+470.031+87.5312C469.397+86.4514+468.768+85.3481+468.062+84.3125C467.21+83.0602+466.259+81.9145+465.375+80.6875C465.283+80.5593+465.26+80.3906+465.188+80.25C464.871+79.6332+464.54+79.0091+464.062+78.5C463.287+77.6731+462.374+77.1545+461.281+76.8438C461.024+76.7706+460.767+76.7356+460.5+76.75ZM497.25+121.625C499.444+123.884+501.719+126.051+504.312+127.906C501.717+126.039+499.427+123.898+497.25+121.625Z"/>
<path d="M401.406+172.938C401.013+172.929+400.608+173.01+400.25+173.125C399.896+173.239+399.57+173.45+399.312+173.719C399.007+174.038+398.824+174.449+398.625+174.844C398.295+175.498+398.312+176.245+398.031+176.906C397.794+177.463+397.408+178.085+397.125+178.688C396.525+179.965+396.147+180.796+395.594+182.094C395.349+182.667+395.107+183.265+394.875+183.844C394.442+184.926+393.945+186.242+393.562+187.344C392.577+190.184+391.627+193.089+391+196.031C390.563+198.083+390.365+200.203+390.094+202.281C389.835+204.265+389.588+206.229+389.375+208.219C388.466+216.711+388.046+225.214+389.031+233.719C390.222+224.935+392.884+216.535+395.875+208.219C397.076+204.879+398.435+201.541+399.406+198.125C400.717+193.515+401.695+188.714+402.344+183.969C402.538+182.546+402.644+181.116+402.781+179.688C403.278+180.371+403.806+181.052+404.281+181.75C406.615+185.176+408.49+188.785+410.375+192.469C411.532+194.729+412.697+196.985+413.781+199.281C415.477+202.871+417.235+206.429+418.969+210C416.19+204.118+413.778+198.065+411.125+192.125C410.326+190.337+409.423+188.587+408.594+186.812C407.142+183.705+405.738+180.58+404.594+177.344C404.199+176.226+403.638+173.87+402.531+173.219C402.207+173.028+401.799+172.946+401.406+172.938ZM418.969+210C419.448+211.015+419.866+212.06+420.375+213.062C420.507+213.322+420.679+213.555+420.812+213.812C420.161+212.559+419.585+211.27+418.969+210ZM420.812+213.812C421.143+214.449+421.407+215.119+421.75+215.75C423.207+218.431+424.815+221.02+426.5+223.562C424.42+220.409+422.553+217.162+420.812+213.812ZM400.094+176.406C400.093+176.374+400.163+176.416+400.188+176.438C400.273+176.511+400.358+176.576+400.438+176.656C400.453+176.672+400.453+176.703+400.469+176.719C400.415+176.685+400.366+176.655+400.312+176.625C400.225+176.576+400.097+176.507+400.094+176.406Z" fill="#2e2e2e" opacity="1"/>
<path opacity="1" fill="#2e2e2e" d="M444.656+178.281C443.711+178.254+442.763+178.44+441.875+178.906C441.448+179.131+441.036+179.385+440.688+179.719C440.273+180.116+439.916+180.567+439.625+181.062C439.349+181.532+439.139+182.036+439+182.562C438.603+184.068+438.96+185.383+439.156+186.812C439.313+187.958+439.433+189.105+439.594+190.25C440.018+193.28+440.495+196.321+440.969+199.344C441.76+204.39+442.576+209.429+443.406+214.469C444.402+208.421+445.396+202.367+446.344+196.312C446.797+193.418+447.257+190.511+447.562+187.594C447.675+187.634+447.794+187.646+447.906+187.688C448.636+187.956+449.52+188.202+450.219+188.531C452.203+189.467+454.16+190.532+456.062+191.625C458.499+193.025+460.73+194.645+462.812+196.531C464.472+198.035+466.025+199.685+467.656+201.219C470.514+203.906+473.225+206.731+476.094+209.406C476.911+210.168+477.789+210.859+478.625+211.594C476.14+209.365+473.758+206.983+471.469+204.531C469.935+202.888+468.497+201.174+467+199.5C465.126+197.406+463.188+195.396+461.406+193.219C459.846+191.312+458.405+189.312+456.969+187.312C455.587+185.389+454.234+183.49+452.406+181.969C450.413+180.31+447.493+178.364+444.656+178.281ZM478.625+211.594C481.133+213.798+483.709+215.911+486.469+217.812C483.709+215.899+481.11+213.823+478.625+211.594Z"/>
<path opacity="1" fill="#2e2e2e" d="M611.344+212.688C606.726+212.699+602.081+212.775+597.469+213.031C602.089+212.78+606.721+212.699+611.344+212.688ZM597.469+213.031C595.23+213.153+593.011+213.495+590.781+213.719C593.011+213.487+595.23+213.156+597.469+213.031ZM590.781+213.719C588.687+213.937+586.582+214.034+584.5+214.375C584.278+214.411+584.066+214.493+583.844+214.531C586.145+214.156+588.465+213.951+590.781+213.719ZM583.844+214.531C583.254+214.627+582.651+214.612+582.062+214.719C573.939+216.195+566.034+218.665+558.031+220.656C566.625+218.572+575.116+216.021+583.844+214.531Z"/>
<path fill="#2e2e2e" opacity="1" d="M592.125+233.219C584.062+235.204+576.187+237.897+568.406+240.781C555.685+245.497+543.235+250.951+530.75+256.25C543.251+250.988+555.722+245.605+568.438+240.875C576.203+237.986+584.076+235.216+592.125+233.219Z"/>
<path fill="#2e2e2e" d="M618.469+253.125C608.624+253.826+598.796+254.99+589.094+256.969C573.216+260.206+558.017+267.037+541.625+267.344C558.015+267.085+573.264+260.351+589.125+257.062C598.825+255.052+608.628+253.836+618.469+253.125Z" opacity="1"/>
<path fill="#2e2e2e" d="M615.969+290.031C609.875+290.254+603.774+290.566+597.688+291C591.554+291.437+585.38+291.819+579.281+292.625C566.793+294.276+554.705+298.092+542.031+298.281C554.703+298.136+566.831+294.396+579.312+292.719C585.408+291.9+591.556+291.482+597.688+291.031C603.773+290.584+609.875+290.255+615.969+290.031Z" opacity="1"/>
<path d="M520.625+241.688C518.335+244.018+516.211+246.481+514.156+249.031C516.198+246.479+518.344+244.02+520.625+241.688ZM514.156+249.031C509.819+254.414+505.887+260.154+502.125+265.906C499.93+269.263+497.755+272.63+495.656+276.031C497.964+272.323+500.411+268.696+502.812+265.031C506.384+259.581+510.072+254.135+514.156+249.031ZM495.656+276.031C493.361+279.751+491.179+283.518+489.312+287.5C491.194+283.531+493.349+279.739+495.656+276.031Z" opacity="1" fill="#2e2e2e"/>
<path fill="#2e2e2e" d="M564.906+257.781C559.504+259.497+554.164+261.432+548.906+263.531C554.166+261.436+559.505+259.496+564.906+257.781ZM548.906+263.531C547.362+264.147+545.842+264.817+544.312+265.469C545.84+264.813+547.363+264.147+548.906+263.531ZM544.312+265.469C542.669+266.174+540.998+266.807+539.375+267.562C538.05+268.179+536.809+268.946+535.5+269.594C538.417+268.174+541.33+266.74+544.312+265.469ZM535.5+269.594C533.564+270.536+531.56+271.332+529.656+272.344C527.566+273.455+525.57+274.711+523.531+275.906C527.427+273.628+531.451+271.597+535.5+269.594ZM523.531+275.906C522.906+276.272+522.277+276.628+521.656+277C522.276+276.626+522.907+276.272+523.531+275.906ZM521.656+277C516.485+280.117+511.422+283.382+506.531+286.938C511.434+283.41+516.483+280.101+521.656+277Z" opacity="1"/>
<path fill="#2e2e2e" opacity="1" d="M655.031+269.938C643.849+269.974+632.626+270.433+621.469+271.438C632.619+270.416+643.83+269.975+655.031+269.938ZM619.375+271.594C614.194+272.097+609.046+272.792+603.906+273.594C609.042+272.783+614.2+272.104+619.375+271.594ZM601.688+273.906C596.848+274.707+592.063+275.756+587.281+276.875C592.059+275.752+596.859+274.714+601.688+273.906ZM587.281+276.875C586.338+277.097+585.379+277.234+584.438+277.469C584.268+277.511+584.107+277.582+583.938+277.625C585.047+277.346+586.168+277.135+587.281+276.875ZM583.938+277.625C583.068+277.844+582.18+277.957+581.312+278.188C566.413+282.149+552.239+288.272+537.875+293.781C553.104+287.987+568.106+281.636+583.938+277.625Z"/>
<path opacity="1" d="M709.719+212.281C707.242+212.341+704.816+212.555+702.375+213C701.829+213.1+701.292+213.258+700.75+213.375C703.664+212.761+706.626+212.357+709.719+212.281ZM700.062+213.562C697.528+214.143+695.01+214.835+692.531+215.625C695.053+214.834+697.552+214.121+700.062+213.562ZM692.531+215.625C692.26+215.71+691.991+215.757+691.719+215.844C691.298+215.978+690.889+216.145+690.469+216.281C691.153+216.059+691.844+215.844+692.531+215.625ZM686.75+217.531C684.924+218.148+683.09+218.742+681.281+219.406C681.132+219.461+680.993+219.539+680.844+219.594C682.802+218.874+684.773+218.196+686.75+217.531ZM680.844+219.594C680.534+219.707+680.215+219.791+679.906+219.906C675.477+221.562+671.117+223.378+666.781+225.25C671.419+223.242+676.1+221.348+680.844+219.594ZM666.781+225.25C652.418+231.451+638.446+238.52+624.094+244.75C638.456+238.575+652.43+231.463+666.781+225.25Z" fill="#2e2e2e"/>
<path opacity="1" fill="#2e2e2e" d="M686.688+268.594C673.469+274.132+660.023+279.103+646.812+284.656C643.406+286.088+640.072+287.689+636.719+289.25C640.07+287.721+643.425+286.17+646.844+284.719C660.035+279.12+673.47+274.132+686.688+268.594ZM636.719+289.25C634.136+290.452+631.497+291.5+628.844+292.531C631.492+291.518+634.13+290.431+636.719+289.25ZM628.844+292.531C627.79+292.934+626.76+293.394+625.688+293.75C625.954+293.662+626.234+293.624+626.5+293.531C627.304+293.251+628.051+292.839+628.844+292.531ZM625.688+293.75C623.05+294.623+620.368+295.343+617.625+295.812C620.408+295.348+623.072+294.617+625.688+293.75Z"/>
<path opacity="1" d="M665.938+307.719C656.543+307.74+647.139+307.87+637.75+308.125C647.146+307.881+656.539+307.74+665.938+307.719ZM637.75+308.125C629.552+308.338+621.345+308.717+613.156+309.156C621.358+308.69+629.54+308.348+637.75+308.125ZM611.094+309.25C609.314+309.35+607.529+309.387+605.75+309.5C591.274+310.416+576.86+311.991+562.344+312.125C578.627+312.025+594.851+310.222+611.094+309.25Z" fill="#2e2e2e"/>
<path fill="#2e2e2e" d="M603.781+288.75C595.62+292.362+587.943+296.993+580.344+301.656C568.993+308.622+557.729+315.756+546.781+323.344C557.756+315.795+569.052+308.728+580.375+301.719C587.953+297.028+595.635+292.37+603.781+288.75Z" opacity="1"/>
<path fill="#2e2e2e" d="M571.875+298.094C565.528+299.576+559.231+301.208+552.969+303C542.777+305.916+532.673+309.187+522.594+312.469C519.444+313.494+516.302+314.575+513.125+315.406C516.921+314.428+520.648+313.126+524.406+311.938C534.484+308.751+544.552+305.489+554.719+302.594C560.411+300.973+566.113+299.452+571.875+298.094ZM511.875+315.688C510.697+315.97+509.541+316.244+508.344+316.438C509.53+316.249+510.707+315.963+511.875+315.688Z" opacity="1"/>
<path d="M634.562+248.281C629.216+248.814+623.909+249.605+618.625+250.531C623.894+249.589+629.201+248.816+634.562+248.281ZM618.625+250.531C618.144+250.617+617.668+250.723+617.188+250.812C617.668+250.725+618.144+250.616+618.625+250.531ZM617.188+250.812C614.997+251.212+612.805+251.561+610.625+252.031C608.901+252.404+607.215+252.935+605.5+253.344C609.382+252.432+613.263+251.54+617.188+250.812ZM605.5+253.344C601.732+254.229+597.985+255.222+594.25+256.25C597.978+255.204+601.734+254.242+605.5+253.344ZM594.25+256.25C592.211+256.822+590.155+257.33+588.125+257.938C590.157+257.34+592.21+256.812+594.25+256.25ZM588.125+257.938C581.997+259.739+575.886+261.62+569.812+263.656C564.913+265.299+560.093+267.05+555.344+269.094C552.639+270.258+549.942+271.425+547.188+272.469C547.587+272.313+548.011+272.217+548.406+272.062C550.745+271.149+553.066+270.142+555.375+269.156C560.128+267.127+564.947+265.394+569.844+263.75C575.905+261.715+581.997+259.771+588.125+257.938ZM547.188+272.469C545.456+273.143+543.712+273.843+541.906+274.219C543.523+273.877+545.112+273.261+546.656+272.688C546.836+272.621+547.008+272.537+547.188+272.469Z" fill="#2e2e2e" opacity="1"/>
<path d="M587.25+245.781C578.54+248.167+569.888+250.745+561.25+253.406C549.763+256.945+538.423+261.571+526.281+262.125C538.788+261.599+550.581+256.827+562.406+253.156C570.67+250.591+578.921+248.078+587.25+245.781Z" opacity="1" fill="#2e2e2e"/>
<path d="M555.344+219.156C538.605+221.722+522.076+225.459+505.719+229.906C501.383+231.085+497.063+232.322+492.812+233.781C486.561+235.927+480.353+238.33+473.844+239.594C471.619+240.026+469.398+240.213+467.156+240.312C469.399+240.219+471.617+240.051+473.844+239.625C480.359+238.379+486.585+235.976+492.844+233.844C497.095+232.395+501.418+231.186+505.75+230C522.108+225.522+538.61+221.737+555.344+219.156Z" fill="#2e2e2e" opacity="1"/>
<path fill="#2e2e2e" d="M611.406+214.969C592.627+218.856+573.849+222.908+555.281+227.719C542.138+231.124+529.246+235.456+515.719+237.125C529.649+235.452+542.932+230.972+556.469+227.5C574.669+222.831+593.009+218.778+611.406+214.969Z" opacity="1"/>
<path opacity="1" d="M467.217+263.795C474.57+261.176+481.674+257.981+488.943+255.151C492.584+253.733+496.274+252.512+499.994+251.322L499.994+251.322L499.994+251.322C496.275+252.511+492.583+253.732+488.939+255.142C481.669+257.956+474.538+261.112+467.217+263.795L467.217+263.795Z" fill="#2e2e2e"/>
<path opacity="1" fill="#2e2e2e" d="M492.531+266.312C487.668+268.31+482.718+269.949+477.688+271.375C482.716+269.945+487.665+268.312+492.531+266.312ZM477.688+271.375C476.933+271.59+476.163+271.763+475.406+271.969C476.164+271.764+476.933+271.589+477.688+271.375ZM475.406+271.969C470.924+273.18+466.394+274.281+461.844+275.281C454.642+276.865+447.438+278.352+440.125+279.031C448.309+278.319+456.382+276.65+464.406+274.781C468.102+273.92+471.759+272.96+475.406+271.969Z"/>
<path d="M516.219+300.406C507.85+302.404+499.374+303.904+491+305.875C481.967+308.002+473.151+310.965+464.094+313C473.16+311.009+482.008+308.128+491.031+305.969C499.397+303.966+507.852+302.407+516.219+300.406Z" opacity="1" fill="#2e2e2e"/>
<path opacity="1" fill="#2e2e2e" d="M581.375+319C579.585+319.082+577.816+319.327+576.031+319.469C577.815+319.329+579.587+319.084+581.375+319ZM576.031+319.469C573.977+319.63+571.922+319.717+569.875+319.969C569.508+320.014+569.147+320.107+568.781+320.156C571.188+319.82+573.607+319.661+576.031+319.469ZM568.781+320.156C568.449+320.203+568.113+320.2+567.781+320.25C566.087+320.504+564.403+320.871+562.719+321.188C564.733+320.821+566.752+320.431+568.781+320.156ZM562.719+321.188C557.456+322.145+552.19+323.163+546.875+323.781C541.283+324.432+535.649+324.241+530.031+324.219C535.651+324.269+541.309+324.502+546.906+323.875C552.225+323.28+557.46+322.176+562.719+321.188Z"/>
<path fill="#2e2e2e" d="M661.5+263.219C652.587+265.314+643.672+267.639+634.5+268.25C624.91+268.889+615.287+268.341+605.688+268.312C615.287+268.384+624.909+269.009+634.5+268.344C643.663+267.708+652.595+265.316+661.5+263.219Z" opacity="1"/>
<path fill="#2e2e2e" opacity="1" d="M674.469+306.094C670+307.249+665.565+308.491+661.156+309.844C653.108+312.313+645.178+315.425+636.625+315.25C645.178+315.476+653.158+312.441+661.188+309.906C665.576+308.521+670.012+307.254+674.469+306.094Z"/>
<path d="M720.594+264.469C713.558+265.632+706.527+266.946+699.469+267.969C706.529+266.909+713.558+265.633+720.594+264.469ZM698.375+268.125C695.24+268.564+692.12+268.917+688.969+269.188C689.843+269.117+690.72+269.185+691.594+269.094C693.865+268.857+696.115+268.453+698.375+268.125ZM688.969+269.188C684.953+269.511+680.94+269.762+676.906+269.656C680.945+269.733+684.969+269.531+688.969+269.188Z" opacity="1" fill="#2e2e2e"/>
<path d="M696.562+300.219C685.456+300.385+674.387+301.234+663.281+301.375C674.392+301.34+685.454+300.386+696.562+300.219Z" fill="#2e2e2e" opacity="1"/>
<path d="M677.208+258.068C685.117+258.121+693.024+258.068+700.932+258.068L700.932+258.068L700.932+258.068C693.024+258.067+685.117+258.015+677.208+258.068L677.208+258.068Z" fill="#2e2e2e" opacity="1"/>
<path d="M696.094+243.062C691.89+243.568+687.748+244.466+683.531+244.875C677.835+245.428+672.088+245.19+666.375+245.312C672.09+245.24+677.836+245.555+683.531+244.938C687.742+244.481+691.889+243.57+696.094+243.062Z" opacity="1" fill="#2e2e2e"/>
<path opacity="1" fill="#2e2e2e" d="M609.622+251.202C625.907+251.255+642.192+251.203+658.477+251.202L658.477+251.202L658.477+251.202C642.192+251.202+625.907+251.149+609.622+251.202L609.622+251.202Z"/>
<path d="M692.844+202.969C688.294+203.996+683.794+205.227+679.344+206.625C678.582+206.864+677.823+207.129+677.062+207.375C682.268+205.688+687.505+204.174+692.844+202.969ZM675.438+207.906C668.9+210.051+662.372+212.277+655.781+214.25C662.365+212.246+668.907+210.067+675.438+207.906ZM655.781+214.25C654.926+214.51+654.078+214.785+653.219+215.031C654.078+214.788+654.925+214.506+655.781+214.25ZM653.219+215.031C649.301+216.143+645.341+217.123+641.344+217.844C643.346+217.5+645.358+217.219+647.344+216.75C649.333+216.28+651.256+215.595+653.219+215.031ZM641.031+217.906C639.361+218.202+637.69+218.425+636+218.625C637.684+218.442+639.359+218.187+641.031+217.906ZM636+218.625C633.355+218.913+630.708+219.167+628.031+219.188C630.721+219.154+633.366+218.937+636+218.625Z" opacity="1" fill="#2e2e2e"/>
<path opacity="1" d="M607.719+230.875C626.688+231.791+645.645+231.146+664.625+231.031C645.65+231.145+626.685+231.685+607.719+230.875Z" fill="#2e2e2e"/>
<path fill="#2e2e2e" d="M646.978+248.563C655.755+248.616+664.531+248.564+673.309+248.563L673.309+248.563L673.309+248.563C664.531+248.563+655.755+248.51+646.978+248.563L646.978+248.563Z" opacity="1"/>
<path fill="#2e2e2e" d="M637.875+267.25C624.24+270.001+610.683+273.182+597.062+276C610.706+273.286+624.239+270.002+637.875+267.25Z" opacity="1"/>
<path d="M612.375+261.406C603.162+262.852+593.977+264.549+584.625+264.688C589.297+264.654+593.935+264.292+598.562+263.656C603.179+263.022+607.774+262.136+612.375+261.406Z" fill="#2e2e2e" opacity="1"/>
<path fill="#2e2e2e" d="M660.719+280.75C655.423+281.566+650.117+282.189+644.781+282.656C650.111+282.173+655.42+281.567+660.719+280.75ZM644.781+282.656C643.42+282.78+642.051+282.868+640.688+282.969C641.52+282.912+642.355+282.91+643.188+282.844C643.722+282.802+644.248+282.703+644.781+282.656ZM640.688+282.969C636.836+283.232+632.986+283.416+629.125+283.531C630.896+283.476+632.667+283.524+634.438+283.438C636.526+283.336+638.606+283.123+640.688+282.969ZM629.125+283.531C622.092+283.752+615.069+283.845+608.031+283.844C615.058+283.803+622.093+283.742+629.125+283.531Z" opacity="1"/>
<path opacity="1" fill="#2e2e2e" d="M673.938+296C670.069+296.471+666.243+297.032+662.406+297.719C658.602+298.399+654.797+299.125+651+299.844C658.641+298.49+666.243+296.936+673.938+296ZM650.062+300C642.731+301.281+635.373+302.356+627.906+302.469C633.099+302.426+638.24+301.996+643.375+301.219C645.614+300.88+647.837+300.415+650.062+300Z"/>
<path d="M680.062+257.125C678.049+258.372+676.075+259.654+674.125+261C676.088+259.687+678.052+258.366+680.062+257.125ZM674.125+261C672.801+261.886+671.468+262.766+670.125+263.625C670.582+263.326+671.078+263.086+671.531+262.781C672.4+262.198+673.259+261.597+674.125+261ZM670.125+263.625C669.359+264.126+668.531+264.525+667.75+265C668.219+264.718+668.724+264.509+669.188+264.219C669.501+264.023+669.814+263.824+670.125+263.625ZM667.75+265C665.901+266.111+664.065+267.217+662.094+268.094C660.947+268.604+659.717+269.165+658.469+269.375C656.578+269.693+654.62+269.251+652.719+269.219C654.623+269.266+656.604+269.741+658.5+269.438C660.179+269.168+661.823+268.318+663.344+267.594C664.884+266.861+666.294+265.885+667.75+265Z" opacity="1" fill="#2e2e2e"/>
<path d="M707.094+279.562C701.822+280.671+696.578+281.939+691.312+283.094C696.575+281.916+701.819+280.678+707.094+279.562ZM691.188+283.094C686.108+284.206+681.027+285.212+675.875+285.938C677.333+285.746+678.795+285.588+680.25+285.344C683.93+284.727+687.547+283.907+691.188+283.094ZM675.875+285.938C675.532+285.982+675.187+286.02+674.844+286.062C674.999+286.042+675.157+286.052+675.312+286.031C675.501+286.006+675.686+285.964+675.875+285.938ZM674.844+286.062C670.87+286.585+666.882+286.878+662.875+286.969C666.888+286.899+670.875+286.548+674.844+286.062Z" fill="#2e2e2e" opacity="1"/>
<path opacity="1" fill="#2e2e2e" d="M716.219+224.719C714.512+226.527+712.679+228.232+710.844+229.906C712.682+228.236+714.489+226.501+716.219+224.719ZM710.844+229.906C709.558+231.074+708.234+232.198+706.875+233.281C707.642+232.689+708.444+232.158+709.188+231.531C709.779+231.033+710.274+230.426+710.844+229.906ZM706.875+233.281C706.433+233.622+706.012+233.982+705.562+234.312C705.755+234.168+705.966+234.054+706.156+233.906C706.407+233.711+706.627+233.479+706.875+233.281ZM705.562+234.312C703.147+236.134+700.62+237.767+698+239.281C700.62+237.768+703.132+236.099+705.562+234.312Z"/>
<path opacity="1" d="M707.5+216.531C698.444+220.815+689.775+225.847+680.75+230.188C676.218+232.367+671.581+234.269+666.906+236.125C671.583+234.274+676.233+232.396+680.781+230.25C689.838+225.976+698.469+220.862+707.5+216.531Z" fill="#2e2e2e"/>
<path opacity="1" fill="#2e2e2e" d="M714.344+234.312C712.871+235.954+711.343+237.554+709.781+239.125C711.361+237.571+712.857+235.965+714.344+234.312ZM709.781+239.125C708.5+240.385+707.225+241.647+705.844+242.781C707.212+241.633+708.518+240.396+709.781+239.125ZM705.844+242.781C704.059+244.246+702.147+245.567+700.125+246.719C700.532+246.49+700.976+246.374+701.375+246.125C702.959+245.138+704.421+243.976+705.844+242.781ZM700.125+246.719C699.644+246.989+699.147+247.195+698.656+247.438C699.067+247.231+699.502+247.101+699.906+246.875C699.985+246.831+700.047+246.763+700.125+246.719ZM698.656+247.438C697.267+248.136+695.868+248.797+694.406+249.281C695.878+248.806+697.262+248.126+698.656+247.438ZM694.406+249.281C692.422+249.922+690.38+250.433+688.281+250.719C690.379+250.417+692.424+249.938+694.406+249.281Z"/>
<path stroke="#2e2e2e" fill="none" stroke-width="1.42252" stroke-linecap="round" d="M576.598+288.433C576.598+284.468+576.598+280.502+576.598+276.537" stroke-linejoin="round" opacity="1"/>
<path fill="none" stroke-linejoin="round" stroke-linecap="round" d="M577.363+279.638C578.597+279.29+581.321+276.508+582.174+276.508" stroke="#2e2e2e" opacity="1" stroke-width="1.42252"/>
<path opacity="1" stroke-linejoin="round" stroke-width="1.42252" d="M577.04+284.805C577.04+284.022+578.988+281.457+579.947+281.457" stroke="#2e2e2e" stroke-linecap="round" fill="none"/>
<path fill="none" stroke-linecap="round" stroke="#2e2e2e" opacity="1" stroke-linejoin="round" stroke-width="1.42252" d="M575.959+281.041C574.663+280.86+573.001+278.961+572.209+278.054C571.91+277.711+571.596+277.38+571.289+277.044C571.262+277.014+570.712+276.354+570.806+276.448"/>
<path stroke-linecap="round" fill="none" stroke-width="1.42252" stroke-linejoin="round" d="M576.219+285.526C574.7+285.526+573.716+285.023+572.426+284.297" opacity="1" stroke="#2e2e2e"/>
<path stroke-linejoin="round" d="M577.059+287.369C577.51+286.461+579.865+285.471+580.708+284.628" stroke="#2e2e2e" fill="none" opacity="1" stroke-width="1.42252" stroke-linecap="round"/>
<path opacity="1" stroke-width="1.42252" d="M596.598+308.433C596.598+304.468+596.598+300.502+596.598+296.537" fill="none" stroke-linecap="round" stroke="#2e2e2e" stroke-linejoin="round"/>
<path stroke-linecap="round" fill="none" opacity="1" stroke="#2e2e2e" stroke-width="1.42252" d="M597.363+299.638C598.597+299.29+601.321+296.508+602.174+296.508" stroke-linejoin="round"/>
<path stroke-linecap="round" stroke-linejoin="round" d="M597.04+304.805C597.04+304.022+598.988+301.457+599.947+301.457" stroke="#2e2e2e" fill="none" opacity="1" stroke-width="1.42252"/>
<path stroke-width="1.42252" stroke="#2e2e2e" stroke-linecap="round" fill="none" d="M595.959+301.041C594.663+300.86+593.001+298.961+592.209+298.054C591.91+297.711+591.596+297.38+591.289+297.044C591.262+297.014+590.712+296.354+590.806+296.448" opacity="1" stroke-linejoin="round"/>
<path fill="none" stroke="#2e2e2e" stroke-linecap="round" d="M596.219+305.526C594.7+305.526+593.716+305.023+592.426+304.297" stroke-linejoin="round" opacity="1" stroke-width="1.42252"/>
<path opacity="1" d="M597.059+307.369C597.51+306.461+599.865+305.471+600.708+304.628" stroke="#2e2e2e" fill="none" stroke-linejoin="round" stroke-width="1.42252" stroke-linecap="round"/>
<path stroke="#2e2e2e" stroke-linecap="round" opacity="1" stroke-width="1.42252" fill="none" d="M616.598+328.433C616.598+324.468+616.598+320.502+616.598+316.537" stroke-linejoin="round"/>
<path stroke-linecap="round" d="M617.363+319.638C618.597+319.29+621.321+316.508+622.174+316.508" opacity="1" stroke-linejoin="round" stroke-width="1.42252" stroke="#2e2e2e" fill="none"/>
<path stroke-linecap="round" stroke="#2e2e2e" stroke-linejoin="round" fill="none" stroke-width="1.42252" d="M617.04+324.805C617.04+324.022+618.988+321.457+619.947+321.457" opacity="1"/>
<path stroke="#2e2e2e" stroke-width="1.42252" fill="none" opacity="1" stroke-linecap="round" d="M615.959+321.041C614.663+320.86+613.001+318.961+612.209+318.054C611.91+317.711+611.596+317.38+611.289+317.044C611.262+317.014+610.712+316.354+610.806+316.448" stroke-linejoin="round"/>
<path fill="none" stroke-linejoin="round" stroke-width="1.42252" stroke-linecap="round" d="M616.219+325.526C614.7+325.526+613.716+325.023+612.426+324.297" stroke="#2e2e2e" opacity="1"/>
<path fill="none" opacity="1" d="M617.059+327.369C617.51+326.461+619.865+325.471+620.708+324.628" stroke-linejoin="round" stroke="#2e2e2e" stroke-linecap="round" stroke-width="1.42252"/>
<path d="M528.825+316.873C528.825+312.908+528.825+308.942+528.825+304.977" stroke-width="1.42252" stroke="#2e2e2e" opacity="1" fill="none" stroke-linecap="round" stroke-linejoin="round"/>
<path fill="none" d="M529.59+308.078C530.824+307.73+533.548+304.948+534.401+304.948" stroke-linecap="round" stroke="#2e2e2e" stroke-linejoin="round" opacity="1" stroke-width="1.42252"/>
<path stroke-linecap="round" d="M529.267+313.245C529.267+312.462+531.215+309.897+532.174+309.897" stroke-linejoin="round" opacity="1" stroke-width="1.42252" fill="none" stroke="#2e2e2e"/>
<path opacity="1" stroke-width="1.42252" stroke="#2e2e2e" stroke-linecap="round" d="M528.186+309.481C526.89+309.3+525.228+307.401+524.436+306.494C524.137+306.151+523.823+305.82+523.516+305.484C523.489+305.454+522.939+304.794+523.033+304.888" fill="none" stroke-linejoin="round"/>
<path stroke="#2e2e2e" d="M528.446+313.966C526.927+313.966+525.943+313.463+524.653+312.737" stroke-width="1.42252" stroke-linecap="round" stroke-linejoin="round" fill="none" opacity="1"/>
<path stroke-linejoin="round" stroke-width="1.42252" d="M529.285+315.809C529.737+314.901+532.092+313.911+532.935+313.068" fill="none" opacity="1" stroke="#2e2e2e" stroke-linecap="round"/>
<path stroke-linecap="round" d="M570.514+324.285C570.514+320.32+570.514+316.354+570.514+312.389" stroke="#2e2e2e" stroke-width="1.42252" opacity="1" stroke-linejoin="round" fill="none"/>
<path stroke-width="1.42252" fill="none" stroke="#2e2e2e" stroke-linecap="round" d="M571.28+315.49C572.514+315.142+575.238+312.36+576.091+312.36" opacity="1" stroke-linejoin="round"/>
<path stroke-linejoin="round" stroke-linecap="round" opacity="1" d="M570.957+320.657C570.957+319.874+572.904+317.309+573.864+317.309" stroke="#2e2e2e" fill="none" stroke-width="1.42252"/>
<path stroke-linecap="round" fill="none" opacity="1" d="M569.875+316.893C568.579+316.712+566.918+314.813+566.126+313.906C565.826+313.563+565.513+313.232+565.206+312.896C565.179+312.866+564.629+312.206+564.723+312.3" stroke-linejoin="round" stroke-width="1.42252" stroke="#2e2e2e"/>
<path fill="none" d="M570.135+321.378C568.617+321.378+567.633+320.875+566.343+320.149" stroke-linejoin="round" stroke="#2e2e2e" stroke-linecap="round" opacity="1" stroke-width="1.42252"/>
<path d="M570.975+323.221C571.427+322.313+573.782+321.323+574.625+320.48" stroke-width="1.42252" stroke-linecap="round" fill="none" stroke-linejoin="round" opacity="1" stroke="#2e2e2e"/>
<path opacity="1" fill="none" stroke-width="1.42252" stroke-linecap="round" d="M562.509+303.745C562.509+299.78+562.509+295.814+562.509+291.849" stroke-linejoin="round" stroke="#2e2e2e"/>
<path stroke-width="1.42252" fill="none" stroke-linejoin="round" opacity="1" stroke="#2e2e2e" d="M563.274+294.95C564.508+294.602+567.232+291.82+568.085+291.82" stroke-linecap="round"/>
<path stroke-width="1.42252" stroke-linejoin="round" stroke="#2e2e2e" d="M562.951+300.117C562.951+299.334+564.899+296.769+565.858+296.769" stroke-linecap="round" fill="none" opacity="1"/>
<path stroke-width="1.42252" opacity="1" stroke-linecap="round" fill="none" d="M561.869+296.353C560.574+296.172+558.912+294.273+558.12+293.366C557.821+293.023+557.507+292.692+557.2+292.356C557.173+292.326+556.623+291.666+556.717+291.76" stroke-linejoin="round" stroke="#2e2e2e"/>
<path opacity="1" stroke-linecap="round" stroke-linejoin="round" stroke-width="1.42252" stroke="#2e2e2e" fill="none" d="M562.13+300.837C560.611+300.837+559.627+300.335+558.337+299.609"/>
<path stroke-linecap="round" d="M562.969+302.68C563.421+301.773+565.776+300.783+566.619+299.94" stroke-linejoin="round" stroke="#2e2e2e" stroke-width="1.42252" opacity="1" fill="none"/>
<path stroke-linejoin="round" fill="none" opacity="1" d="M626.037+295.38C626.037+291.415+626.037+287.449+626.037+283.484" stroke-linecap="round" stroke="#2e2e2e" stroke-width="1.42252"/>
<path d="M626.802+286.585C628.036+286.237+630.76+283.455+631.614+283.455" stroke-width="1.42252" stroke-linecap="round" fill="none" stroke="#2e2e2e" stroke-linejoin="round" opacity="1"/>
<path stroke-width="1.42252" stroke-linejoin="round" stroke="#2e2e2e" fill="none" stroke-linecap="round" d="M626.479+291.752C626.479+290.969+628.427+288.404+629.387+288.404" opacity="1"/>
<path stroke="#2e2e2e" fill="none" opacity="1" stroke-width="1.42252" stroke-linecap="round" stroke-linejoin="round" d="M625.398+287.988C624.102+287.807+622.44+285.908+621.648+285.001C621.349+284.658+621.035+284.327+620.728+283.991C620.701+283.961+620.152+283.301+620.245+283.395"/>
<path fill="none" stroke="#2e2e2e" stroke-width="1.42252" stroke-linecap="round" opacity="1" stroke-linejoin="round" d="M625.658+292.473C624.139+292.473+623.155+291.97+621.865+291.244"/>
<path stroke-width="1.42252" stroke-linejoin="round" stroke="#2e2e2e" d="M626.498+294.316C626.95+293.408+629.304+292.418+630.147+291.575" fill="none" opacity="1" stroke-linecap="round"/>
<path stroke-linejoin="round" stroke-linecap="round" fill="none" stroke="#2e2e2e" opacity="1" stroke-width="1.42252" d="M602.071+284.526C602.071+280.56+602.071+276.595+602.071+272.63"/>
<path stroke-width="1.42252" stroke-linecap="round" stroke="#2e2e2e" stroke-linejoin="round" opacity="1" fill="none" d="M602.836+275.731C604.07+275.382+606.795+272.601+607.648+272.601"/>
<path stroke="#2e2e2e" stroke-linecap="round" opacity="1" stroke-linejoin="round" fill="none" d="M602.514+280.898C602.514+280.115+604.461+277.549+605.421+277.549" stroke-width="1.42252"/>
<path stroke="#2e2e2e" stroke-linecap="round" d="M601.432+277.134C600.136+276.953+598.475+275.054+597.683+274.146C597.383+273.803+597.07+273.473+596.763+273.136C596.735+273.107+596.186+272.447+596.28+272.541" opacity="1" stroke-width="1.42252" fill="none" stroke-linejoin="round"/>
<path stroke-linecap="round" opacity="1" d="M601.692+281.618C600.174+281.618+599.19+281.116+597.9+280.39" fill="none" stroke-width="1.42252" stroke="#2e2e2e" stroke-linejoin="round"/>
<path stroke-linejoin="round" d="M602.532+283.461C602.984+282.554+605.339+281.563+606.182+280.72" stroke-linecap="round" opacity="1" fill="none" stroke="#2e2e2e" stroke-width="1.42252"/>
<path opacity="1" stroke-linejoin="round" d="M540.301+292.929C540.301+288.964+540.301+284.999+540.301+281.033" stroke="#2e2e2e" fill="none" stroke-width="1.42252" stroke-linecap="round"/>
<path stroke="#2e2e2e" opacity="1" d="M541.066+284.134C542.3+283.786+545.024+281.005+545.877+281.005" stroke-linejoin="round" stroke-linecap="round" fill="none" stroke-width="1.42252"/>
<path fill="none" d="M540.743+289.301C540.743+288.518+542.691+285.953+543.65+285.953" stroke="#2e2e2e" stroke-linejoin="round" stroke-linecap="round" stroke-width="1.42252" opacity="1"/>
<path d="M539.661+285.538C538.365+285.357+536.704+283.457+535.912+282.55C535.612+282.207+535.299+281.876+534.992+281.54C534.965+281.51+534.415+280.851+534.509+280.944" stroke-linecap="round" stroke-linejoin="round" stroke="#2e2e2e" stroke-width="1.42252" fill="none" opacity="1"/>
<path stroke-linejoin="round" stroke-width="1.42252" fill="none" d="M539.922+290.022C538.403+290.022+537.419+289.52+536.129+288.793" stroke-linecap="round" opacity="1" stroke="#2e2e2e"/>
<path stroke="#2e2e2e" fill="none" stroke-linecap="round" stroke-width="1.42252" d="M540.761+291.865C541.213+290.958+543.568+289.967+544.411+289.124" opacity="1" stroke-linejoin="round"/>
<path stroke-width="1.42252" fill="none" opacity="1" stroke-linejoin="round" stroke="#2e2e2e" d="M649.561+281.28C649.561+277.314+649.561+273.349+649.561+269.384" stroke-linecap="round"/>
<path d="M650.326+272.485C651.56+272.137+654.284+269.355+655.138+269.355" opacity="1" stroke-linecap="round" stroke="#2e2e2e" stroke-width="1.42252" fill="none" stroke-linejoin="round"/>
<path fill="none" stroke="#2e2e2e" opacity="1" d="M650.004+277.652C650.004+276.869+651.951+274.303+652.911+274.303" stroke-linecap="round" stroke-width="1.42252" stroke-linejoin="round"/>
<path stroke-linecap="round" stroke="#2e2e2e" d="M648.922+273.888C647.626+273.707+645.964+271.808+645.173+270.9C644.873+270.557+644.559+270.227+644.252+269.89C644.225+269.861+643.676+269.201+643.769+269.295" stroke-width="1.42252" fill="none" opacity="1" stroke-linejoin="round"/>
<path fill="none" stroke-linejoin="round" stroke-linecap="round" stroke-width="1.42252" stroke="#2e2e2e" opacity="1" d="M649.182+278.372C647.663+278.372+646.679+277.87+645.389+277.144"/>
<path fill="none" stroke-width="1.42252" stroke="#2e2e2e" stroke-linecap="round" stroke-linejoin="round" d="M650.022+280.215C650.474+279.308+652.828+278.317+653.671+277.474" opacity="1"/>
<path stroke-linecap="round" opacity="1" stroke="#2e2e2e" d="M643.183+308.255C643.183+304.289+643.183+300.324+643.183+296.359" stroke-linejoin="round" stroke-width="1.42252" fill="none"/>
<path stroke-width="1.42252" opacity="1" d="M643.948+299.46C645.182+299.111+647.906+296.33+648.76+296.33" stroke="#2e2e2e" fill="none" stroke-linecap="round" stroke-linejoin="round"/>
<path stroke-width="1.42252" stroke-linejoin="round" stroke="#2e2e2e" fill="none" d="M643.626+304.627C643.626+303.844+645.573+301.278+646.533+301.278" stroke-linecap="round" opacity="1"/>
<path d="M642.544+300.863C641.248+300.682+639.586+298.782+638.795+297.875C638.495+297.532+638.181+297.202+637.874+296.865C637.847+296.836+637.298+296.176+637.391+296.27" stroke-linejoin="round" stroke="#2e2e2e" opacity="1" fill="none" stroke-linecap="round" stroke-width="1.42252"/>
<path stroke-width="1.42252" stroke-linecap="round" stroke="#2e2e2e" fill="none" opacity="1" stroke-linejoin="round" d="M642.804+305.347C641.285+305.347+640.301+304.845+639.011+304.119"/>
<path stroke-linejoin="round" stroke="#2e2e2e" d="M643.644+307.19C644.096+306.283+646.45+305.292+647.293+304.449" fill="none" opacity="1" stroke-width="1.42252" stroke-linecap="round"/>
<path opacity="1" fill="#5486b9" d="M276.972+406.576C264.554+406.576+250.896+404.731+238.611+406.637C233.851+407.376+227.384+412.035+223.475+414.857C220.246+417.186+217.032+419.488+213.455+421.269C210.203+422.889+207.068+424.336+203.985+426.238C201.593+427.714+199.17+429.114+196.712+430.466C194.852+431.489+193.081+432.706+191.095+433.483C186.811+435.159+167.633+438.662+178.832+445.865C183.702+448.998+190.184+448.777+195.646+449.852C215.806+453.821+234.741+449.45+255.076+448.357C267.117+447.71+279.481+447.339+291.45+448.95C305.557+450.848+319.211+454.9+333.507+455.164C346.718+455.408+359.789+454.593+372.932+454.593C379.074+454.593+385.273+454.729+391.375+454.068C392.344+453.963+393.465+454.843+394.061+454.759C410.842+452.409+428.332+450.864+445.294+452.308C461.246+453.666+476.395+457.383+492.546+455.285C495.773+454.866+501.894+455.047+504.749+452.744C505.857+451.85+500.321+445.939+499.969+445.555C498.527+443.977+496.235+443.606+494.985+442.139C494.266+441.295+493.134+439.224+492.197+438.728C491.79+438.512+490.574+438.939+490.07+438.806C486.428+437.846+481.68+436.155+479.016+433.421C467.69+421.796+453.627+412.957+439.441+404.404C433.918+401.074+426.384+402.823+420.37+399.632C420.113+399.496+419.438+397.533+418.997+397.087C414.605+392.642+407.88+390.26+402.188+387.997C400.393+387.283+398.895+386.874+396.933+386.297C396.01+386.025+393.144+385.703+394.107+385.703"/>
<path d="M395.5+387.961C395.536+384.332+401.694+385.614+403.758+386.51C404.516+386.839+405.228+387.314+405.948+387.72C406.782+388.19+407.652+388.582+408.483+389.057C409.381+389.57+410.277+390.084+411.171+390.605C412.539+391.403+413.921+392.232+415.244+393.101C416.796+394.119+418.442+395.245+419.862+396.438C421.662+397.95+423.355+399.276+425.622+400.03C426.538+400.334+427.512+400.592+428.45+400.815C429.964+401.175+435.299+401.972+434.865+404.471C434.7+405.418+432.009+407.352+431.233+407.842C429.073+409.207+426.352+408.834+423.912+408.834C420.736+408.834+417.669+408.771+414.517+408.325C407.378+407.317+401.276+402.056+395.949+397.5C394.551+396.304+391.123+394.758+391.559+392.334C391.754+391.253+393.196+389.822+394.032+389.185C394.554+388.787+395.493+388.638+395.5+387.961Z" fill="#5486b9" opacity="1"/>
<path fill="#5486b9" d="M169.787+441.094C174.083+438.769+178.731+437.124+182.397+433.731C193.896+423.089+202.069+409.091+216.588+401.729C222.413+398.775+229.727+398.23+236.11+397.457C247.571+396.068+259.235+395.003+270.507+392.415C279.352+390.385+288.315+388.376+295.94+383.276C298.643+381.468+299.427+376.736+302.33+375.734C306.817+374.187+311.174+374.375+315.94+373.799C320.789+373.214+326.608+369.769+331.627+368.432C340.095+366.176+349.291+365.871+358.012+366.118C370.875+366.483+377.734+378.913+388.393+383.571C392.426+385.333+396.668+384.691+400.573+384.691" stroke="#bfaa52" stroke-width="2.73" stroke-linejoin="round" stroke-linecap="round" opacity="1"/>
<path d="M398.026+384.858C402.316+384.858+406.756+385.205+411.026+384.858C416.006+384.453+422.636+382.779+427.582+384.16C446.008+389.304+461.673+414.535+475.204+427.227C478.645+430.455+482.259+434.264+486.515+436.433C490.113+438.267+496.069+439.159+498.467+442.308" opacity="1" stroke-linejoin="round" stroke="#bfaa52" stroke-width="2.72925" stroke-linecap="round" fill="#5486b9"/>
<path stroke-linejoin="round" stroke-linecap="round" d="M-8.77913-135.003L-8.77913-135.003C-6.41744-135.003-4.50292-133.089-4.50292-130.727L-4.50292-104.954C-4.50292-102.592-6.41744-100.677-8.77913-100.677L-8.77913-100.677C-11.1408-100.677-13.0553-102.592-13.0553-104.954L-13.0553-130.727C-13.0553-133.089-11.1408-135.003-8.77913-135.003Z" fill="#7fbc77" stroke="#bfaa52" opacity="1" stroke-width="2.72925"/>
</g>
</svg>
