<?xml version="1.0" encoding="UTF-8" standalone="no"?> <!-- Created with Vectornator for iOS (http://vectornator.io/) --><!DOCTYPE svg PUBLIC "-//W3C//DTD SVG 1.1//EN" "http://www.w3.org/Graphics/SVG/1.1/DTD/svg11.dtd">
<svg xmlns:vectornator="http://vectornator.io" xmlns:xlink="http://www.w3.org/1999/xlink" version="1.1" xmlns="http://www.w3.org/2000/svg" width="100%" style="fill-rule:nonzero;clip-rule:evenodd;stroke-linecap:round;stroke-linejoin:round;" viewBox="0 0 3370.82 2384.24" height="100%" xml:space="preserve">
<metadata>
<vectornator:setting key="VNDimensionsVisible" value="true"/>
<vectornator:setting key="WDSnapToEdges" value="false"/>
<vectornator:setting key="WDOutlineMode" value="false"/>
<vectornator:setting key="WDSnapToGrid" value="false"/>
<vectornator:setting key="VNSnapToGuides" value="true"/>
<vectornator:setting key="WDIsolateActiveLayer" value="false"/>
<vectornator:setting key="WDGuidesVisible" value="true"/>
<vectornator:setting key="UndoHistoryDisabled" value="true"/>
<vectornator:setting key="WDDynamicGuides" value="false"/>
<vectornator:setting value="false" key="WDDisplayWhiteBackground"/>
<vectornator:setting value="false" key="WDCMYKEnabledKey"/>
<vectornator:setting key="WDRulersVisible" value="true"/>
<vectornator:setting value="false" key="WDSnapToPoints"/>
<vectornator:setting value="false" key="IsTimeLapseWatermarkDisabled"/>
<vectornator:setting key="WDUnits" value="Millimeters"/>
</metadata>
<defs/>
<g id="Layer 1" vectornator:layerName="Layer 1">
<path d="M1336.48+645.822L1336.48+645.822C1488.45+645.822+1611.64+730.867+1611.64+835.776L1558.18+1358.62C1558.18+1463.53+1492.44+1483.78+1340.47+1483.78L1296.25+1480.64C1188.17+1480.64+1222.3+1437.05+1177.3+1374.47C1159.02+1349.05+1134.3+1358.13+1125.08+1347.94C1115.87+1337.75+1061.32+835.776+1061.32+835.776C1061.32+730.867+1184.52+645.822+1336.48+645.822Z" opacity="1" fill="#f6bf82"/>
<path opacity="1" fill="#854f14" d="M1946.67+22.1253L2081.94+22.1253C2089.87+22.1253+2096.29+26.9981+2096.29+33.009L2096.29+513.564C2096.29+519.575+2089.87+524.448+2081.94+524.448L1946.67+524.448C1938.75+524.448+1932.33+519.575+1932.33+513.564L1932.33+33.009C1932.33+26.9981+1938.75+22.1253+1946.67+22.1253Z"/>
<path fill="#854f14" opacity="1" d="M2124.88+22.3763L2250.65+22.3763C2258.02+22.3763+2263.99+27.2491+2263.99+33.26L2263.99+513.815C2263.99+519.826+2258.02+524.699+2250.65+524.699L2124.88+524.699C2117.51+524.699+2111.54+519.826+2111.54+513.815L2111.54+33.26C2111.54+27.2491+2117.51+22.3763+2124.88+22.3763Z"/>
<path d="M2095.5+142.331C1974.04+142.331+1875.6+195.088+1875.6+260.175L1875.6+580.425C1875.6+613.75+1901.51+643.77+1943+665.206C1954.09+681.05+1980.99+692.237+2012.47+692.237L2026.47+692.237C2048.21+696.09+2071.36+698.269+2095.5+698.269C2119.65+698.269+2142.83+696.09+2164.57+692.237L2171.1+692.237C2198.21+692.237+2221.88+683.939+2235.03+671.519C2284.12+649.905+2315.44+617.127+2315.44+580.425L2315.44+260.175C2315.44+195.088+2216.96+142.331+2095.5+142.331Z" opacity="1" fill="#f1c390"/>
<path fill="#000000" opacity="1" d="M1925.58+554.046L2077.91+497.671C2086.84+494.364+2096.77+498.927+2100.08+507.863L2100.08+507.863C2103.38+516.798+2098.82+526.723+2089.88+530.03L1937.56+586.406C1928.62+589.713+1918.7+585.15+1915.39+576.214L1915.39+576.214C1912.08+567.278+1916.65+557.353+1925.58+554.046Z"/>
<path fill="#361e02" d="M1981.04+47.117L2204.79+47.117C2261.94+47.117+2308.27+103.367+2308.27+172.756L2308.27+172.756C2308.27+242.144+2261.94+298.395+2204.79+298.395L1981.04+298.395C1923.89+298.395+1877.56+242.144+1877.56+172.756L1877.56+172.756C1877.56+103.367+1923.89+47.117+1981.04+47.117Z" opacity="1"/>
<path opacity="1" d="M2088.03+373.699L2088.03+373.699C2101.99+373.699+2113.3+385.015+2113.3+398.973L2113.3+451.857C2113.3+465.815+2101.99+477.13+2088.03+477.13L2088.03+477.13C2074.07+477.13+2062.75+465.815+2062.75+451.857L2062.75+398.973C2062.75+385.015+2074.07+373.699+2088.03+373.699Z" fill="#e6a258"/>
<path opacity="1" d="M1933.67+45.6438L2068.94+45.6438C2076.87+45.6438+2083.29+50.5166+2083.29+56.5275L2083.29+537.082C2083.29+543.093+2076.87+547.966+2068.94+547.966L1933.67+547.966C1925.75+547.966+1919.33+543.093+1919.33+537.082L1919.33+56.5275C1919.33+50.5166+1925.75+45.6438+1933.67+45.6438Z" fill="#bd8b53"/>
<path opacity="1" d="M2109.66+497.914L2264.24+547.777C2273.31+550.702+2278.29+560.425+2275.37+569.493L2275.37+569.493C2272.44+578.561+2262.72+583.541+2253.65+580.615L2099.07+530.752C2090+527.827+2085.02+518.105+2087.95+509.036L2087.95+509.036C2090.87+499.968+2100.59+494.989+2109.66+497.914Z" fill="#000000"/>
<path fill="#bd8b53" d="M2111.88+45.8948L2237.65+45.8948C2245.02+45.8948+2250.99+50.7676+2250.99+56.7785L2250.99+537.333C2250.99+543.344+2245.02+548.217+2237.65+548.217L2111.88+548.217C2104.51+548.217+2098.54+543.344+2098.54+537.333L2098.54+56.7785C2098.54+50.7676+2104.51+45.8948+2111.88+45.8948Z" opacity="1"/>
<path fill="#854f14" d="M2286.78+25.277L2348.83+25.277C2352.46+25.277+2355.41+29.949+2355.41+35.7123L2355.41+496.469C2355.41+502.233+2352.46+506.905+2348.83+506.905L2286.78+506.905C2283.14+506.905+2280.2+502.233+2280.2+496.469L2280.2+35.7123C2280.2+29.949+2283.14+25.277+2286.78+25.277Z" opacity="1"/>
<path opacity="1" fill="#854f14" d="M1856.95+22.257L1912.59+22.257C1915.85+22.257+1918.49+26.9823+1918.49+32.8113L1918.49+498.823C1918.49+504.652+1915.85+509.377+1912.59+509.377L1856.95+509.377C1853.69+509.377+1851.04+504.652+1851.04+498.823L1851.04+32.8113C1851.04+26.9823+1853.69+22.257+1856.95+22.257Z"/>
<path fill="#a1723d" d="M2325.86+31.1539L2362.26+31.1539C2364.4+31.1539+2366.12+35.8792+2366.12+41.7082L2366.12+507.72C2366.12+513.549+2364.4+518.274+2362.26+518.274L2325.86+518.274C2323.72+518.274+2321.99+513.549+2321.99+507.72L2321.99+41.7082C2321.99+35.8792+2323.72+31.1539+2325.86+31.1539Z" opacity="1"/>
<path fill="#bd8b53" d="M2273.78+48.7955L2335.83+48.7955C2339.46+48.7955+2342.41+53.4675+2342.41+59.2308L2342.41+519.988C2342.41+525.751+2339.46+530.423+2335.83+530.423L2273.78+530.423C2270.14+530.423+2267.2+525.751+2267.2+519.988L2267.2+59.2308C2267.2+53.4675+2270.14+48.7955+2273.78+48.7955Z" opacity="1"/>
<path d="M1820.13+27.3096L1856.53+27.3096C1858.67+27.3096+1860.4+32.0349+1860.4+37.8639L1860.4+503.875C1860.4+509.704+1858.67+514.43+1856.53+514.43L1820.13+514.43C1817.99+514.43+1816.27+509.704+1816.27+503.875L1816.27+37.8639C1816.27+32.0349+1817.99+27.3096+1820.13+27.3096Z" fill="#a1723d" opacity="1"/>
<path opacity="1" d="M1843.95+45.7755L1899.59+45.7755C1902.85+45.7755+1905.49+50.5009+1905.49+56.3298L1905.49+522.341C1905.49+528.17+1902.85+532.896+1899.59+532.896L1843.95+532.896C1840.69+532.896+1838.04+528.17+1838.04+522.341L1838.04+56.3298C1838.04+50.5009+1840.69+45.7755+1843.95+45.7755Z" fill="#bd8b53"/>
<g opacity="1">
<g opacity="1">
<path fill="#b0a395" d="M417.98+2218.5C414.683+2218.72+334.648+2224.22+331.556+2222.86C326.106+2220.47+300.769+2205.27+296.546+2200.59C288.057+2191.18+391.664+2185.71+384.538+2174.87C368.853+2151.02+353.586+2126.74+339.551+2101.53C325.159+2075.68+311.362+2049.28+299.341+2021.83C283.278+1985.14+268+1947.86+255.413+1909.37C241.711+1867.47+231.78+1824.02+220.621+1781.11C194.475+1680.57+170.291+1579.21+150.515+1476.71C140.881+1426.78+131.75+1376.7+123.729+1326.38C116.759+1282.65+110.219+1238.79+105.553+1194.65C101.151+1153+98.3375+1111.11+96.5466+1069.2C95.3328+1040.79+96.5466+1012.31+96.5466+983.871C96.5466+915.918+95.7174+848.467+99.2163+780.684" opacity="1"/>
<path opacity="1" fill="#828280" d="M99.2188+780.688C98.0958+803.243+97.3532+825.795+96.9375+848.375C96.2104+887.872+96.3899+927.405+96.4062+966.906C96.4106+977.307+96.3972+987.694+96.25+998.094C95.9815+1017.06+95.4486+1036.03+95.7188+1055C95.9605+1071.97+96.8685+1088.96+97.7812+1105.91C99.0033+1128.6+100.441+1151.26+102.344+1173.91C104.362+1197.93+106.796+1221.92+109.469+1245.88C110.75+1257.36+111.905+1268.86+113.406+1280.31C114.127+1285.81+114.992+1291.29+115.781+1296.78C118.135+1313.15+120.695+1329.5+123.188+1345.84C127.35+1373.15+131.436+1400.44+135.344+1427.78C136.17+1433.56+137.058+1439.34+137.844+1445.12C140.814+1467.01+143.676+1488.92+146.344+1510.84C148.723+1530.4+150.791+1549.97+153.125+1569.53C157.405+1605.4+161.882+1641.28+167.281+1677C168.015+1681.86+168.878+1686.69+169.688+1691.53C170.765+1697.98+171.788+1704.47+172.938+1710.91C174.468+1719.48+176.162+1728+177.781+1736.56C179.2+1744.06+180.761+1751.53+182.312+1759C187.032+1781.73+192.22+1804.38+197.469+1827C201.927+1846.21+206.58+1865.39+211.938+1884.38C213.49+1889.88+215.106+1895.37+216.75+1900.84C217.431+1903.11+218.056+1905.38+218.812+1907.62C220.615+1912.97+222.685+1918.23+224.688+1923.5C232.701+1944.59+241.954+1965.17+251.5+1985.59C255.666+1994.51+260.008+2003.34+264.375+2012.16C270.071+2023.66+275.844+2035.11+281.938+2046.41C287.71+2057.11+293.826+2067.63+300.062+2078.06C314.72+2102.59+330.356+2126.57+346.969+2149.81C351.896+2156.71+356.866+2163.53+361.906+2170.34C361.386+2170.5+360.864+2170.66+360.344+2170.81C356.832+2171.84+353.236+2172.64+349.688+2173.53C338.67+2176.3+327.571+2178.66+316.562+2181.47C310.109+2183.11+303.509+2184.77+297.375+2187.41C293.169+2189.22+288.746+2191.9+287.5+2196.66C287.299+2197.43+287.157+2198.21+287.125+2199C287.094+2199.78+287.168+2200.58+287.312+2201.34C287.448+2202.07+287.684+2202.79+287.969+2203.47C289.424+2206.93+292.837+2209.06+295.875+2211C300.97+2214.25+306.337+2217.14+311.688+2219.94C315.858+2222.12+320.046+2224.23+324.312+2226.22C326.289+2227.14+328.687+2228.47+330.844+2228.81C332.344+2229.05+333.932+2228.88+335.438+2228.78C337.433+2228.65+339.417+2228.45+341.406+2228.25C347.505+2227.64+353.604+2226.9+359.688+2226.16C379.143+2223.77+398.549+2221.16+417.969+2218.5C398.802+2218.46+379.633+2218.4+360.469+2218.09C354.287+2217.99+348.116+2217.91+341.938+2217.69C339.582+2217.6+337.225+2217.5+334.875+2217.31C334.462+2217.28+334.037+2217.23+333.625+2217.19C333.554+2217.15+333.477+2217.1+333.406+2217.06C333.14+2216.9+332.856+2216.72+332.594+2216.56C332.061+2216.23+331.527+2215.9+331+2215.56C329.34+2214.5+327.724+2213.42+326.094+2212.31C321.805+2209.4+317.582+2206.34+313.438+2203.22C328.386+2201.15+343.475+2200.24+358.469+2198.56C364.316+2197.91+370.18+2197.2+375.969+2196.12C384.072+2194.62+393.52+2192.14+397.906+2184.44C398.378+2183.61+398.799+2182.74+399.125+2181.84C399.505+2180.8+399.818+2179.72+400+2178.62C400.185+2177.51+400.256+2176.38+400.219+2175.25C400.181+2174.13+400.035+2173+399.781+2171.91C399.536+2170.85+399.17+2169.81+398.75+2168.81C397.95+2166.91+396.702+2165.11+395.688+2163.31C391.625+2156.11+387.6+2148.86+383.656+2141.59C368.594+2113.82+354.669+2085.45+342.156+2056.44C337.606+2045.88+333.131+2035.27+329.031+2024.53C325.548+2015.41+322.254+2006.25+318.938+1997.06C311.812+1977.33+305.066+1957.43+298.812+1937.41C294.94+1925+291.319+1912.52+287.844+1900C286.687+1895.83+285.645+1891.64+284.5+1887.47C283.206+1882.76+281.648+1878.1+280.281+1873.41C277.774+1864.79+275.401+1856.14+273+1847.5C267.961+1829.37+263.201+1811.16+258.156+1793.03C253.683+1776.95+248.824+1760.97+244+1745C237.91+1724.83+231.605+1704.75+225.094+1684.72C222.917+1678.02+220.805+1671.27+218.562+1664.59C206.466+1628.59+194.178+1592.68+182.625+1556.5C177.335+1539.93+172.117+1523.32+167.344+1506.59C158.254+1474.74+150.4+1442.51+143.312+1410.16C138.551+1388.42+134.294+1366.54+130.406+1344.62C126.557+1322.93+123.135+1301.17+119.688+1279.41C118.099+1269.38+116.228+1259.4+114.594+1249.38C112.811+1238.44+111.253+1227.47+109.719+1216.5C105.797+1188.45+103.056+1160.2+100.844+1131.97C99.6493+1116.73+98.6875+1101.46+97.875+1086.19C97.3216+1075.79+96.7566+1065.38+96.5312+1054.97C96.1722+1038.38+96.4381+1021.81+96.5938+1005.22C96.7169+992.093+96.6929+978.97+96.6562+965.844C96.4841+904.112+96.224+842.364+99.2188+780.688ZM375.031+2165.56C375.046+2165.56+375.068+2165.58+375.062+2165.59C375.026+2165.68+374.771+2165.83+374.75+2165.84C374.559+2165.96+374.333+2166.08+374.125+2166.19C374.449+2165.93+374.729+2165.6+375.031+2165.56ZM303.188+2194.78C303.194+2194.79+303.213+2194.77+303.219+2194.78C303.367+2194.95+303.497+2195.13+303.625+2195.31C303.501+2195.19+303.305+2194.93+303.188+2194.78Z"/>
</g>
<path fill="#443802" stroke-linecap="round" opacity="1" stroke-linejoin="round" d="M274.37+1881.7L274.37+1881.7C299.315+1876.34+323.285+1895.46+327.909+1924.42L375.527+2222.64C380.151+2251.6+372.651+2244.53+347.706+2249.9L347.908+2249.34C322.964+2254.7+289.819+2271.04+285.195+2242.08L237.577+1943.86C232.953+1914.9+249.426+1887.07+274.37+1881.7Z" stroke="#443802" stroke-width="72.2275"/>
<path stroke-linecap="round" d="M211.365+1911.18L366.182+1911.18L366.182+1911.96L211.365+1911.96L211.365+1911.18Z" fill="none" stroke-linejoin="round" stroke="#342a01" stroke-width="21.8177" opacity="1"/>
<path stroke-width="90.5299" fill="none" stroke-linecap="round" stroke="#3e3d3b" d="M33.7601+1911.46C523.565+1845.24+527.086+1843.59+527.086+1843.59" stroke-linejoin="round" opacity="1"/>
<path stroke-linejoin="round" stroke-linecap="round" fill="none" stroke="#342a01" d="M245.743+2191.97L400.56+2191.97L400.56+2192.75L245.743+2192.75L245.743+2191.97Z" opacity="1" stroke-width="21.8177"/>
<path stroke="#342a01" d="M250.96+2219.81L405.777+2219.81L405.777+2220.59L250.96+2220.59L250.96+2219.81Z" fill="none" stroke-linecap="round" opacity="1" stroke-width="21.8177" stroke-linejoin="round"/>
<g opacity="1">
<path fill="#b0a395" d="M312.719+2200.7L312.719+2200.7C362.866+2189.28+407.837+2199+413.163+2222.4L413.731+2224.89C419.058+2248.29+382.723+2276.52+332.575+2287.93L332.575+2287.93C282.428+2299.35+237.457+2289.63+232.131+2266.23L231.563+2263.74C226.236+2240.34+262.571+2212.11+312.719+2200.7Z" opacity="1"/>
<path opacity="1" fill="#828280" d="M381.969+2181.69C370.134+2181.74+312.719+2200.69+312.719+2200.69C312.719+2200.69+335.337+2202.24+346.375+2204.69C352.771+2206.11+359.036+2207.97+365.156+2210.31C370.365+2212.3+375.463+2214.64+380.125+2217.72C382.079+2219.01+383.979+2220.43+385.625+2222.09C387.393+2223.89+388.733+2225.38+389.375+2227.84C389.444+2228.11+389.655+2228.35+389.656+2228.62C389.657+2228.71+389.474+2228.64+389.406+2228.69C389.283+2228.78+389.241+2229.12+389.125+2229.25C388.718+2229.71+388.118+2229.63+387.594+2229.47C387.266+2229.37+386.922+2229.16+386.656+2228.94C386.533+2228.84+386.252+2228.54+386.219+2228.72C386.08+2229.47+386.328+2230.25+386.188+2231C386.176+2231.06+386.046+2230.98+386+2230.94C385.91+2230.86+385.854+2230.75+385.781+2230.66C385.574+2230.39+385.4+2230.16+385.219+2229.88C384.696+2229.06+384.253+2227.98+383.469+2227.38C383.257+2227.21+382.424+2227.14+382.406+2227.12C382.344+2227.06+382.431+2226.83+382.344+2226.84C382.084+2226.9+381.895+2227.16+381.656+2227.28C381.498+2227.36+381.32+2227.37+381.156+2227.44C380.402+2227.75+379.729+2228.24+379+2228.59C378.915+2228.63+378.805+2228.59+378.719+2228.62C378.234+2228.83+377.977+2229.23+377.625+2229.59C377.25+2229.98+376.862+2230.35+376.469+2230.72C374.95+2232.14+373.416+2233.58+371.812+2234.91C366.218+2239.54+360.412+2243.94+354.562+2248.25C351.165+2250.75+347.862+2253.39+344.5+2255.94C343.402+2256.77+342.268+2257.58+341.188+2258.44C339.683+2259.63+338.216+2260.84+336.688+2262C334.69+2263.52+332.695+2265.07+330.656+2266.53C329.779+2267.16+328.83+2267.69+327.969+2268.34C327.89+2268.4+328.33+2268.22+328.25+2268.28C327.373+2268.92+326.435+2269.46+325.531+2270.06C323.387+2271.49+321.207+2272.86+319+2274.19C314.312+2277.01+309.437+2279.76+304.312+2281.72C299.139+2283.7+293.756+2285.27+288.281+2286.16C285.746+2286.57+283.154+2286.76+280.594+2286.94C271.122+2287.6+261.36+2286.11+252.562+2282.53C250.364+2281.64+248.25+2280.58+246.156+2279.47C243.843+2278.24+241.571+2276.93+239.594+2275.19C237.507+2273.35+235.658+2271.04+234.5+2268.5C233.937+2267.27+233.58+2265.99+233.219+2264.69C232.525+2262.18+232.069+2259.77+232.219+2257.16C232.364+2254.62+232.949+2252.12+233.844+2249.75C235.195+2246.17+237.197+2242.89+239.531+2239.88C245.205+2232.54+252.658+2226.63+260.406+2221.62C265.654+2218.24+312.719+2200.69+312.719+2200.69C312.719+2200.69+285.646+2208.21+273+2214.34C269.392+2216.09+265.899+2218.01+262.438+2220.03C252.088+2226.08+241.927+2233.59+235.281+2243.75C231.79+2249.09+229.472+2255.23+229.938+2261.69C230.15+2264.63+230.77+2267.65+231.75+2270.44C232.868+2273.62+234.657+2276.42+236.812+2279C239.45+2282.15+242.58+2284.79+246.156+2286.81C253.395+2290.9+261.485+2293.18+269.5+2295.19C278.492+2297.44+287.601+2299.21+296.719+2300.88C305.374+2302.45+313.968+2304.31+322.656+2305.72C326.827+2306.39+331.023+2306.89+335.219+2307.38C335.782+2307.44+336.341+2307.55+336.906+2307.59C337.005+2307.6+337.089+2307.52+337.188+2307.53C338.374+2307.61+339.565+2307.79+340.75+2307.88C346.237+2308.29+351.747+2308.5+357.25+2308.31C359.625+2308.23+362.014+2307.98+364.375+2307.72C373.989+2306.66+383.544+2304.28+392.469+2300.53C403.295+2295.98+413.535+2289.89+422.25+2281.97C424.191+2280.21+426.072+2278.37+427.875+2276.47C428.229+2276.1+428.609+2275.74+428.938+2275.34C430.267+2273.74+431.424+2271.87+432.531+2270.12C433.632+2268.39+434.772+2266.5+435.75+2264.69C440.473+2255.96+443.429+2246.01+443.719+2236.06C443.856+2231.36+443.386+2226.63+442.25+2222.06C442.032+2221.19+441.61+2219.69+441.281+2218.81C440.933+2217.89+440.462+2217.01+440.094+2216.09C439.251+2213.99+438.521+2211.87+437.5+2209.84C435.286+2205.44+432.298+2201.44+428.812+2197.97C425.614+2194.78+421.999+2192.09+418.062+2189.88C407.135+2183.73+394.372+2181.63+381.969+2181.69Z"/>
</g>
<path fill="none" stroke-linejoin="round" opacity="1" stroke-linecap="round" stroke-width="21.8177" stroke="#342a01" d="M210.365+1943.18L365.182+1943.18L365.182+1943.96L210.365+1943.96L210.365+1943.18Z"/>
<path fill="none" stroke="#342a01" d="M213.582+1971.01L368.4+1971.01L368.4+1971.79L213.582+1971.79L213.582+1971.01Z" opacity="1" stroke-linecap="round" stroke-linejoin="round" stroke-width="21.8177"/>
<path fill="none" stroke="#342a01" d="M215.692+1998.53L370.509+1998.53L370.509+1999.3L215.692+1999.3L215.692+1998.53Z" opacity="1" stroke-linejoin="round" stroke-linecap="round" stroke-width="21.8177"/>
<path stroke-linejoin="round" stroke-width="21.8177" fill="none" stroke="#342a01" stroke-linecap="round" d="M218.909+2026.36L373.726+2026.36L373.726+2027.14L218.909+2027.14L218.909+2026.36Z" opacity="1"/>
<path d="M223.416+2054.63L378.233+2054.63L378.233+2055.41L223.416+2055.41L223.416+2054.63Z" stroke="#342a01" stroke-linecap="round" stroke-width="21.8177" stroke-linejoin="round" opacity="1" fill="none"/>
<path stroke="#342a01" opacity="1" stroke-width="21.8177" stroke-linecap="round" d="M228.633+2082.46L383.451+2082.46L383.451+2083.24L228.633+2083.24L228.633+2082.46Z" stroke-linejoin="round" fill="none"/>
<path fill="none" opacity="1" d="M233.743+2109.97L388.56+2109.97L388.56+2110.75L233.743+2110.75L233.743+2109.97Z" stroke-linecap="round" stroke-width="21.8177" stroke-linejoin="round" stroke="#342a01"/>
<path stroke="#342a01" fill="none" stroke-linejoin="round" stroke-linecap="round" opacity="1" stroke-width="21.8177" d="M240.633+2164.46L395.451+2164.46L395.451+2165.24L240.633+2165.24L240.633+2164.46Z"/>
<path stroke="#342a01" stroke-linejoin="round" opacity="1" d="M238.96+2137.81L393.777+2137.81L393.777+2138.59L238.96+2138.59L238.96+2137.81Z" fill="none" stroke-linecap="round" stroke-width="21.8177"/>
</g>
<g opacity="1">
<path d="M4021.65+1190.81L4021.65+1190.81C4041.27+1190.81+4057.17+1206.72+4057.17+1226.33L4057.17+1227.07C4057.17+1246.68+4041.27+1262.59+4021.65+1262.59L4021.65+1262.59C4002.04+1262.59+3986.13+1246.68+3986.13+1227.07L3986.13+1226.33C3986.13+1206.72+4002.04+1190.81+4021.65+1190.81Z" opacity="1" fill="#abaaaa"/>
<path fill="none" opacity="1" d=""/>
</g>
<g opacity="1">
<path opacity="1" fill="#abaaaa" d="M4021.65+1190.81L4021.65+1190.81C4041.27+1190.81+4057.17+1206.72+4057.17+1226.33L4057.17+1227.07C4057.17+1246.68+4041.27+1262.59+4021.65+1262.59L4021.65+1262.59C4002.04+1262.59+3986.13+1246.68+3986.13+1227.07L3986.13+1226.33C3986.13+1206.72+4002.04+1190.81+4021.65+1190.81Z"/>
<path d="" opacity="1" fill="none"/>
</g>
<g opacity="1">
<path d="M1101.9+650.523L1574.86+650.523C1607.33+650.523+1633.64+694.943+1633.64+749.739L1559.59+1397.24C1559.59+1452.03+1400.58+1512.5+1368.12+1512.5L1276.7+1534.64C1244.24+1534.64+1116.78+1456.8+1116.78+1402.01L1043.12+749.739C1043.12+694.943+1069.43+650.523+1101.9+650.523Z" opacity="1" fill="#dfcfbd"/>
<path fill="none" opacity="1" d=""/>
</g>
<g opacity="1">
<path opacity="1" fill="#dfcfbd" d="M1525.19+732.689L1629.47+637.986C1636.63+631.486+1659.17+644.653+1679.83+667.395L1957.99+973.673C1978.65+996.415+1989.59+1020.12+1982.43+1026.62L1878.16+1121.32C1871+1127.82+1848.45+1114.66+1827.8+1091.92L1549.63+785.638C1528.98+762.896+1518.04+739.19+1525.19+732.689Z"/>
<path opacity="1" fill="none" d="M1689.47+817.781C1686.03+817.741+1682.6+818.437+1679.59+820.188C1677.61+821.345+1676+822.965+1674.31+824.5C1672.68+825.98+1671.04+827.458+1669.41+828.938C1664.79+833.131+1660.18+837.307+1655.56+841.5C1636.83+858.519+1618.11+875.544+1599.38+892.562C1593.4+897.989+1587.41+903.417+1581.44+908.844C1579.54+910.57+1577.65+912.305+1575.75+914.031C1575.59+914.175+1575.17+914.555+1575.09+914.625C1573.85+915.188+1572.67+915.915+1571.66+916.938C1570.8+917.827+1571.15+917.459+1570.78+917.812C1569.91+918.64+1569.29+919.708+1568.69+920.75C1567.34+923.088+1566.56+925.703+1566.25+928.375C1565.31+936.419+1568.34+944.601+1571.78+951.719C1576.67+961.837+1583.26+971.171+1590.44+979.781C1593.93+983.974+1597.67+987.96+1601.34+992C1609.75+1001.25+1618.16+1010.5+1626.56+1019.75C1700.86+1101.52+1775.14+1183.29+1849.47+1265.03C1856.21+1272.45+1862.95+1279.87+1869.69+1287.28C1872.92+1290.84+1876.14+1294.42+1879.53+1297.84C1887.41+1305.8+1896.03+1313.24+1905.62+1319.06C1914.64+1324.54+1927.41+1330.23+1937.56+1324.31C1939.58+1323.14+1941.23+1321.53+1942.94+1319.97C1944.57+1318.49+1946.18+1316.98+1947.81+1315.5C1954.05+1309.82+1960.29+1304.15+1966.53+1298.47C1985.8+1280.94+2005.08+1263.43+2024.34+1245.91C2029.23+1241.46+2034.08+1237.01+2038.97+1232.56C2040.33+1231.33+2041.71+1230.11+2043.06+1228.88C2044.5+1227.56+2045.92+1226.28+2047.06+1224.69C2049.24+1221.66+2050.33+1217.98+2050.53+1214.28C2050.81+1209.2+2049.55+1204.11+2047.81+1199.38C2045.04+1191.82+2040.96+1184.77+2036.47+1178.12C2032.93+1172.89+2029.07+1167.87+2024.97+1163.06C2020.36+1157.66+2015.47+1152.47+2010.69+1147.22C2000.41+1135.92+1990.12+1124.65+1979.84+1113.34C1913.84+1040.79+1847.88+968.208+1781.91+895.625C1772+884.728+1762.09+873.834+1752.19+862.938C1743.8+853.71+1735.55+844.375+1726+836.312C1719.79+831.074+1713.14+826.211+1705.88+822.531C1701.79+820.463+1697.46+818.738+1692.91+818.062C1691.78+817.895+1690.61+817.795+1689.47+817.781ZM1689.97+839.938C1692.06+840.33+1694.05+841.165+1695.94+842.125C1703.08+845.749+1709.5+850.896+1715.41+856.25C1720.43+860.804+1725.04+865.732+1729.59+870.75C1733.07+874.577+1736.53+878.423+1740+882.25C1752.23+895.729+1764.49+909.208+1776.72+922.688C1835.2+987.122+1893.64+1051.57+1952.09+1116.03C1965.78+1131.12+1979.47+1146.19+1993.16+1161.28C2004.96+1174.29+2017.62+1187.21+2025.06+1203.38C2026.07+1205.57+2027.01+1207.83+2027.59+1210.19C2027.75+1210.82+2027.86+1211.47+2027.94+1212.12C2027.11+1212.88+2026.26+1213.63+2025.44+1214.38C2022.72+1216.84+2020+1219.32+2017.28+1221.78C2006.68+1231.39+1996.07+1240.98+1985.47+1250.59C1971.88+1262.91+1958.31+1275.24+1944.72+1287.56C1940.37+1291.5+1936.04+1295.43+1931.69+1299.38C1930.33+1300.61+1928.95+1301.86+1927.59+1303.09C1927.32+1303.34+1927.06+1303.6+1926.78+1303.84C1926.57+1303.8+1926.38+1303.75+1926.16+1303.69C1925.29+1303.44+1924.42+1303.13+1923.59+1302.78C1921.11+1301.73+1918.77+1300.38+1916.5+1298.94C1907.45+1293.21+1899.39+1285.81+1892.12+1277.97C1882.82+1267.92+1873.73+1257.68+1864.53+1247.53C1846.74+1227.92+1828.92+1208.3+1811.12+1188.69C1759.68+1131.98+1708.22+1075.28+1656.75+1018.59C1645.86+1006.6+1634.95+994.622+1624.06+982.625C1616.52+974.312+1608.71+966.162+1602.09+957.062C1598.13+951.602+1594.44+945.85+1591.72+939.656C1590.9+937.789+1590.15+935.857+1589.66+933.875C1589.49+933.192+1589.35+932.482+1589.28+931.781C1589.27+931.668+1589.26+931.577+1589.25+931.469C1589.29+931.406+1589.33+931.344+1589.38+931.281C1589.48+931.192+1589.59+931.093+1589.69+931C1590.23+930.507+1590.77+930.024+1591.31+929.531C1593.21+927.805+1595.1+926.07+1597+924.344C1604.06+917.932+1611.13+911.537+1618.19+905.125C1634.48+890.329+1650.77+875.515+1667.06+860.719C1672.49+855.787+1677.94+850.87+1683.38+845.938C1685.28+844.211+1687.16+842.476+1689.06+840.75C1689.36+840.48+1689.66+840.205+1689.97+839.938Z"/>
</g>
<g opacity="1">
<path d="M1579.49+16.5056L1675.21+119.853C1681.78+126.947+1668.83+149.62+1646.29+170.495L1342.74+451.629C1320.2+472.505+1296.6+483.677+1290.03+476.583L1194.31+373.236C1187.74+366.142+1200.69+343.469+1223.23+322.593L1526.79+41.4597C1549.33+20.5843+1572.92+9.41195+1579.49+16.5056Z" fill="#dfcfbd" opacity="1"/>
<path fill="none" d="" opacity="1"/>
</g>
<g opacity="1">
<path fill="#ba8851" d="M1082.7+645.197L1231.18+645.197C1252.93+645.197+1270.56+673.796+1270.56+709.075L1270.56+1296.47C1270.56+1331.75+1252.93+1360.35+1231.18+1360.35L1110.08+1361.04C1088.33+1361.04+1087.44+1332.26+1087.44+1296.98L1043.31+709.075C1043.31+673.796+1060.95+645.197+1082.7+645.197Z" opacity="1"/>
<path d="" fill="none" opacity="1"/>
</g>
<g opacity="1">
<path fill="#ba8851" d="M1442.42+646.829L1590.9+646.829C1612.65+646.829+1630.29+674.945+1630.29+709.627L1581.47+1310.06C1581.47+1344.75+1496.43+1341.15+1474.68+1341.15L1442.42+1349.89C1420.67+1349.89+1403.04+1321.77+1403.04+1287.09L1403.04+709.627C1403.04+674.945+1420.67+646.829+1442.42+646.829Z" opacity="1"/>
<path d="" opacity="1" fill="none"/>
</g>
<path opacity="1" fill="#f1c390" d="M1934.12+1003.91L1934.12+1003.91C1972.4+1003.91+2003.43+1036.15+2003.43+1075.93L2003.43+1114.12C2003.43+1153.9+1972.4+1186.14+1934.12+1186.14L1934.12+1186.14C1895.85+1186.14+1864.82+1153.9+1864.82+1114.12L1864.82+1075.93C1864.82+1036.15+1895.85+1003.91+1934.12+1003.91Z"/>
<g opacity="1">
<path opacity="1" fill="#c8b7a3" d="M1339.22+642.311L1339.22+642.311C1352.98+642.311+1364.14+653.468+1364.14+667.23L1364.14+810.929C1364.14+824.691+1352.98+835.848+1339.22+835.848L1339.22+835.848C1325.46+835.848+1314.3+824.691+1314.3+810.929L1314.3+667.23C1314.3+653.468+1325.46+642.311+1339.22+642.311Z"/>
<path d="" opacity="1" fill="none"/>
</g>
<g opacity="1">
<path d="M1800.32+1120.62L1853.61+1160.45C1857.27+1163.19+1868.8+1157.65+1879.36+1148.08L2021.54+1019.26C2032.09+1009.69+2037.69+999.719+2034.03+996.985L1980.73+957.151C1977.07+954.417+1965.55+959.955+1954.99+969.521L1812.81+1098.35C1802.25+1107.91+1796.66+1117.88+1800.32+1120.62Z" opacity="1" fill="#d5c2ad"/>
<path fill="none" d="" opacity="1"/>
</g>
<g opacity="1">
<path fill="#f1c390" opacity="1" d="M999.061+1963.26L999.061+1963.26C1040.46+1965.75+1071.19+1991.67+1067.69+2021.16L1024.69+2206.21C1021.19+2235.7+1009.74+2224.6+968.335+2222.11L968.335+2222.11C926.934+2219.62+941.91+2209.62+945.41+2180.13C945.41+2180.13+936.173+2120.75+932.689+2102.84C921.2+2043.78+917.76+2012.13+917.76+2012.13C921.26+1982.64+957.66+1960.76+999.061+1963.26Z"/>
<path opacity="1" fill="none" d=""/>
</g>
<g opacity="1">
<g opacity="1">
<path d="M1848.88+1501.11L1955.21+1501.11L1955.21+2212.31L1848.88+2212.31L1848.88+1501.11Z" fill="#703d04" opacity="1"/>
<path d="M1848.88+1489.53C1842.48+1489.53+1837.28+1494.7+1837.28+1501.09C1837.33+1798.83+1837.33+1699.6+1837.34+1798.84C1837.35+1863.82+1837.37+1928.81+1837.41+1993.78C1837.43+2048.03+1837.46+2102.26+1837.5+2156.5C1837.51+2167.92+1837.49+2179.33+1837.5+2190.75C1837.5+2193.55+1837.5+2196.36+1837.5+2199.16C1837.5+2202.48+1837.53+2205.8+1837.53+2209.12C1837.53+2209.95+1837.53+2210.77+1837.53+2211.59C1837.53+2211.71+1837.45+2212.21+1837.53+2212.31C1840.39+2215.98+1842.94+2219.9+1846.09+2223.31C1846.53+2223.78+1847.37+2223.53+1848+2223.62C1848.82+2223.75+1849.7+2223.66+1850.53+2223.66C1853.3+2223.65+1856.07+2223.66+1858.84+2223.66C1870.47+2223.65+1882.12+2223.63+1893.75+2223.62C1910.36+2223.61+1926.98+2223.6+1943.59+2223.59C1946.36+2223.59+1949.11+2223.6+1951.88+2223.59C1953.67+2223.59+1955.53+2223.67+1957.28+2223.25C1960.33+2222.52+1963.01+2220.66+1964.69+2218C1967.04+2214.26+1966.5+2209.58+1966.5+2205.38C1966.5+2203.99+1966.5+2202.58+1966.5+2201.19C1966.49+2191+1966.48+2180.81+1966.47+2170.62C1966.44+2131.27+1966.43+2091.92+1966.41+2052.56C1966.32+1916.9+1966.26+1781.23+1966.22+1645.56C1966.21+1609.45+1966.19+1573.33+1966.19+1537.22C1966.19+1527.96+1966.19+1518.7+1966.19+1509.44C1966.19+1507.59+1966.19+1505.73+1966.19+1503.88C1966.19+1502.32+1966.25+1500.74+1965.91+1499.22C1965.61+1497.93+1965.11+1496.71+1964.41+1495.59C1963.88+1494.76+1963.31+1494.02+1962.59+1493.34C1961.1+1491.92+1959.22+1490.95+1957.22+1490.47C1955.07+1489.96+1952.39+1490.12+1950.22+1490.12C1949.11+1490.13+1948.01+1490.13+1946.91+1490.12C1944.69+1490.13+1942.46+1490.12+1940.25+1490.12C1938.03+1490.13+1935.84+1490.12+1933.62+1490.12C1906.36+1490.13+1926.25+1490.12+1851.81+1490.12C1850.85+1489.87+1849.92+1489.53+1848.88+1489.53ZM1860.47+1512.06C1897.57+1512.07+1900.36+1512.09+1920.31+1512.09C1928.07+1512.09+1935.84+1512.09+1943.59+1512.09C1943.81+1512.09+1944.03+1512.09+1944.25+1512.09C1944.25+1513.52+1944.25+1514.95+1944.25+1516.38C1944.25+1525.64+1944.22+1534.9+1944.22+1544.16C1944.22+1572.4+1944.23+1600.66+1944.22+1628.91C1944.18+1755.31+1944.15+1881.72+1944.06+2008.12C1944.03+2053.5+1944+2098.87+1943.97+2144.25C1943.96+2159.53+1943.95+2174.81+1943.94+2190.09C1943.94+2193.73+1943.94+2197.36+1943.94+2201C1943.26+2201+1942.58+2201+1941.91+2201C1934.71+2201+1927.51+2201+1920.31+2201C1904.25+2200.99+1888.19+2200.98+1872.12+2200.97C1868.16+2200.97+1864.21+2200.93+1860.25+2200.94C1860.25+2196.1+1860.25+2191.27+1860.25+2186.44C1860.26+2169.69+1860.27+2152.93+1860.28+2136.19C1860.31+2085.68+1860.32+2035.17+1860.34+1984.66C1860.37+1921.37+1860.4+1858.1+1860.41+1794.81C1860.42+1700.57+1860.43+1767.43+1860.47+1512.06Z" fill="#a19f99" opacity="1"/>
</g>
<g opacity="1">
<path fill="#703d04" opacity="1" d="M1987.39+1493.98L2093.72+1493.98L2093.72+2213.81L1987.39+2213.81L1987.39+1493.98Z"/>
<path d="M1987.38+1482.41C1980.98+1482.41+1975.81+1487.57+1975.81+1493.97C1975.86+1795.32+1975.83+1694.89+1975.84+1795.34C1975.85+1861.11+1975.87+1926.86+1975.91+1992.62C1975.93+2047.53+1975.96+2102.44+1976+2157.34C1976.01+2168.9+1976.02+2180.44+1976.03+2192C1976.03+2194.83+1976.03+2197.67+1976.03+2200.5C1976.03+2203.87+1976.03+2207.22+1976.03+2210.59C1976.03+2211.43+1976.03+2212.26+1976.03+2213.09C1976.03+2213.21+1975.95+2213.71+1976.03+2213.81C1978.88+2217.48+1981.41+2221.4+1984.56+2224.81C1985+2225.29+1985.86+2225.03+1986.5+2225.12C1987.33+2225.25+1988.23+2225.16+1989.06+2225.16C1991.83+2225.15+1994.57+2225.16+1997.34+2225.16C2008.97+2225.15+2020.62+2225.13+2032.25+2225.12C2048.86+2225.11+2065.48+2225.11+2082.09+2225.09C2084.86+2225.09+2087.64+2225.1+2090.41+2225.09C2092.21+2225.09+2094.05+2225.18+2095.81+2224.75C2098.87+2224.01+2101.55+2222.12+2103.22+2219.44C2105.55+2215.69+2105+2210.98+2105+2206.78C2105+2205.38+2105+2203.97+2105+2202.56C2104.99+2192.25+2104.98+2181.93+2104.97+2171.62C2104.94+2131.79+2104.93+2091.96+2104.91+2052.12C2104.82+1915.28+2104.76+1778.44+2104.72+1641.59C2104.71+1605.04+2104.69+1568.49+2104.69+1531.94C2104.69+1522.56+2104.69+1513.19+2104.69+1503.81C2104.69+1502.41+2104.69+1501+2104.69+1499.59C2104.69+1495.79+2105.08+1491.9+2102.97+1488.5C2102.45+1487.67+2101.83+1486.93+2101.12+1486.25C2099.63+1484.81+2097.77+1483.83+2095.75+1483.34C2093.59+1482.82+2090.94+1483+2088.75+1483C2087.64+1483+2086.51+1483+2085.41+1483C2083.19+1483+2081+1483+2078.78+1483C2076.57+1483+2074.34+1483+2072.12+1483C2044.87+1483+2064.67+1482.99+1990.34+1483C1989.38+1482.74+1988.42+1482.41+1987.38+1482.41ZM1998.97+1504.94C2036.08+1504.94+2038.89+1504.94+2058.84+1504.94C2066.6+1504.94+2074.34+1504.94+2082.09+1504.94C2082.31+1504.94+2082.53+1504.94+2082.75+1504.94C2082.75+1506.44+2082.75+1507.94+2082.75+1509.44C2082.75+1518.81+2082.75+1528.19+2082.75+1537.56C2082.75+1566.15+2082.73+1594.72+2082.72+1623.31C2082.68+1751.25+2082.65+1879.22+2082.56+2007.16C2082.53+2053.08+2082.5+2099.01+2082.47+2144.94C2082.46+2160.4+2082.45+2175.85+2082.44+2191.31C2082.44+2195.05+2082.44+2198.79+2082.44+2202.53C2081.77+2202.53+2081.1+2202.53+2080.44+2202.53C2073.24+2202.53+2066.04+2202.5+2058.84+2202.5C2042.78+2202.49+2026.72+2202.48+2010.66+2202.47C2006.69+2202.47+2002.72+2202.46+1998.75+2202.47C1998.75+2197.52+1998.75+2192.57+1998.75+2187.62C1998.76+2170.68+1998.77+2153.73+1998.78+2136.78C1998.81+2085.22+1998.85+2033.66+1998.88+1982.09C1998.91+1918.02+1998.93+1853.94+1998.94+1789.88C1998.95+1694.9+1998.93+1762.49+1998.97+1504.94Z" opacity="1" fill="#a19f99"/>
</g>
<g opacity="1">
<path opacity="1" d="M2124.78+1499.79L2231.12+1499.79L2231.12+2225.5L2124.78+2225.5L2124.78+1499.79Z" fill="#703d04"/>
<path fill="#a19f99" d="M2124.78+1488.22C2118.38+1488.22+2113.19+1493.38+2113.19+1499.78C2113.23+1803.59+2113.23+1702.32+2113.25+1803.59C2113.26+1869.89+2113.28+1936.2+2113.31+2002.5C2113.34+2057.85+2113.34+2113.21+2113.38+2168.56C2113.38+2180.22+2113.4+2191.88+2113.41+2203.53C2113.41+2206.38+2113.4+2209.21+2113.41+2212.06C2113.41+2215.46+2113.43+2218.85+2113.44+2222.25C2113.44+2223.09+2113.44+2223.94+2113.44+2224.78C2113.44+2224.9+2113.36+2225.4+2113.44+2225.5C2116.28+2229.17+2118.79+2233.09+2121.94+2236.5C2122.38+2236.98+2123.23+2236.72+2123.88+2236.81C2124.7+2236.94+2125.6+2236.84+2126.44+2236.84C2129.21+2236.84+2131.98+2236.85+2134.75+2236.84C2146.38+2236.84+2158.03+2236.82+2169.66+2236.81C2186.27+2236.8+2202.89+2236.79+2219.5+2236.78C2222.27+2236.78+2225.01+2236.78+2227.78+2236.78C2229.59+2236.78+2231.45+2236.87+2233.22+2236.44C2236.28+2235.69+2238.96+2233.78+2240.62+2231.09C2242.94+2227.35+2242.41+2222.6+2242.41+2218.41C2242.41+2216.99+2242.41+2215.57+2242.41+2214.16C2242.4+2203.76+2242.38+2193.36+2242.38+2182.97C2242.35+2142.81+2242.31+2102.66+2242.28+2062.5C2242.19+1924.54+2242.17+1786.59+2242.12+1648.62C2242.11+1611.77+2242.1+1574.92+2242.09+1538.06C2242.09+1528.61+2242.09+1519.17+2242.09+1509.72C2242.09+1508.3+2242.09+1506.89+2242.09+1505.47C2242.09+1501.67+2242.47+1497.74+2240.38+1494.34C2239.62+1493.11+2238.62+1492.06+2237.47+1491.19C2235.94+1490.03+2234.14+1489.28+2232.25+1488.97C2230.82+1488.74+2229.23+1488.81+2227.78+1488.81C2226.12+1488.81+2224.47+1488.81+2222.81+1488.81C2220.6+1488.81+2218.37+1488.81+2216.16+1488.81C2213.94+1488.81+2211.75+1488.81+2209.53+1488.81C2182.26+1488.81+2202.15+1488.81+2127.72+1488.81C2126.76+1488.55+2125.83+1488.22+2124.78+1488.22ZM2136.38+1510.75C2173.48+1510.75+2176.27+1510.75+2196.22+1510.75C2203.97+1510.75+2211.75+1510.75+2219.5+1510.75C2219.71+1510.75+2219.92+1510.75+2220.12+1510.75C2220.12+1512.29+2220.13+1513.83+2220.12+1515.38C2220.12+1524.82+2220.13+1534.27+2220.12+1543.72C2220.12+1572.54+2220.13+1601.37+2220.12+1630.19C2220.09+1759.17+2220.05+1888.14+2219.97+2017.12C2219.94+2063.43+2219.91+2109.73+2219.88+2156.03C2219.86+2171.62+2219.85+2187.22+2219.84+2202.81C2219.84+2206.61+2219.85+2210.42+2219.84+2214.22C2219.17+2214.22+2218.49+2214.22+2217.81+2214.22C2210.61+2214.21+2203.42+2214.19+2196.22+2214.19C2180.16+2214.18+2164.09+2214.17+2148.03+2214.16C2144.07+2214.15+2140.12+2214.15+2136.16+2214.16C2136.16+2209.14+2136.15+2204.11+2136.16+2199.09C2136.17+2182.01+2136.18+2164.93+2136.19+2147.84C2136.22+2095.86+2136.22+2043.86+2136.25+1991.88C2136.28+1927.28+2136.3+1862.69+2136.31+1798.09C2136.33+1702.31+2136.33+1770.7+2136.38+1510.75Z" opacity="1"/>
</g>
<g opacity="1">
<path d="M2263.29+1484.27L2369.63+1484.27L2369.63+2218.79L2263.29+2218.79L2263.29+1484.27Z" opacity="1" fill="#703d04"/>
<path opacity="1" fill="#a19f99" d="M2263.28+1472.69C2256.88+1472.69+2251.72+1477.88+2251.72+1484.28C2251.77+1790.39+2251.73+1688.34+2251.75+1790.38C2251.76+1857.5+2251.78+1924.63+2251.81+1991.75C2251.84+2048.22+2251.87+2104.69+2251.91+2161.16C2251.91+2172.95+2251.93+2184.74+2251.94+2196.53C2251.94+2199.42+2251.94+2202.33+2251.94+2205.22C2251.94+2208.66+2251.94+2212.09+2251.94+2215.53C2251.94+2216.38+2251.94+2217.21+2251.94+2218.06C2251.94+2218.18+2251.86+2218.68+2251.94+2218.78C2254.77+2222.44+2257.3+2226.38+2260.44+2229.78C2260.89+2230.27+2261.72+2230+2262.38+2230.09C2263.21+2230.22+2264.1+2230.16+2264.94+2230.16C2267.71+2230.15+2270.48+2230.13+2273.25+2230.12C2284.33+2230.12+2295.42+2230.13+2306.5+2230.12C2323.67+2230.11+2340.83+2230.1+2358+2230.09C2360.77+2230.09+2363.54+2230.1+2366.31+2230.09C2368.13+2230.09+2370+2230.16+2371.78+2229.72C2374.85+2228.96+2377.54+2227.05+2379.19+2224.34C2381.47+2220.6+2380.91+2215.81+2380.91+2211.62C2380.91+2210.19+2380.91+2208.75+2380.91+2207.31C2380.9+2196.79+2380.88+2186.27+2380.88+2175.75C2380.85+2135.1+2380.84+2094.46+2380.81+2053.81C2380.72+1914.18+2380.67+1774.54+2380.62+1634.91C2380.61+1597.61+2380.6+1560.3+2380.59+1523C2380.59+1513.44+2380.59+1503.88+2380.59+1494.31C2380.59+1492.88+2380.59+1491.43+2380.59+1490C2380.59+1486.21+2380.98+1482.27+2378.91+1478.88C2378.15+1477.64+2377.18+1476.57+2376.03+1475.69C2374.49+1474.51+2372.69+1473.75+2370.78+1473.44C2369.35+1473.2+2367.77+1473.28+2366.31+1473.28C2364.65+1473.28+2362.97+1473.28+2361.31+1473.28C2359.1+1473.28+2356.9+1473.28+2354.69+1473.28C2352.47+1473.28+2350.25+1473.31+2348.03+1473.31C2320.83+1473.31+2340.22+1473.31+2266.41+1473.31C2265.4+1473.02+2264.38+1472.69+2263.28+1472.69ZM2274.88+1495.25C2311.99+1495.25+2314.8+1495.25+2334.75+1495.25C2342.5+1495.25+2350.25+1495.25+2358+1495.25C2358.22+1495.25+2358.44+1495.25+2358.66+1495.25C2358.66+1496.85+2358.66+1498.46+2358.66+1500.06C2358.66+1509.63+2358.66+1519.19+2358.66+1528.75C2358.65+1557.92+2358.63+1587.08+2358.62+1616.25C2358.59+1746.8+2358.55+1877.36+2358.47+2007.91C2358.44+2054.77+2358.41+2101.64+2358.38+2148.5C2358.36+2164.28+2358.35+2180.06+2358.34+2195.84C2358.34+2199.73+2358.35+2203.61+2358.34+2207.5C2357.68+2207.5+2357.01+2207.5+2356.34+2207.5C2349.14+2207.5+2341.95+2207.5+2334.75+2207.5C2318.69+2207.49+2302.62+2207.48+2286.56+2207.47C2282.6+2207.47+2278.62+2207.43+2274.66+2207.44C2274.66+2202.32+2274.65+2197.18+2274.66+2192.06C2274.67+2174.77+2274.68+2157.48+2274.69+2140.19C2274.72+2087.57+2274.76+2034.96+2274.78+1982.34C2274.81+1916.97+2274.83+1851.59+2274.84+1786.22C2274.86+1689.23+2274.83+1758.8+2274.88+1495.25Z"/>
</g>
<g opacity="1">
<path fill="#9b5a11" opacity="1" d="M1843.13+1613.7L2368.57+1613.7C2380.3+1613.7+2389.8+1623.21+2389.8+1634.93L2389.8+1634.93C2389.8+1646.66+2380.3+1656.17+2368.57+1656.17L1843.13+1656.17C1831.4+1656.17+1821.89+1646.66+1821.89+1634.93L1821.89+1634.93C1821.89+1623.21+1831.4+1613.7+1843.13+1613.7Z"/>
<path d="M2379.12+1058.75C2377.93+1058.64+2376.52+1058.9+2375.34+1059.06C2373.29+1059.34+2371.26+1059.79+2369.28+1060.41C2359.67+1063.4+2351.52+1070.35+2347+1079.34C2344.97+1083.38+2343.67+1087.78+2343.22+1092.28C2343.12+1093.25+2343.11+1093.68+2343.06+1094.62C2343.04+1095+2343.04+1095.37+2343.03+1095.75C2343.03+1095.8+2342.98+1095.91+2343.03+1095.91C2346.9+1095.94+2350.76+1095.97+2354.62+1096C2350.76+1096.03+2346.9+1096.06+2343.03+1096.09C2346.9+1096.12+2350.76+1096.16+2354.62+1096.19C2350.76+1096.22+2346.9+1096.25+2343.03+1096.28C2342.97+1096.28+2343.03+1096.41+2343.03+1096.47C2343.04+1096.83+2343.05+1097.2+2343.06+1097.56C2343.11+1098.51+2343.12+1098.91+2343.22+1099.88C2343.55+1103.16+2344.34+1106.42+2345.53+1109.5C2349.45+1119.66+2357.83+1127.77+2368.12+1131.34C2370.86+1132.29+2373.68+1132.93+2376.56+1133.22C2378.66+1133.43+2380.77+1133.41+2382.88+1133.41C2385.37+1133.41+2387.85+1133.41+2390.34+1133.41C2399.89+1133.4+2409.42+1133.41+2418.97+1133.41C2453.42+1133.4+2487.89+1133.38+2522.34+1133.38C2637.74+1133.35+2753.14+1133.33+2868.53+1133.25C2902.57+1133.23+2936.62+1133.18+2970.66+1133.16C2981.86+1133.15+2993.07+1133.13+3004.28+1133.12C3007.6+1133.12+3010.9+1133.13+3014.22+1133.12C3016.72+1133.12+3019.25+1133.19+3021.75+1132.94C3039.62+1131.11+3053.66+1116.52+3054.91+1098.62C3054.94+1098.1+3054.96+1097.56+3054.97+1097.03C3054.97+1096.85+3054.97+1096.68+3054.97+1096.5C3054.97+1096.42+3055.04+1096.25+3054.97+1096.25C3051.22+1096.22+3047.47+1096.22+3043.72+1096.19C3047.47+1096.16+3051.22+1096.12+3054.97+1096.09C3051.22+1096.06+3047.47+1096.03+3043.72+1096C3047.47+1095.97+3051.22+1095.94+3054.97+1095.91C3055.06+1095.91+3054.97+1095.72+3054.97+1095.62C3054.97+1095.45+3054.97+1095.3+3054.97+1095.12C3054.96+1094.6+3054.94+1094.08+3054.91+1093.56C3054.76+1091.5+3054.45+1089.45+3053.97+1087.44C3052.29+1080.44+3048.53+1074.01+3043.28+1069.09C3038.01+1064.15+3031.31+1060.83+3024.19+1059.62C3020.47+1058.99+3016.72+1059.09+3012.97+1059.09C3007.99+1059.1+3003.01+1059.12+2998.03+1059.12C2945.31+1059.16+2892.59+1059.18+2839.88+1059.22C2735.27+1059.3+2630.67+1059.33+2526.06+1059.34C2492.85+1059.35+2459.68+1059.34+2426.47+1059.34C2416.09+1059.34+2405.69+1059.34+2395.31+1059.34C2391.99+1059.34+2388.7+1059.34+2385.38+1059.34C2384.92+1059.34+2383.73+1059.34+2383.5+1059.34C2382.43+1059.04+2381.36+1058.73+2380.19+1058.75C2379.1+1058.77+2379.53+1058.79+2379.12+1058.75ZM2383.47+1081.28C2383.69+1081.29+2383.91+1081.28+2384.12+1081.28C2384.96+1081.28+2385.76+1081.28+2386.59+1081.28C2390.33+1081.28+2394.08+1081.28+2397.81+1081.28C2409.44+1081.28+2421.06+1081.28+2432.69+1081.28C2470.46+1081.28+2508.23+1081.31+2546+1081.31C2651.43+1081.32+2756.88+1081.36+2862.31+1081.44C2897.18+1081.46+2932.04+1081.47+2966.91+1081.5C2978.53+1081.51+2990.16+1081.52+3001.78+1081.53C3007.34+1081.54+3012.91+1081.39+3018.47+1081.56C3023.88+1081.73+3028.9+1085.08+3031.16+1090C3032.01+1091.85+3032.34+1093.77+3032.47+1095.78C3032.47+1095.95+3032.47+1096.25+3032.47+1096.25C3032.47+1096.33+3032.47+1096.35+3032.47+1096.41C3032.36+1097.94+3032.16+1099.38+3031.66+1100.84C3030.48+1104.23+3028.02+1107.11+3024.88+1108.81C3020.79+1111.02+3016.24+1110.57+3011.75+1110.56C3005.52+1110.56+2999.29+1110.54+2993.06+1110.53C2947.82+1110.5+2902.56+1110.47+2857.31+1110.44C2751.05+1110.36+2644.8+1110.33+2538.53+1110.31C2503.25+1110.31+2467.97+1110.29+2432.69+1110.28C2421.06+1110.28+2409.44+1110.28+2397.81+1110.28C2393.66+1110.28+2389.53+1110.28+2385.38+1110.28C2383.55+1110.28+2381.7+1110.34+2379.88+1110.28C2374.59+1110.12+2369.71+1106.83+2367.5+1102.03C2366.71+1100.32+2366.37+1098.54+2366.22+1096.69C2366.22+1096.65+2366.22+1096.63+2366.22+1096.59C2366.22+1096.57+2366.22+1096.55+2366.22+1096.53C2366.22+1096.51+2366.19+1096.27+2366.19+1096.09C2366.19+1095.91+2366.22+1095.62+2366.22+1095.59C2366.22+1095.52+2366.22+1095.3+2366.22+1095.38C2366.26+1094.81+2366.31+1094.25+2366.41+1093.69C2366.74+1091.71+2367.5+1089.81+2368.62+1088.16C2370.42+1085.5+2373.09+1083.48+2376.16+1082.53C2376.9+1082.3+2377.67+1082.13+2378.44+1082.03C2378.87+1081.97+2378.43+1082.04+2380.56+1081.91C2381.6+1081.89+2382.52+1081.55+2383.47+1081.28Z" opacity="1" fill="none"/>
</g>
<g opacity="1">
<path d="M1838.31+1790.14L2363.75+1790.14C2375.48+1790.14+2384.98+1799.65+2384.98+1811.37L2384.98+1811.37C2384.98+1823.1+2375.48+1832.6+2363.75+1832.6L1838.31+1832.6C1826.58+1832.6+1817.08+1823.1+1817.08+1811.37L1817.08+1811.37C1817.08+1799.65+1826.58+1790.14+1838.31+1790.14Z" fill="#9b5a11" opacity="1"/>
<path d="" opacity="1" fill="none"/>
</g>
<g opacity="1">
<path d="M1843.09+1988.15L2368.16+1968.3C2379.88+1967.85+2389.74+1976.99+2390.18+1988.71L2390.18+1988.71C2390.62+2000.43+2381.48+2010.28+2369.77+2010.73L1844.7+2030.58C1832.98+2031.02+1823.12+2021.88+1822.68+2010.17L1822.68+2010.17C1822.24+1998.45+1831.37+1988.59+1843.09+1988.15Z" fill="#9b5a11" opacity="1"/>
<path opacity="1" fill="none" d=""/>
</g>
<g opacity="1">
<path opacity="1" d="M1910.14+1604.55L1910.14+1604.55C1926.31+1604.55+1939.41+1617.65+1939.41+1633.82L1939.41+1634.43C1939.41+1650.59+1926.31+1663.7+1910.14+1663.7L1910.14+1663.7C1893.98+1663.7+1880.87+1650.59+1880.87+1634.43L1880.87+1633.82C1880.87+1617.65+1893.98+1604.55+1910.14+1604.55Z" fill="#abaaaa"/>
<path opacity="1" fill="none" d=""/>
</g>
<g opacity="1">
<path d="M2330.38+1602.06L2330.38+1602.06C2346.54+1602.06+2359.65+1615.16+2359.65+1631.33L2359.65+1631.94C2359.65+1648.1+2346.54+1661.21+2330.38+1661.21L2330.38+1661.21C2314.21+1661.21+2301.11+1648.1+2301.11+1631.94L2301.11+1631.33C2301.11+1615.16+2314.21+1602.06+2330.38+1602.06Z" opacity="1" fill="#abaaaa"/>
<path d="" opacity="1" fill="none"/>
</g>
<g opacity="1">
<path fill="#abaaaa" opacity="1" d="M1905.3+1778.94L1905.3+1778.94C1921.47+1778.94+1934.58+1792.04+1934.58+1808.21L1934.58+1808.82C1934.58+1824.98+1921.47+1838.09+1905.3+1838.09L1905.3+1838.09C1889.14+1838.09+1876.03+1824.98+1876.03+1808.82L1876.03+1808.21C1876.03+1792.04+1889.14+1778.94+1905.3+1778.94Z"/>
<path opacity="1" fill="none" d=""/>
</g>
<g opacity="1">
<path opacity="1" d="M2315.48+1781.6L2315.48+1781.6C2331.65+1781.6+2344.76+1794.7+2344.76+1810.87L2344.76+1811.48C2344.76+1827.64+2331.65+1840.75+2315.48+1840.75L2315.48+1840.75C2299.32+1840.75+2286.21+1827.64+2286.21+1811.48L2286.21+1810.87C2286.21+1794.7+2299.32+1781.6+2315.48+1781.6Z" fill="#abaaaa"/>
<path opacity="1" fill="none" d=""/>
</g>
<g opacity="1">
<path opacity="1" d="M1908.2+1976.21L1908.2+1976.21C1924.37+1976.21+1937.47+1989.31+1937.47+2005.48L1937.47+2006.09C1937.47+2022.25+1924.37+2035.36+1908.2+2035.36L1908.2+2035.36C1892.03+2035.36+1878.93+2022.25+1878.93+2006.09L1878.93+2005.48C1878.93+1989.31+1892.03+1976.21+1908.2+1976.21Z" fill="#abaaaa"/>
<path fill="none" opacity="1" d=""/>
</g>
<g opacity="1">
<path fill="#abaaaa" d="M2316.56+1964.82L2316.56+1964.82C2332.73+1964.82+2345.84+1977.93+2345.84+1994.1L2345.84+1994.7C2345.84+2010.87+2332.73+2023.97+2316.56+2023.97L2316.56+2023.97C2300.4+2023.97+2287.29+2010.87+2287.29+1994.7L2287.29+1994.1C2287.29+1977.93+2300.4+1964.82+2316.56+1964.82Z" opacity="1"/>
<path opacity="1" d="" fill="none"/>
</g>
</g>
<g opacity="1">
<path opacity="1" fill="#71491c" d="M959.21+1650.6L1087.09+1658.65C1099.69+1659.45+1109.15+1668.62+1108.22+1679.15L1080.3+1994.16C1079.37+2004.69+1068.4+2012.58+1055.79+2011.78L927.916+2003.73C915.311+2002.93+905.848+1993.76+906.781+1983.23L934.698+1668.22C935.63+1657.69+946.605+1649.8+959.21+1650.6Z"/>
<path d="" opacity="1" fill="none"/>
</g>
<g opacity="1">
<path opacity="1" d="M907.822+1986.47L1082.98+1996.49C1089.37+1996.85+1091.58+2005.3+1087.92+2015.36L1087.92+2015.36C1084.27+2025.42+1076.12+2033.28+1069.73+2032.92L894.577+2022.9C888.186+2022.54+885.971+2014.09+889.628+2004.03L889.628+2004.03C893.286+1993.97+901.431+1986.11+907.822+1986.47Z" fill="#582f01"/>
<path fill="none" opacity="1" d=""/>
</g>
<g opacity="1">
<g opacity="1">
<path opacity="1" d="M21.5362+22.5522C33.2909+52.0371+44.0616+81.9918+57.8657+110.575C79.2374+154.827+103.932+197.418+125.446+241.601C161.946+316.559+196.992+392.269+229.471+469.03C246.84+510.077+264.208+551.125+281.576+592.172C286.062+602.774+289.769+613.762+295.263+623.878C297.787+628.527+299.493+634.526+304.157+637.023C309.239+639.745+315.792+636.684+321.429+637.891C331.319+640.009+340.854+643.571+350.396+646.926C382.802+658.319+414.451+673.326+445.461+687.995C463.108+696.343+481.107+704.254+497.522+714.821C546.689+746.472+582.857+796.429+618.108+841.843C681.829+923.934+734.335+1014.44+774.812+1110.1" fill="#b0a395"/>
<path d="M21.5312+22.5625C30.3978+51.9027+38.4585+81.5351+49.25+110.25C65.6204+153.81+85.4877+195.987+102.906+239.125C104.431+242.9+105.992+246.675+107.469+250.469C122.408+288.837+137.099+327.293+151.562+365.844C158.388+384.035+165.004+402.295+171.875+420.469C173.557+424.917+175.167+429.418+176.906+433.844C178.47+437.823+180.327+441.704+182.031+445.625C185.469+453.534+188.92+461.425+192.406+469.312C202.017+491.057+211.692+512.763+221.938+534.219C231.562+554.373+241.617+574.355+252.125+594.062C255.614+600.606+259.121+607.135+262.594+613.688C265.881+619.891+269.187+626.091+272.938+632.031C273.836+633.454+274.847+634.764+275.781+636.156C277.075+638.083+278.167+640.151+279.438+642.094C280.929+644.374+282.562+646.493+284.406+648.5C291.005+655.682+299.927+659.45+309.688+658.875C311.823+658.749+313.947+658.412+316.031+657.938C316.691+657.787+317.372+657.658+318+657.406C318.107+657.363+318.278+657.334+318.281+657.219C318.284+657.104+318.087+657.106+318+657.031C317.941+656.98+317.772+656.874+317.844+656.844C318.026+656.768+318.24+656.834+318.438+656.844C318.789+656.861+319.149+656.874+319.5+656.906C326.062+657.515+332.547+658.907+338.969+660.344C344.109+661.494+349.257+662.628+354.375+663.875C365.421+666.566+376.378+669.669+387.219+673.094C391.672+674.501+396.057+676.092+400.469+677.625C415.486+682.843+430.333+688.6+445.031+694.656C451.798+697.444+458.608+700.126+465.312+703.062C472.664+706.282+479.943+709.702+487.031+713.469C491.954+716.085+496.724+719.026+501.375+722.094C515.465+731.386+528.351+742.371+540.469+754.094C544.408+757.905+548.21+761.854+552.031+765.781C558.444+772.372+564.816+778.979+570.938+785.844C584.777+801.362+597.716+817.653+610.594+833.969C620.872+846.992+631.172+859.982+640.969+873.375C661.398+901.303+680.549+930.162+698.438+959.781C712.977+983.855+726.554+1008.5+739.25+1033.59C720.701+996.918+700.416+961.101+678.344+926.438C664.391+904.525+649.679+883.106+634.406+862.094C627.899+853.141+621.203+844.33+614.531+835.5C601.24+817.909+588.174+800.155+574.438+782.906C568.658+775.649+562.849+768.382+556.656+761.469C553.356+757.785+549.905+754.213+546.438+750.688C538.215+742.326+529.601+734.339+520.5+726.938C509.909+718.324+498.815+710.436+487.094+703.438C481.066+699.838+474.906+696.532+468.719+693.219C460.933+689.049+453.082+684.949+445.312+680.75C441.198+678.526+437.156+676.201+433.062+673.938C420.958+667.244+408.876+660.467+396.75+653.812C389.978+650.096+383.271+646.324+376.438+642.719C368.802+638.691+361.088+634.814+353.344+631C346.039+627.403+338.699+623.818+331.062+620.969C329.082+620.23+327.056+619.438+325+618.938C322.581+618.349+320.149+618.105+317.688+617.969C317.675+617.93+317.669+617.881+317.656+617.844C316.846+615.397+315.74+613.061+314.906+610.625C312.321+603.067+310.581+595.277+308.312+587.625C307.587+585.179+306.785+582.771+306+580.344C303.991+574.135+302.024+567.891+300+561.688C297.114+552.842+294.065+544.035+291+535.25C286.406+522.085+281.543+509.003+276.594+495.969C270.861+480.872+264.98+465.844+258.844+450.906C254.684+440.78+250.45+430.669+246.094+420.625C244.7+417.41+243.309+414.211+241.906+411C241.2+409.382+240.524+407.743+239.75+406.156C237.832+402.227+235.773+398.361+233.781+394.469C228.987+385.101+224.114+375.797+219.125+366.531C210.399+350.327+201.554+334.17+192.594+318.094C181.095+297.463+169.265+277.001+157.375+256.594C150.39+244.606+143.354+232.661+136.188+220.781C134.014+217.178+131.907+213.543+129.688+209.969C117.747+190.739+105.482+171.721+93.2812+152.656C82.2514+135.421+71.2293+118.125+61.0938+100.344C46.6836+75.063+34.4527+48.6147+21.5312+22.5625ZM739.25+1033.59C745.598+1046.14+751.734+1058.81+757.656+1071.56C753.572+1062.73+749.459+1053.89+745.156+1045.16C743.244+1041.27+741.203+1037.46+739.25+1033.59ZM757.656+1071.56C763.578+1084.32+769.294+1097.17+774.812+1110.09C769.308+1097.15+763.558+1084.33+757.656+1071.56ZM310.281+617.312C310.969+617.294+311.678+617.394+312.344+617.562C312.536+617.611+312.686+617.755+312.875+617.812C312.142+617.811+311.42+617.815+310.688+617.781C310.608+617.778+309.582+617.691+309.594+617.531C309.606+617.359+310.25+617.313+310.281+617.312Z" fill="#828280" opacity="1"/>
</g>
<path fill="#342a01" opacity="1" d="M485.438+675.344C478.957+675.588+472.471+677.694+466.844+681.812C451.838+692.794+448.581+713.869+459.562+728.875C474.878+749.761+490.209+770.627+505.5+791.531C528.902+823.525+552.215+855.591+575.562+887.625C628.532+960.301+681.587+1032.92+735.156+1105.16C784.749+1172.03+835.775+1237.84+884.438+1305.41C904.217+1332.87+923.57+1360.65+942.344+1388.81C952.103+1403.47+971.879+1407.42+986.531+1397.66C1001.18+1387.9+1005.17+1368.12+995.406+1353.47C932.329+1258.67+862.401+1168.72+795.188+1076.88C742.739+1005.21+691.028+933.034+639+861.062C597.475+803.62+555.714+746.362+513.906+689.125C507.043+679.746+496.238+674.937+485.438+675.344Z"/>
</g>
<path fill="#f1c390" d="M1218.01+385.548L1218.01+385.548C1256.28+385.548+1287.31+417.793+1287.31+457.569L1287.31+495.764C1287.31+535.54+1256.28+567.785+1218.01+567.785L1218.01+567.785C1179.73+567.785+1148.7+535.54+1148.7+495.764L1148.7+457.569C1148.7+417.793+1179.73+385.548+1218.01+385.548Z" opacity="1"/>
<g opacity="1">
<path d="M1180.22+301.053L1142.68+355.988C1140.1+359.758+1146.12+371.038+1156.13+381.182L1290.85+517.789C1300.85+527.933+1311.05+533.099+1313.63+529.328L1351.17+474.393C1353.75+470.622+1347.73+459.342+1337.72+449.199L1203+312.592C1193+302.448+1182.8+297.282+1180.22+301.053Z" opacity="1" fill="#d5c2ad"/>
<path opacity="1" d="" fill="none"/>
</g>
<g opacity="1">
<path d="M1449.97+1964.85L1449.97+1964.85C1410.89+1970.6+1383.53+1999.68+1388.87+2029.81L1442.27+2217.28C1447.61+2247.41+1457.7+2235.1+1496.79+2229.35L1496.79+2229.35C1535.87+2223.6+1520.99+2214.44+1515.65+2184.31C1515.65+2184.31+1520.35+2122.38+1522.44+2103.65C1529.29+2041.89+1530.39+2008.99+1530.39+2008.99C1525.06+1978.86+1489.06+1959.1+1449.97+1964.85Z" opacity="1" fill="#f1c390"/>
<path opacity="1" d="" fill="none"/>
</g>
<g opacity="1">
<path opacity="1" fill="#71491c" d="M1469.61+1655.17L1350.17+1679.88C1338.4+1682.31+1330+1693.08+1331.4+1703.92L1373.54+2028.48C1374.94+2039.33+1385.63+2046.14+1397.4+2043.71L1516.84+2019C1528.61+2016.57+1537.01+2005.8+1535.61+1994.96L1493.47+1670.4C1492.07+1659.55+1481.38+1652.74+1469.61+1655.17Z"/>
<path opacity="1" d="" fill="none"/>
</g>
<g opacity="1">
<path fill="#582f01" d="M1027.21+1414.79L1630.64+1414.79C1652.66+1414.79+1671.01+1455.59+1636.49+1461.4C1601.96+1467.2+1588.83+1459.85+1588.83+1459.85C1559.53+1444.68+1611.25+1460.58+1589.23+1460.58L1032.49+1464.09C1010.47+1464.09+1027.87+1467.95+1027.87+1445.31L1015.38+1443.16C1015.38+1420.53+1005.19+1414.79+1027.21+1414.79Z" opacity="1"/>
<path d="" fill="none" opacity="1"/>
</g>
<g opacity="1">
<path d="M1534.79+1998.47L1371.15+2031.24C1365.18+2032.44+1363.53+2041.52+1367.47+2051.53L1367.47+2051.53C1371.41+2061.55+1379.44+2068.69+1385.41+2067.5L1549.05+2034.72C1555.02+2033.52+1556.67+2024.44+1552.73+2014.43L1552.73+2014.43C1548.8+2004.42+1540.76+1997.27+1534.79+1998.47Z" opacity="1" fill="#582f01"/>
<path fill="none" d="" opacity="1"/>
</g>
<g opacity="1">
<path d="M882.02+2219.48L930.335+2207.34L923.768+2168.55C993.786+2210.27+1075.22+2132.47+1078.04+2172.53L1057.17+2195.66C1059.99+2235.73+1028.27+2272.51+986.314+2277.81L866.71+2292.94C824.756+2298.25+788.462+2270.07+785.644+2230L785.644+2230C782.827+2189.93+840.067+2224.78+882.02+2219.48Z" fill="#71491c" opacity="1"/>
<path opacity="1" d="" fill="none"/>
</g>
<g opacity="1">
<path d="M1599.39+2218.61L1545.4+2217.46L1545.99+2181.22C1477.66+2232.93+1377.1+2179.38+1380.76+2216.01L1407.06+2232.6C1410.72+2269.23+1450.98+2295.92+1496.98+2292.21L1628.12+2281.63C1674.12+2277.92+1708.44+2245.22+1704.78+2208.59L1704.78+2208.59C1701.11+2171.96+1645.38+2214.9+1599.39+2218.61Z" fill="#71491c" opacity="1"/>
<path fill="none" opacity="1" d=""/>
</g>
</g>
</svg>
