<?xml version="1.0" encoding="UTF-8" standalone="no"?> <!-- Created with Vectornator for iOS (http://vectornator.io/) --><!DOCTYPE svg PUBLIC "-//W3C//DTD SVG 1.1//EN" "http://www.w3.org/Graphics/SVG/1.1/DTD/svg11.dtd">
<svg height="100%" style="fill-rule:nonzero;clip-rule:evenodd;stroke-linecap:round;stroke-linejoin:round;" version="1.1" viewBox="0 0 3370.82 2384.24" width="100%" xml:space="preserve" xmlns="http://www.w3.org/2000/svg" xmlns:vectornator="http://vectornator.io" xmlns:xlink="http://www.w3.org/1999/xlink">
<metadata>
<vectornator:setting key="IsTimeLapseWatermarkDisabled" value="false"/>
<vectornator:setting key="UndoHistoryDisabled" value="true"/>
<vectornator:setting key="VNDimensionsVisible" value="true"/>
<vectornator:setting key="VNSnapToGuides" value="true"/>
<vectornator:setting key="WDCMYKEnabledKey" value="false"/>
<vectornator:setting key="WDDisplayWhiteBackground" value="false"/>
<vectornator:setting key="WDDynamicGuides" value="false"/>
<vectornator:setting key="WDGuidesVisible" value="true"/>
<vectornator:setting key="WDIsolateActiveLayer" value="false"/>
<vectornator:setting key="WDOutlineMode" value="false"/>
<vectornator:setting key="WDRulersVisible" value="true"/>
<vectornator:setting key="WDSnapToEdges" value="false"/>
<vectornator:setting key="WDSnapToGrid" value="false"/>
<vectornator:setting key="WDSnapToPoints" value="false"/>
<vectornator:setting key="WDUnits" value="Millimeters"/>
</metadata>
<defs/>
<g id="Layer 1" vectornator:layerName="Layer 1">
<path d="M1791.78 267.341L1927.05 267.341C1934.97 267.341 1941.39 272.214 1941.39 278.225L1941.39 758.78C1941.39 764.791 1934.97 769.663 1927.05 769.663L1791.78 769.663C1783.85 769.663 1777.43 764.791 1777.43 758.78L1777.43 278.225C1777.43 272.214 1783.85 267.341 1791.78 267.341Z" fill="#854f14" opacity="1"/>
<path d="M1969.98 267.592L2095.76 267.592C2103.13 267.592 2109.1 272.465 2109.1 278.476L2109.1 759.031C2109.1 765.042 2103.13 769.914 2095.76 769.914L1969.98 769.914C1962.62 769.914 1956.64 765.042 1956.64 759.031L1956.64 278.476C1956.64 272.465 1962.62 267.592 1969.98 267.592Z" fill="#854f14" opacity="1"/>
<path d="M1940.61 387.547C1819.15 387.547 1720.7 440.304 1720.7 505.391L1720.7 825.641C1720.7 858.966 1746.61 888.986 1788.11 910.422C1799.2 926.266 1826.1 937.453 1857.58 937.453L1871.58 937.453C1893.31 941.306 1916.46 943.485 1940.61 943.485C1964.76 943.485 1987.94 941.306 2009.67 937.453L2016.2 937.453C2043.31 937.453 2066.99 929.155 2080.14 916.735C2129.23 895.121 2160.55 862.343 2160.55 825.641L2160.55 505.391C2160.55 440.304 2062.07 387.547 1940.61 387.547Z" fill="#f1c390" opacity="1"/>
<path d="M1770.69 799.262L1923.01 742.887C1931.95 739.58 1941.87 744.143 1945.18 753.079L1945.18 753.079C1948.49 762.014 1943.93 771.939 1934.99 775.246L1782.66 831.622C1773.73 834.929 1763.8 830.366 1760.5 821.43L1760.5 821.43C1757.19 812.494 1761.75 802.569 1770.69 799.262Z" fill="#000000" opacity="1"/>
<path d="M1826.15 292.333L2049.89 292.333C2107.05 292.333 2153.38 348.583 2153.38 417.972L2153.38 417.972C2153.38 487.36 2107.05 543.611 2049.89 543.611L1826.15 543.611C1768.99 543.611 1722.66 487.36 1722.66 417.972L1722.66 417.972C1722.66 348.583 1768.99 292.333 1826.15 292.333Z" fill="#361e02" opacity="1"/>
<path d="M1933.13 618.915L1933.13 618.915C1947.09 618.915 1958.41 630.231 1958.41 644.188L1958.41 697.073C1958.41 711.031 1947.09 722.346 1933.13 722.346L1933.13 722.346C1919.18 722.346 1907.86 711.031 1907.86 697.073L1907.86 644.188C1907.86 630.231 1919.18 618.915 1933.13 618.915Z" fill="#e6a258" opacity="1"/>
<path d="M1778.78 290.86L1914.05 290.86C1921.97 290.86 1928.39 295.733 1928.39 301.743L1928.39 782.298C1928.39 788.309 1921.97 793.182 1914.05 793.182L1778.78 793.182C1770.85 793.182 1764.43 788.309 1764.43 782.298L1764.43 301.743C1764.43 295.733 1770.85 290.86 1778.78 290.86Z" fill="#bd8b53" opacity="1"/>
<path d="M1954.77 743.13L2109.35 792.993C2118.42 795.918 2123.4 805.641 2120.47 814.709L2120.47 814.709C2117.55 823.777 2107.82 828.756 2098.76 825.831L1944.18 775.968C1935.11 773.043 1930.13 763.32 1933.05 754.252L1933.05 754.252C1935.98 745.184 1945.7 740.205 1954.77 743.13Z" fill="#000000" opacity="1"/>
<path d="M1956.98 291.111L2082.76 291.111C2090.13 291.111 2096.1 295.984 2096.1 301.994L2096.1 782.549C2096.1 788.56 2090.13 793.433 2082.76 793.433L1956.98 793.433C1949.62 793.433 1943.64 788.56 1943.64 782.549L1943.64 301.994C1943.64 295.984 1949.62 291.111 1956.98 291.111Z" fill="#bd8b53" opacity="1"/>
<path d="M2131.88 270.493L2193.93 270.493C2197.57 270.493 2200.51 275.165 2200.51 280.928L2200.51 741.685C2200.51 747.449 2197.57 752.121 2193.93 752.121L2131.88 752.121C2128.25 752.121 2125.3 747.449 2125.3 741.685L2125.3 280.928C2125.3 275.165 2128.25 270.493 2131.88 270.493Z" fill="#854f14" opacity="1"/>
<path d="M1702.05 267.473L1757.7 267.473C1760.96 267.473 1763.6 272.198 1763.6 278.027L1763.6 744.039C1763.6 749.868 1760.96 754.593 1757.7 754.593L1702.05 754.593C1698.79 754.593 1696.15 749.868 1696.15 744.039L1696.15 278.027C1696.15 272.198 1698.79 267.473 1702.05 267.473Z" fill="#854f14" opacity="1"/>
<path d="M2170.96 276.37L2207.37 276.37C2209.5 276.37 2211.23 281.095 2211.23 286.924L2211.23 752.936C2211.23 758.765 2209.5 763.49 2207.37 763.49L2170.96 763.49C2168.83 763.49 2167.1 758.765 2167.1 752.936L2167.1 286.924C2167.1 281.095 2168.83 276.37 2170.96 276.37Z" fill="#a1723d" opacity="1"/>
<path d="M2118.88 294.011L2180.93 294.011C2184.57 294.011 2187.51 298.683 2187.51 304.447L2187.51 765.204C2187.51 770.967 2184.57 775.639 2180.93 775.639L2118.88 775.639C2115.25 775.639 2112.3 770.967 2112.3 765.204L2112.3 304.447C2112.3 298.683 2115.25 294.011 2118.88 294.011Z" fill="#bd8b53" opacity="1"/>
<path d="M1665.23 272.526L1701.64 272.526C1703.77 272.526 1705.5 277.251 1705.5 283.08L1705.5 749.091C1705.5 754.92 1703.77 759.646 1701.64 759.646L1665.23 759.646C1663.1 759.646 1661.37 754.92 1661.37 749.091L1661.37 283.08C1661.37 277.251 1663.1 272.526 1665.23 272.526Z" fill="#a1723d" opacity="1"/>
<path d="M1689.05 290.991L1744.7 290.991C1747.96 290.991 1750.6 295.717 1750.6 301.546L1750.6 767.557C1750.6 773.386 1747.96 778.112 1744.7 778.112L1689.05 778.112C1685.79 778.112 1683.15 773.386 1683.15 767.557L1683.15 301.546C1683.15 295.717 1685.79 290.991 1689.05 290.991Z" fill="#bd8b53" opacity="1"/>
<g opacity="1">
<g opacity="1">
<path d="M674.342 1614.23C671.05 1613.94 591.117 1607.11 588.269 1605.3C583.249 1602.11 560.538 1583.2 557.082 1577.93C550.132 1567.34 653.356 1577.79 647.972 1565.99C636.123 1540.02 624.753 1513.69 614.742 1486.62C604.477 1458.87 594.883 1430.67 587.206 1401.7C576.948 1362.99 567.556 1323.81 561.009 1283.85C553.882 1240.35 550.719 1195.89 546.26 1151.77C535.811 1048.42 527.426 944.555 523.573 840.237C521.695 789.416 520.338 738.526 520.114 687.569C519.919 643.293 520.17 598.946 522.316 554.611C524.341 512.78 527.972 470.952 532.618 429.26C535.766 401.003 541.325 373.047 545.678 344.94C556.08 277.788 565.585 211.005 579.418 144.556" fill="#b0a395" opacity="1"/>
<path d="M579.406 144.562C574.844 166.681 570.648 188.875 566.781 211.125C560.017 250.045 554.186 289.118 548.156 328.156C546.569 338.435 544.956 348.683 543.219 358.938C540.05 377.639 536.605 396.307 533.969 415.094C531.61 431.904 529.911 448.83 528.219 465.719C525.953 488.33 523.898 510.955 522.312 533.625C520.631 557.67 519.369 581.731 518.344 605.812C517.852 617.356 517.239 628.917 516.969 640.469C516.839 646.013 516.841 651.579 516.781 657.125C516.602 673.659 516.633 690.184 516.594 706.719C516.528 734.336 516.386 761.947 516.062 789.562C515.994 795.401 515.984 801.256 515.875 807.094C515.461 829.174 514.938 851.24 514.219 873.312C513.577 893.001 512.656 912.688 511.969 932.375C510.708 968.476 509.632 1004.59 509.5 1040.72C509.482 1045.63 509.567 1050.56 509.625 1055.47C509.702 1062.01 509.756 1068.55 509.906 1075.09C510.107 1083.8 510.46 1092.51 510.75 1101.22C511.004 1108.85 511.423 1116.44 511.812 1124.06C512.997 1147.25 514.65 1170.44 516.375 1193.59C517.84 1213.26 519.486 1232.92 521.875 1252.5C522.567 1258.18 523.307 1263.84 524.094 1269.5C524.419 1271.84 524.72 1274.2 525.125 1276.53C526.089 1282.09 527.328 1287.61 528.5 1293.12C533.192 1315.19 539.162 1336.91 545.469 1358.56C548.221 1368.01 551.159 1377.4 554.125 1386.78C557.993 1399.02 561.958 1411.22 566.25 1423.31C570.316 1434.77 574.746 1446.11 579.312 1457.38C590.043 1483.85 601.828 1509.95 614.688 1535.47C618.495 1543.02 622.38 1550.54 626.312 1558.03C625.771 1558.11 625.229 1558.18 624.688 1558.25C621.06 1558.73 617.393 1559.01 613.75 1559.34C602.439 1560.39 591.09 1561 579.781 1562.09C573.152 1562.73 566.372 1563.36 559.906 1565.03C555.473 1566.18 550.678 1568.15 548.719 1572.66C548.402 1573.39 548.153 1574.16 548 1574.94C547.85 1575.7 547.819 1576.5 547.844 1577.28C547.867 1578.02 547.979 1578.73 548.156 1579.44C549.065 1583.08 552.138 1585.75 554.844 1588.12C559.382 1592.11 564.235 1595.79 569.094 1599.38C572.881 1602.17 576.713 1604.91 580.625 1607.53C582.437 1608.74 584.578 1610.39 586.656 1611.06C588.102 1611.53 589.684 1611.62 591.188 1611.75C593.18 1611.92 595.191 1612.05 597.188 1612.16C603.308 1612.49 609.437 1612.68 615.562 1612.88C635.154 1613.5 654.746 1613.87 674.344 1614.22C655.409 1611.25 636.486 1608.27 617.594 1605.03C611.5 1603.99 605.385 1602.94 599.312 1601.78C596.997 1601.34 594.701 1600.89 592.406 1600.34C591.998 1600.25 591.592 1600.14 591.188 1600.03C591.124 1599.98 591.063 1599.93 591 1599.88C590.759 1599.68 590.488 1599.45 590.25 1599.25C589.774 1598.84 589.312 1598.45 588.844 1598.03C587.366 1596.73 585.91 1595.38 584.469 1594.03C580.678 1590.5 577.023 1586.81 573.406 1583.09C588.475 1583.34 603.54 1584.77 618.594 1585.41C624.472 1585.66 630.365 1585.86 636.25 1585.69C644.488 1585.44 654.205 1584.41 659.719 1577.47C660.311 1576.72 660.854 1575.96 661.312 1575.12C661.848 1574.15 662.34 1573.12 662.688 1572.06C663.041 1570.99 663.27 1569.87 663.406 1568.75C663.541 1567.64 663.583 1566.52 663.5 1565.41C663.42 1564.32 663.2 1563.24 662.938 1562.19C662.438 1560.18 661.478 1558.18 660.75 1556.25C657.838 1548.51 654.972 1540.76 652.188 1532.97C641.554 1503.22 632.142 1473.06 624.219 1442.47C621.337 1431.34 618.564 1420.18 616.156 1408.94C614.111 1399.39 612.215 1389.8 610.344 1380.22C606.322 1359.63 602.739 1338.97 599.625 1318.22C597.697 1305.37 595.987 1292.47 594.469 1279.56C593.963 1275.27 593.587 1270.95 593.094 1266.66C592.536 1261.8 591.726 1256.97 591.094 1252.12C589.934 1243.23 588.894 1234.31 587.844 1225.41C585.64 1206.72 583.741 1188 581.531 1169.31C579.571 1152.74 577.197 1136.21 574.875 1119.69C571.944 1098.83 568.774 1077.98 565.406 1057.19C564.28 1050.24 563.257 1043.28 562.062 1036.34C555.62 998.914 548.972 961.525 543.094 924C540.402 906.816 537.781 889.605 535.625 872.344C531.518 839.47 528.707 806.405 526.656 773.344C525.278 751.131 524.394 728.874 523.906 706.625C523.423 684.597 523.389 662.563 523.312 640.531C523.277 630.378 522.956 620.216 522.875 610.062C522.786 598.986 522.899 587.919 523.062 576.844C523.48 548.522 525.115 520.177 527.25 491.938C528.403 476.691 529.778 461.463 531.312 446.25C532.358 435.888 533.41 425.544 534.781 415.219C536.966 398.771 539.776 382.401 542.469 366.031C544.6 353.079 546.558 340.102 548.531 327.125C557.81 266.095 567.006 205.054 579.406 144.562ZM640 1555.34C640.014 1555.34 640.039 1555.36 640.031 1555.38C639.982 1555.45 639.71 1555.55 639.688 1555.56C639.553 1555.62 639.401 1555.67 639.25 1555.72C639.53 1555.58 639.767 1555.34 640 1555.34ZM564.469 1573.09C564.521 1573.08 564.533 1573.17 564.562 1573.22C564.678 1573.4 564.778 1573.59 564.875 1573.78C564.772 1573.64 564.624 1573.38 564.531 1573.22C564.507 1573.18 564.422 1573.11 564.469 1573.09ZM590.375 1599.75C590.425 1599.62 590.626 1599.82 590.75 1599.88C590.784 1599.89 590.811 1599.92 590.844 1599.94C590.678 1599.89 590.364 1599.78 590.375 1599.75Z" fill="#828280" opacity="1"/>
</g>
<path d="M583.978 1259.41L583.978 1259.41C609.45 1257.93 630.21 1280.49 630.347 1309.82L631.756 1611.81C631.893 1641.14 625.563 1633.01 600.091 1634.49L600.376 1633.97C574.904 1635.46 539.65 1646.52 539.513 1617.2L538.104 1315.2C537.967 1285.88 558.506 1260.9 583.978 1259.41Z" fill="#443802" opacity="1" stroke="#443802" stroke-linecap="round" stroke-linejoin="round" stroke-width="72.2275"/>
<path d="M517.203 1278.89L670.196 1302.59L670.077 1303.36L517.084 1279.66L517.203 1278.89Z" fill="none" opacity="1" stroke="#342a01" stroke-linecap="round" stroke-linejoin="round" stroke-width="21.8177"/>
<path d="M341.647 1251.99C835.817 1261.52 839.548 1260.43 839.548 1260.43" fill="none" opacity="1" stroke="#3e3d3b" stroke-linecap="round" stroke-linejoin="round" stroke-width="90.5299"/>
<path d="M508.195 1561.64L661.188 1585.34L661.069 1586.11L508.076 1562.41L508.195 1561.64Z" fill="none" opacity="1" stroke="#342a01" stroke-linecap="round" stroke-linejoin="round" stroke-width="21.8177"/>
<path d="M509.091 1589.95L662.083 1613.65L661.964 1614.42L508.971 1590.72L509.091 1589.95Z" fill="none" opacity="1" stroke="#342a01" stroke-linecap="round" stroke-linejoin="round" stroke-width="21.8177"/>
<g opacity="1">
<path d="M573.046 1580.52L573.046 1580.52C624.35 1576.91 667.303 1593.4 668.985 1617.34L669.165 1619.89C670.847 1643.83 630.62 1666.16 579.316 1669.76L579.316 1669.76C528.013 1673.37 485.059 1656.88 483.377 1632.94L483.198 1630.39C481.516 1606.45 521.742 1584.12 573.046 1580.52Z" fill="#b0a395" opacity="1"/>
<path d="M637.969 1572.19C618.71 1572.91 573.031 1580.53 573.031 1580.53C573.031 1580.53 595.156 1585.51 605.688 1589.62C611.791 1592.01 617.716 1594.78 623.406 1598.03C628.249 1600.8 632.927 1603.9 637.062 1607.66C638.796 1609.23 640.441 1610.91 641.812 1612.81C643.285 1614.85 644.399 1616.56 644.656 1619.09C644.684 1619.37 644.822 1619.64 644.781 1619.91C644.769 1619.99 644.606 1619.87 644.531 1619.91C644.396 1619.98 644.323 1620.33 644.188 1620.44C643.715 1620.83 643.117 1620.65 642.625 1620.41C642.317 1620.25 642.01 1620.01 641.781 1619.75C641.675 1619.63 641.467 1619.26 641.406 1619.44C641.155 1620.16 641.254 1620.97 641 1621.69C640.98 1621.74 640.884 1621.67 640.844 1621.62C640.766 1621.54 640.714 1621.42 640.656 1621.31C640.491 1621.02 640.355 1620.74 640.219 1620.44C639.827 1619.56 639.558 1618.43 638.875 1617.72C638.691 1617.53 637.859 1617.3 637.844 1617.28C637.793 1617.21 637.933 1617.03 637.844 1617.03C637.578 1617.05 637.348 1617.26 637.094 1617.34C636.925 1617.4 636.734 1617.37 636.562 1617.41C635.77 1617.6 635.056 1617.98 634.281 1618.22C634.191 1618.25 634.091 1618.2 634 1618.22C633.49 1618.34 633.154 1618.7 632.75 1619C632.32 1619.32 631.882 1619.63 631.438 1619.94C629.718 1621.11 627.975 1622.28 626.188 1623.34C619.949 1627.07 613.566 1630.54 607.125 1633.91C603.384 1635.86 599.713 1637.96 596 1639.97C594.787 1640.62 593.543 1641.22 592.344 1641.91C588.489 1644.1 584.643 1646.31 580.688 1648.31C579.724 1648.8 578.72 1649.21 577.75 1649.69C577.661 1649.73 578.152 1649.61 578.062 1649.66C570.235 1653.34 562.15 1656.78 553.75 1658.94C545.393 1661.09 536.665 1661.57 528.094 1660.84C518.632 1660.05 509.208 1657.07 501.062 1652.19C499.027 1650.97 497.117 1649.58 495.219 1648.16C493.925 1647.19 492.645 1646.24 491.469 1645.12C489.01 1642.8 487.026 1640.05 485.812 1636.88C485.177 1635.21 484.924 1633.47 484.719 1631.72C484.554 1630.31 484.365 1628.92 484.406 1627.5C484.513 1623.78 485.775 1620.15 487.594 1616.94C489.476 1613.61 491.95 1610.66 494.719 1608.03C501.448 1601.65 509.733 1596.95 518.156 1593.19C523.86 1590.64 573.031 1580.53 573.031 1580.53C573.031 1580.53 545.155 1583.81 531.719 1587.94C523.235 1590.55 514.872 1593.8 507.094 1598.09C501.325 1601.28 495.786 1605.09 491.188 1609.84C487.815 1613.33 484.898 1617.34 483.25 1621.94C482.082 1625.2 481.793 1628.51 481.875 1631.94C481.936 1634.47 482.224 1636.97 482.938 1639.41C483.731 1642.12 484.983 1644.7 486.531 1647.06C487.875 1649.11 489.394 1651.1 491.125 1652.84C492.525 1654.25 494.118 1655.48 495.719 1656.66C501.868 1661.16 508.887 1664.33 515.875 1667.28C524.417 1670.88 533.15 1674.02 541.906 1677.06C554.751 1681.52 567.417 1686.4 580.594 1689.84C580.685 1689.87 580.783 1689.82 580.875 1689.84C587.935 1691.58 595.11 1693.25 602.375 1693.88C613.786 1694.86 625.434 1694.15 636.562 1691.38C647.958 1688.54 659.019 1684.09 668.844 1677.59C671.032 1676.15 673.176 1674.64 675.25 1673.03C675.657 1672.72 676.084 1672.4 676.469 1672.06C678.028 1670.68 679.482 1669.03 680.844 1667.47C682.196 1665.92 683.601 1664.23 684.844 1662.59C690.847 1654.69 695.285 1645.32 697.094 1635.53C697.949 1630.9 698.205 1626.16 697.781 1621.47C697.7 1620.57 697.535 1619.01 697.344 1618.09C697.141 1617.13 696.786 1616.18 696.562 1615.22C696.051 1613.01 695.636 1610.82 694.938 1608.66C693.423 1603.97 691.131 1599.56 688.219 1595.59C685.546 1591.95 682.363 1588.73 678.812 1585.94C668.955 1578.19 656.672 1574.19 644.406 1572.34C642.943 1572.12 640.72 1572.08 637.969 1572.19Z" fill="#828280" opacity="1"/>
</g>
<path d="M511.317 1310.36L664.31 1334.06L664.19 1334.83L511.198 1311.13L511.317 1310.36Z" fill="none" opacity="1" stroke="#342a01" stroke-linecap="round" stroke-linejoin="round" stroke-width="21.8177"/>
<path d="M510.236 1338.36L663.229 1362.06L663.109 1362.83L510.116 1339.13L510.236 1338.36Z" fill="none" opacity="1" stroke="#342a01" stroke-linecap="round" stroke-linejoin="round" stroke-width="21.8177"/>
<path d="M508.109 1365.87L661.102 1389.57L660.982 1390.34L507.99 1366.64L508.109 1365.87Z" fill="none" opacity="1" stroke="#342a01" stroke-linecap="round" stroke-linejoin="round" stroke-width="21.8177"/>
<path d="M507.028 1393.87L660.021 1417.57L659.901 1418.34L506.909 1394.64L507.028 1393.87Z" fill="none" opacity="1" stroke="#342a01" stroke-linecap="round" stroke-linejoin="round" stroke-width="21.8177"/>
<path d="M507.155 1422.5L660.148 1446.19L660.029 1446.96L507.036 1423.27L507.155 1422.5Z" fill="none" opacity="1" stroke="#342a01" stroke-linecap="round" stroke-linejoin="round" stroke-width="21.8177"/>
<path d="M508.05 1450.8L661.043 1474.5L660.924 1475.27L507.931 1451.57L508.05 1450.8Z" fill="none" opacity="1" stroke="#342a01" stroke-linecap="round" stroke-linejoin="round" stroke-width="21.8177"/>
<path d="M508.888 1478.77L661.881 1502.47L661.762 1503.24L508.769 1479.54L508.888 1478.77Z" fill="none" opacity="1" stroke="#342a01" stroke-linecap="round" stroke-linejoin="round" stroke-width="21.8177"/>
<path d="M507.357 1533.67L660.35 1557.37L660.231 1558.14L507.238 1534.44L507.357 1533.67Z" fill="none" opacity="1" stroke="#342a01" stroke-linecap="round" stroke-linejoin="round" stroke-width="21.8177"/>
<path d="M509.784 1507.08L662.776 1530.78L662.657 1531.55L509.664 1507.85L509.784 1507.08Z" fill="none" opacity="1" stroke="#342a01" stroke-linecap="round" stroke-linejoin="round" stroke-width="21.8177"/>
</g>
<g opacity="1">
<path d="M4021.65 1190.81L4021.65 1190.81C4041.27 1190.81 4057.17 1206.72 4057.17 1226.33L4057.17 1227.07C4057.17 1246.68 4041.27 1262.59 4021.65 1262.59L4021.65 1262.59C4002.04 1262.59 3986.13 1246.68 3986.13 1227.07L3986.13 1226.33C3986.13 1206.72 4002.04 1190.81 4021.65 1190.81Z" fill="#abaaaa" opacity="1"/>
<path d="" fill="none" opacity="1"/>
</g>
<g opacity="1">
<path d="M4021.65 1190.81L4021.65 1190.81C4041.27 1190.81 4057.17 1206.72 4057.17 1226.33L4057.17 1227.07C4057.17 1246.68 4041.27 1262.59 4021.65 1262.59L4021.65 1262.59C4002.04 1262.59 3986.13 1246.68 3986.13 1227.07L3986.13 1226.33C3986.13 1206.72 4002.04 1190.81 4021.65 1190.81Z" fill="#abaaaa" opacity="1"/>
<path d="" fill="none" opacity="1"/>
</g>
<g opacity="1">
<g opacity="1">
<path d="M-64.7282 120.162L41.6071 120.162L41.6071 831.362L-64.7282 831.362L-64.7282 120.162Z" fill="#703d04" opacity="1"/>
<path d="M-64.7188 108.562C-71.1167 108.562-76.3125 113.758-76.3125 120.156C-76.2654 417.893-76.2969 318.661-76.2812 417.906C-76.271 482.88-76.2507 547.839-76.2188 612.812C-76.192 667.058-76.161 721.317-76.125 775.562C-76.1174 786.984-76.1013 798.391-76.0938 809.812C-76.0919 812.608-76.0956 815.423-76.0938 818.219C-76.0915 821.547-76.096 824.859-76.0938 828.188C-76.0932 829.011-76.0943 829.832-76.0938 830.656C-76.0937 830.772-76.1707 831.245-76.0938 831.344C-73.2361 835.014-70.658 838.96-67.5 842.375C-67.065 842.845-66.2589 842.595-65.625 842.688C-64.8005 842.808-63.8949 842.719-63.0625 842.719C-60.2933 842.717-57.5191 842.72-54.75 842.719C-43.1196 842.711-31.5054 842.695-19.875 842.688C-3.2601 842.676 13.3538 842.667 29.9688 842.656C32.7379 842.654 35.5121 842.658 38.2812 842.656C40.0718 842.655 41.9366 842.731 43.6875 842.312C46.7348 841.584 49.3885 839.723 51.0625 837.062C53.4174 833.32 52.8778 828.616 52.875 824.406C52.8741 823.017 52.8759 821.639 52.875 820.25C52.8682 810.064 52.8818 799.874 52.875 789.688C52.8488 750.331 52.8074 710.982 52.7812 671.625C52.6911 535.96 52.6345 400.29 52.5938 264.625C52.5829 228.509 52.5966 192.397 52.5938 156.281C52.593 147.021 52.5945 137.76 52.5938 128.5C52.5936 126.648 52.5939 124.79 52.5938 122.938C52.5936 121.386 52.6573 119.803 52.3125 118.281C52.0203 116.991 51.518 115.746 50.8125 114.625C50.288 113.792 49.6825 113.054 48.9688 112.375C47.471 110.951 45.5984 109.979 43.5938 109.5C41.447 108.987 38.8012 109.187 36.625 109.188C35.5173 109.188 34.4202 109.187 33.3125 109.188C31.0972 109.188 28.8716 109.187 26.6562 109.188C24.4409 109.188 22.2153 109.187 20 109.188C-7.24513 109.19 12.5033 109.182-61.7188 109.188C-62.6994 108.918-63.6524 108.562-64.7188 108.562ZM-53.1562 131.125C-15.9835 131.128-13.2414 131.123 6.71875 131.125C14.4724 131.126 22.2151 131.124 29.9688 131.125C30.1874 131.125 30.4064 131.125 30.625 131.125C30.6249 132.563 30.6251 133.999 30.625 135.438C30.6243 144.698 30.6257 153.958 30.625 163.219C30.6228 191.463 30.6335 219.724 30.625 247.969C30.587 374.374 30.5527 500.752 30.4688 627.156C30.4386 672.532 30.4052 717.936 30.375 763.312C30.3648 778.592 30.3539 793.845 30.3438 809.125C30.3413 812.77 30.3149 816.417 30.3125 820.062C29.6462 820.062 28.9788 820.063 28.3125 820.062C21.1127 820.058 13.9185 820.067 6.71875 820.062C-9.34232 820.052-25.4077 820.042-41.4688 820.031C-45.4348 820.029-49.4076 819.991-53.375 820C-53.3718 815.166-53.347 810.334-53.3438 805.5C-53.3326 788.753-53.323 771.997-53.3125 755.25C-53.2807 704.74-53.2749 654.228-53.25 603.719C-53.2188 540.432-53.1975 477.162-53.1875 413.875C-53.1726 319.631-53.1966 386.49-53.1562 131.125Z" fill="#a19f99" opacity="1"/>
</g>
<g opacity="1">
<path d="M73.7813 113.031L180.117 113.031L180.117 832.868L73.7813 832.868L73.7813 113.031Z" fill="#703d04" opacity="1"/>
<path d="M73.7812 101.438C67.3833 101.438 62.1875 106.633 62.1875 113.031C62.2347 414.384 62.2343 313.924 62.25 414.375C62.2603 480.138 62.2805 545.893 62.3125 611.656C62.3393 666.56 62.3389 721.471 62.375 776.375C62.3826 787.935 62.3986 799.503 62.4062 811.062C62.4081 813.892 62.4044 816.733 62.4062 819.562C62.4085 822.931 62.4353 826.287 62.4375 829.656C62.438 830.49 62.4369 831.323 62.4375 832.156C62.4376 832.274 62.3596 832.775 62.4375 832.875C65.2843 836.542 67.8184 840.465 70.9688 843.875C71.4084 844.351 72.2341 844.093 72.875 844.188C73.7024 844.31 74.6019 844.219 75.4375 844.219C78.2066 844.217 80.9809 844.221 83.75 844.219C95.3804 844.211 107.026 844.195 118.656 844.188C135.271 844.177 151.885 844.167 168.5 844.156C171.269 844.154 174.012 844.158 176.781 844.156C178.583 844.155 180.458 844.238 182.219 843.812C185.275 843.073 187.959 841.179 189.625 838.5C191.953 834.757 191.409 830.045 191.406 825.844C191.405 824.438 191.407 823.031 191.406 821.625C191.399 811.315 191.382 800.998 191.375 790.688C191.349 750.853 191.307 711.022 191.281 671.188C191.191 534.343 191.166 397.5 191.125 260.656C191.114 224.102 191.097 187.554 191.094 151C191.093 141.627 191.094 132.248 191.094 122.875C191.094 121.469 191.094 120.062 191.094 118.656C191.093 114.854 191.458 110.962 189.344 107.562C188.825 106.728 188.24 105.994 187.531 105.312C186.033 103.871 184.172 102.862 182.156 102.375C180.001 101.854 177.312 102.062 175.125 102.062C174.017 102.063 172.92 102.062 171.812 102.062C169.597 102.063 167.372 102.062 165.156 102.062C162.941 102.063 160.747 102.062 158.531 102.062C131.317 102.065 150.788 102.057 76.875 102.062C75.867 101.776 74.881 101.437 73.7812 101.438ZM85.375 124C122.475 124.003 125.269 123.998 145.219 124C152.972 124.001 160.746 123.999 168.5 124C168.709 124 168.916 124 169.125 124C169.125 125.5 169.125 127 169.125 128.5C169.124 137.873 169.126 147.252 169.125 156.625C169.123 185.212 169.134 213.788 169.125 242.375C169.087 370.315 169.053 498.248 168.969 626.188C168.939 672.115 168.905 718.042 168.875 763.969C168.865 779.434 168.854 794.91 168.844 810.375C168.841 814.103 168.846 817.834 168.844 821.562C168.167 821.562 167.489 821.563 166.812 821.562C159.613 821.558 152.419 821.567 145.219 821.562C129.158 821.552 113.092 821.542 97.0312 821.531C93.0706 821.529 89.1184 821.491 85.1562 821.5C85.1595 816.564 85.153 811.623 85.1562 806.688C85.1674 789.738 85.1769 772.793 85.1875 755.844C85.2196 704.28 85.2249 652.72 85.25 601.156C85.2812 537.087 85.3025 473.006 85.3125 408.938C85.3274 313.959 85.3347 381.554 85.375 124Z" fill="#a19f99" opacity="1"/>
</g>
<g opacity="1">
<path d="M211.176 118.843L317.511 118.843L317.511 844.552L211.176 844.552L211.176 118.843Z" fill="#703d04" opacity="1"/>
<path d="M211.188 107.25C204.79 107.25 199.594 112.446 199.594 118.844C199.641 422.655 199.609 321.386 199.625 422.656C199.635 488.956 199.655 555.263 199.688 621.562C199.714 676.914 199.745 732.242 199.781 787.594C199.789 799.248 199.805 810.908 199.812 822.562C199.814 825.415 199.811 828.272 199.812 831.125C199.815 834.521 199.81 837.916 199.812 841.312C199.813 842.153 199.812 843.003 199.812 843.844C199.813 843.962 199.734 844.43 199.812 844.531C202.652 848.196 205.199 852.125 208.344 855.531C208.787 856.011 209.636 855.779 210.281 855.875C211.111 855.999 212.006 855.907 212.844 855.906C215.613 855.904 218.387 855.908 221.156 855.906C232.787 855.899 244.401 855.883 256.031 855.875C272.646 855.864 289.26 855.855 305.875 855.844C308.644 855.842 311.418 855.846 314.188 855.844C315.996 855.843 317.857 855.931 319.625 855.5C322.688 854.753 325.371 852.847 327.031 850.156C329.342 846.412 328.784 841.664 328.781 837.469C328.78 836.051 328.782 834.636 328.781 833.219C328.774 822.824 328.788 812.425 328.781 802.031C328.755 761.872 328.714 721.722 328.688 681.562C328.597 543.602 328.541 405.617 328.5 267.656C328.489 230.804 328.503 193.977 328.5 157.125C328.499 147.676 328.501 138.199 328.5 128.75C328.5 127.333 328.5 125.917 328.5 124.5C328.5 120.702 328.879 116.805 326.781 113.406C326.022 112.177 325.026 111.091 323.875 110.219C322.341 109.057 320.519 108.338 318.625 108.031C317.198 107.8 315.635 107.875 314.188 107.875C312.526 107.875 310.88 107.875 309.219 107.875C307.003 107.875 304.778 107.875 302.562 107.875C300.347 107.875 298.122 107.875 295.906 107.875C268.692 107.877 288.19 107.869 214.281 107.875C213.273 107.589 212.287 107.25 211.188 107.25ZM222.75 129.812C259.923 129.815 262.665 129.811 282.625 129.812C290.379 129.813 298.121 129.812 305.875 129.812C306.094 129.813 306.313 129.812 306.531 129.812C306.531 131.352 306.531 132.898 306.531 134.438C306.531 143.887 306.532 153.332 306.531 162.781C306.529 191.602 306.54 220.429 306.531 249.25C306.493 378.233 306.459 507.204 306.375 636.188C306.345 682.489 306.311 728.792 306.281 775.094C306.271 790.685 306.26 806.283 306.25 821.875C306.248 825.666 306.221 829.459 306.219 833.25C305.552 833.25 304.885 833.25 304.219 833.25C297.019 833.245 289.825 833.255 282.625 833.25C266.564 833.24 250.499 833.229 234.438 833.219C230.472 833.216 226.498 833.178 222.531 833.188C222.535 828.174 222.559 823.17 222.562 818.156C222.574 801.068 222.583 783.963 222.594 766.875C222.626 714.891 222.631 662.921 222.656 610.938C222.688 546.346 222.709 481.748 222.719 417.156C222.734 321.373 222.71 389.764 222.75 129.812Z" fill="#a19f99" opacity="1"/>
</g>
<g opacity="1">
<path d="M349.686 103.325L456.021 103.325L456.021 837.847L349.686 837.847L349.686 103.325Z" fill="#703d04" opacity="1"/>
<path d="M349.688 91.75C343.29 91.75 338.094 96.9146 338.094 103.312C338.141 409.423 338.141 307.401 338.156 409.438C338.167 476.561 338.187 543.689 338.219 610.812C338.246 667.281 338.245 723.75 338.281 780.219C338.289 792.015 338.305 803.798 338.312 815.594C338.314 818.481 338.311 821.363 338.312 824.25C338.315 827.688 338.341 831.125 338.344 834.562C338.344 835.413 338.343 836.274 338.344 837.125C338.344 837.245 338.264 837.741 338.344 837.844C341.172 841.506 343.675 845.411 346.812 848.812C347.26 849.298 348.129 849.058 348.781 849.156C349.614 849.282 350.503 849.188 351.344 849.188C354.113 849.186 356.887 849.189 359.656 849.188C370.733 849.18 381.798 849.195 392.875 849.188C410.044 849.176 427.206 849.136 444.375 849.125C447.144 849.123 449.918 849.127 452.688 849.125C454.507 849.124 456.378 849.22 458.156 848.781C461.228 848.024 463.911 846.115 465.562 843.406C467.847 839.661 467.315 834.875 467.312 830.688C467.312 829.253 467.313 827.81 467.312 826.375C467.306 815.854 467.288 805.333 467.281 794.812C467.255 754.165 467.214 713.522 467.188 672.875C467.097 533.239 467.041 393.605 467 253.969C466.989 216.669 467.003 179.362 467 142.062C466.999 132.498 467.001 122.939 467 113.375C467 111.94 467 110.497 467 109.062C467 105.271 467.385 101.336 465.312 97.9375C464.561 96.7051 463.583 95.628 462.438 94.75C460.899 93.5707 459.064 92.8132 457.156 92.5C455.723 92.2647 454.142 92.3437 452.688 92.3438C451.026 92.3439 449.38 92.3436 447.719 92.3438C445.503 92.3439 443.278 92.3436 441.062 92.3438C438.847 92.3439 436.622 92.3436 434.406 92.3438C407.14 92.3458 427.056 92.3381 352.625 92.3438C351.663 92.0847 350.732 91.75 349.688 91.75ZM361.281 114.281C398.382 114.284 401.175 114.311 421.125 114.312C428.879 114.313 436.621 114.312 444.375 114.312C444.594 114.313 444.813 114.312 445.031 114.312C445.031 115.908 445.031 117.498 445.031 119.094C445.031 128.658 445.032 138.248 445.031 147.812C445.029 176.983 445.04 206.142 445.031 235.312C444.993 365.862 444.959 496.419 444.875 626.969C444.845 673.833 444.812 720.698 444.781 767.562C444.771 783.343 444.76 799.125 444.75 814.906C444.747 818.792 444.753 822.677 444.75 826.562C444.073 826.562 443.395 826.563 442.719 826.562C435.519 826.558 428.325 826.536 421.125 826.531C405.064 826.521 388.999 826.511 372.938 826.5C368.967 826.497 365.003 826.491 361.031 826.5C361.035 821.373 361.059 816.252 361.062 811.125C361.074 793.83 361.083 776.545 361.094 759.25C361.126 706.635 361.131 654.021 361.156 601.406C361.188 536.03 361.209 470.657 361.219 405.281C361.234 308.29 361.241 377.838 361.281 114.281Z" fill="#a19f99" opacity="1"/>
</g>
<g opacity="1">
<path d="M-70.4801 232.758L454.966 232.758C466.691 232.758 476.196 242.263 476.196 253.989L476.196 253.989C476.196 265.714 466.691 275.219 454.966 275.219L-70.4801 275.219C-82.2055 275.219-91.7107 265.714-91.7107 253.989L-91.7107 253.989C-91.7107 242.263-82.2055 232.758-70.4801 232.758Z" fill="#9b5a11" opacity="1"/>
<path d="M-70.4688 232.75C-70.4688 232.75-77.0195 233.508-80 235C-82.4364 236.22-84.6361 237.926-86.4375 239.969C-84.6361 237.926-70.4687 232.75-70.4688 232.75ZM456.406 232.812C458.075 232.926 459.707 233.283 461.281 233.781C459.716 233.281 458.091 232.927 456.406 232.812ZM461.281 233.781C461.773 233.938 462.242 234.152 462.719 234.344C462.239 234.152 461.775 233.938 461.281 233.781ZM462.719 234.344C463.781 234.767 464.801 235.29 465.781 235.875C464.804 235.285 463.785 234.773 462.719 234.344ZM465.781 235.875C466.255 236.161 466.738 236.43 467.188 236.75C466.733 236.428 466.26 236.161 465.781 235.875ZM467.188 236.75C468.363 237.581 469.448 238.51 470.438 239.562C469.453 238.516 468.361 237.586 467.188 236.75ZM470.719 239.812C470.99 240.111 471.183 240.469 471.438 240.781C471.184 240.467 470.989 240.111 470.719 239.812ZM471.438 240.781C472.188 241.71 472.883 242.696 473.469 243.75C472.875 242.702 472.197 241.715 471.438 240.781ZM473.469 243.75C473.771 244.284 474.026 244.847 474.281 245.406C474.147 245.102 474.119 244.768 473.969 244.469C473.837 244.205 473.611 244.007 473.469 243.75ZM474.281 245.406C474.834 246.661 475.331 247.93 475.625 249.25C475.315 247.912 474.845 246.643 474.281 245.406ZM-88.5 242.812C-88.8423 243.363-89.1194 243.927-89.4062 244.5C-89.1209 243.929-88.8391 243.359-88.5 242.812ZM-89.4062 244.5C-89.7101 245.107-90.0074 245.714-90.25 246.344C-90.0077 245.714-89.7111 245.109-89.4062 244.5ZM-90.25 246.344C-90.4128 246.767-90.5529 247.195-90.6875 247.625C-90.5527 247.196-90.4124 246.765-90.25 246.344ZM-90.6875 247.625C-90.9363 248.418-91.1269 249.218-91.2812 250.031C-91.1292 249.226-90.9337 248.412-90.6875 247.625ZM-91.2812 250.031C-91.356 250.427-91.4479 250.82-91.5 251.219C-91.4473 250.819-91.3566 250.428-91.2812 250.031ZM-91.5 251.219C-91.6365 252.255-91.6724 253.299-91.6562 254.344C-91.6741 253.299-91.6355 252.257-91.5 251.219ZM475.688 249.562C476.038 251.251 476.215 252.979 476.188 254.719C476.277 252.948 476.047 251.234 475.688 249.562ZM476.188 254.719C475.954 259.334 474.326 263.653 471.625 267.125C474.41 263.626 476.115 259.275 476.188 254.719ZM471.625 267.125C470.232 268.874 468.576 270.405 466.719 271.656C468.601 270.4 470.255 268.886 471.625 267.125ZM-91.6875 254.75C-91.646 255.956-91.4971 257.155-91.25 258.344C-91.4991 257.154-91.6437 255.961-91.6875 254.75ZM-91.0625 259C-90.8176 260.013-90.5227 261.023-90.125 262C-90.5202 261.028-90.8168 260.011-91.0625 259ZM-90.125 262C-89.9599 262.406-89.7537 262.79-89.5625 263.188C-89.7526 262.793-89.961 262.403-90.125 262ZM-89.5625 263.188C-89.3158 263.7-89.1035 264.223-88.8125 264.719C-88.6906 264.926-88.5351 265.109-88.4062 265.312C-88.8436 264.621-89.2123 263.915-89.5625 263.188ZM-88.4062 265.312C-88.1706 265.685-87.9172 266.046-87.6562 266.406C-87.9165 266.047-88.1688 265.687-88.4062 265.312ZM-87.6562 266.406C-87.1377 267.122-86.5715 267.791-85.9688 268.438C-86.5753 267.788-87.146 267.111-87.6562 266.406ZM-85.9688 268.438C-85.8006 268.618-85.6756 268.824-85.5 269C-85.389 269.111-85.2383 269.173-85.125 269.281C-85.4118 269.006-85.6977 268.728-85.9688 268.438ZM-85.125 269.281C-84.9072 269.49-84.7266 269.738-84.5 269.938C-83.8754 270.488-83.1539 270.902-82.4688 271.375C-83.3985 270.733-84.307 270.064-85.125 269.281ZM-82.4688 271.375C-82.0355 271.674-81.6415 272.015-81.1875 272.281C-81.6404 272.016-82.0367 271.673-82.4688 271.375ZM-81.1875 272.281C-79.7962 273.096-78.3214 273.771-76.7812 274.25C-78.3201 273.771-79.8009 273.094-81.1875 272.281ZM-76.7812 274.25C-75.2607 274.723-73.7556 274.972-72.2188 275.094C-73.7487 274.973-75.2656 274.721-76.7812 274.25ZM460.625 274.469C458.894 274.943 457.105 275.072 455.312 275.156C457.088 275.093 458.867 274.95 460.625 274.469ZM455.312 275.156C454.177 275.197 453.031 275.219 451.875 275.219C450.51 275.219 449.146 275.219 447.781 275.219C450.265 275.219 452.805 275.274 455.312 275.156ZM-71.0312 275.125C-70.1694 275.163-69.3172 275.219-68.4375 275.219C-68.0939 275.219-67.7498 275.219-67.4062 275.219C-68.6375 275.219-69.8266 275.178-71.0312 275.125Z" fill="none" opacity="1"/>
</g>
<g opacity="1">
<path d="M-75.2971 409.197L450.149 409.197C461.874 409.197 471.379 418.702 471.379 430.428L471.379 430.428C471.379 442.153 461.874 451.658 450.149 451.658L-75.2971 451.658C-87.0224 451.658-96.5277 442.153-96.5277 430.428L-96.5277 430.428C-96.5277 418.702-87.0224 409.197-75.2971 409.197Z" fill="#9b5a11" opacity="1"/>
<path d="" fill="none" opacity="1"/>
</g>
<g opacity="1">
<path d="M-70.5137 607.203L454.557 587.349C466.274 586.906 476.132 596.045 476.575 607.762L476.575 607.762C477.018 619.479 467.878 629.337 456.161 629.78L-68.9093 649.634C-80.6262 650.077-90.4838 640.938-90.9269 629.221L-90.9269 629.221C-91.3699 617.504-82.2306 607.646-70.5137 607.203Z" fill="#9b5a11" opacity="1"/>
<path d="" fill="none" opacity="1"/>
</g>
<g opacity="1">
<path d="M-3.4628 223.602L-3.4628 223.602C12.7034 223.602 25.8088 236.708 25.8088 252.874L25.8088 253.48C25.8088 269.646 12.7034 282.751-3.4628 282.751L-3.4628 282.751C-19.629 282.751-32.7344 269.646-32.7344 253.48L-32.7344 252.874C-32.7344 236.708-19.629 223.602-3.4628 223.602Z" fill="#abaaaa" opacity="1"/>
<path d="" fill="none" opacity="1"/>
</g>
<g opacity="1">
<path d="M416.772 221.113L416.772 221.113C432.939 221.113 446.044 234.218 446.044 250.384L446.044 250.99C446.044 267.156 432.939 280.262 416.772 280.262L416.772 280.262C400.606 280.262 387.501 267.156 387.501 250.99L387.501 250.384C387.501 234.218 400.606 221.113 416.772 221.113Z" fill="#abaaaa" opacity="1"/>
<path d="" fill="none" opacity="1"/>
</g>
<g opacity="1">
<path d="M-8.30173 397.993L-8.30173 397.993C7.86452 397.993 20.9698 411.099 20.9698 427.265L20.9698 427.871C20.9698 444.037 7.86452 457.142-8.30173 457.142L-8.30173 457.142C-24.468 457.142-37.5733 444.037-37.5733 427.871L-37.5733 427.265C-37.5733 411.099-24.468 397.993-8.30173 397.993Z" fill="#abaaaa" opacity="1"/>
<path d="" fill="none" opacity="1"/>
</g>
<g opacity="1">
<path d="M401.878 400.652L401.878 400.652C418.045 400.652 431.15 413.758 431.15 429.924L431.15 430.53C431.15 446.696 418.045 459.801 401.878 459.801L401.878 459.801C385.712 459.801 372.607 446.696 372.607 430.53L372.607 429.924C372.607 413.758 385.712 400.652 401.878 400.652Z" fill="#abaaaa" opacity="1"/>
<path d="" fill="none" opacity="1"/>
</g>
<g opacity="1">
<path d="M-5.4042 595.262L-5.4042 595.262C10.762 595.262 23.8674 608.367 23.8674 624.533L23.8674 625.139C23.8674 641.305 10.762 654.41-5.4042 654.41L-5.4042 654.41C-21.5704 654.41-34.6758 641.305-34.6758 625.139L-34.6758 624.533C-34.6758 608.367-21.5704 595.262-5.4042 595.262Z" fill="#abaaaa" opacity="1"/>
<path d="" fill="none" opacity="1"/>
</g>
<g opacity="1">
<path d="M402.959 583.878L402.959 583.878C419.125 583.878 432.231 596.983 432.231 613.149L432.231 613.755C432.231 629.921 419.125 643.027 402.959 643.027L402.959 643.027C386.793 643.027 373.688 629.921 373.688 613.755L373.688 613.149C373.688 596.983 386.793 583.878 402.959 583.878Z" fill="#abaaaa" opacity="1"/>
<path d="" fill="none" opacity="1"/>
</g>
</g>
<g opacity="1">
<g opacity="1">
<path d="M1753.35 1968.74L1753.35 1968.74C1789.77 1971.18 1816.81 1996.5 1813.73 2025.29L1775.89 2206.02C1772.82 2234.82 1762.74 2223.98 1726.31 2221.55L1726.31 2221.55C1689.89 2219.11 1703.07 2209.35 1706.14 2180.55C1706.14 2180.55 1698.02 2122.55 1694.95 2105.06C1684.84 2047.39 1681.82 2016.48 1681.82 2016.48C1684.9 1987.68 1716.92 1966.31 1753.35 1968.74Z" fill="#f1c390" opacity="1"/>
<path d="" fill="none" opacity="1"/>
</g>
<g opacity="1">
<path d="M1718.29 1663.39L1830.79 1671.26C1841.89 1672.03 1850.21 1681 1849.39 1691.27L1824.83 1998.93C1824.01 2009.21 1814.35 2016.91 1803.26 2016.14L1690.75 2008.27C1679.66 2007.5 1671.34 1998.53 1672.16 1988.26L1696.72 1680.6C1697.54 1670.32 1707.2 1662.62 1718.29 1663.39Z" fill="#71491c" opacity="1"/>
<path d="" fill="none" opacity="1"/>
</g>
<g opacity="1">
<path d="M1673.07 1991.42L1827.18 2001.2C1832.8 2001.56 1834.75 2009.81 1831.53 2019.63L1831.53 2019.63C1828.31 2029.46 1821.15 2037.13 1815.53 2036.78L1661.42 2027C1655.8 2026.64 1653.85 2018.39 1657.07 2008.56L1657.07 2008.56C1660.28 1998.74 1667.45 1991.06 1673.07 1991.42Z" fill="#582f01" opacity="1"/>
<path d="" fill="none" opacity="1"/>
</g>
<g opacity="1">
<path d="M2150.07 1970.3L2150.07 1970.3C2115.69 1975.92 2091.62 2004.32 2096.31 2033.75L2143.3 2216.84C2147.99 2246.26 2156.87 2234.23 2191.26 2228.61L2191.26 2228.61C2225.64 2223 2212.55 2214.05 2207.86 2184.63C2207.86 2184.63 2211.99 2124.15 2213.82 2105.86C2219.86 2045.54 2220.83 2013.41 2220.83 2013.41C2216.13 1983.99 2184.46 1964.69 2150.07 1970.3Z" fill="#f1c390" opacity="1"/>
<path d="" fill="none" opacity="1"/>
</g>
<g opacity="1">
<path d="M2167.35 1667.86L2062.26 1691.99C2051.91 1694.37 2044.51 1704.88 2045.75 1715.47L2082.82 2032.45C2084.06 2043.04 2093.46 2049.69 2103.82 2047.31L2208.9 2023.19C2219.26 2020.81 2226.65 2010.29 2225.41 1999.7L2188.34 1682.73C2187.1 1672.14 2177.7 1665.48 2167.35 1667.86Z" fill="#71491c" opacity="1"/>
<path d="" fill="none" opacity="1"/>
</g>
<g opacity="1">
<path d="M2224.7 2003.13L2080.72 2035.14C2075.47 2036.31 2074.02 2045.18 2077.48 2054.96L2077.48 2054.96C2080.95 2064.74 2088.01 2071.72 2093.27 2070.55L2237.24 2038.54C2242.5 2037.37 2243.95 2028.5 2240.48 2018.72L2240.48 2018.72C2237.02 2008.94 2229.95 2001.96 2224.7 2003.13Z" fill="#582f01" opacity="1"/>
<path d="" fill="none" opacity="1"/>
</g>
<g opacity="1">
<path d="M1650.37 2218.98L1692.88 2207.12L1687.1 2169.24C1748.71 2209.98 1820.36 2134 1822.84 2173.13L1804.48 2195.72C1806.96 2234.85 1779.04 2270.77 1742.13 2275.95L1636.9 2290.72C1599.99 2295.91 1568.06 2268.38 1565.58 2229.25L1565.58 2229.25C1563.1 2190.12 1613.46 2224.16 1650.37 2218.98Z" fill="#71491c" opacity="1"/>
<path d="" fill="none" opacity="1"/>
</g>
<g opacity="1">
<path d="M2281.53 2218.13L2234.03 2217L2234.55 2181.62C2174.43 2232.11 2085.95 2179.81 2089.18 2215.59L2112.32 2231.79C2115.54 2267.57 2150.96 2293.63 2191.43 2290.01L2306.81 2279.68C2347.28 2276.06 2377.47 2244.12 2374.25 2208.34L2374.25 2208.34C2371.03 2172.57 2322 2214.51 2281.53 2218.13Z" fill="#71491c" opacity="1"/>
<path d="" fill="none" opacity="1"/>
</g>
</g>
<g opacity="1">
<g opacity="1">
<path d="M1655.1 914.213L1764.77 1002.61C1772.3 1008.68 1762.77 1032.99 1743.49 1056.91L1483.85 1379.04C1464.57 1402.96 1442.84 1417.43 1435.32 1411.36L1325.64 1322.96C1318.12 1316.9 1327.64 1292.59 1346.92 1268.67L1606.56 946.537C1625.84 922.617 1647.57 908.145 1655.1 914.213Z" fill="#dfcfbd" opacity="1"/>
<path d="" fill="none" opacity="1"/>
</g>
<path d="M1350.87 1331.72L1350.87 1331.72C1388.74 1326.17 1424.11 1353.58 1429.87 1392.94L1435.4 1430.73C1441.16 1470.09 1415.13 1506.49 1377.26 1512.03L1377.26 1512.03C1339.39 1517.57 1304.02 1490.16 1298.26 1450.81L1292.73 1413.01C1286.97 1373.66 1313 1337.26 1350.87 1331.72Z" fill="#f1c390" opacity="1"/>
<g opacity="1">
<path d="M1301.25 1253.58L1272.05 1313.38C1270.05 1317.48 1277.64 1327.77 1289.01 1336.36L1442.09 1452.01C1453.46 1460.6 1464.3 1464.24 1466.3 1460.13L1495.5 1400.34C1497.5 1396.23 1489.91 1385.95 1478.54 1377.36L1325.46 1261.7C1314.09 1253.11 1303.25 1249.48 1301.25 1253.58Z" fill="#d5c2ad" opacity="1"/>
<path d="" fill="none" opacity="1"/>
</g>
</g>
<g opacity="1">
<path d="M1941.88 900.057L1941.88 900.057C2093.84 900.057 2217.04 985.102 2217.04 1090.01L2163.58 1612.85C2163.58 1717.76 2097.83 1738.01 1945.87 1738.01L1901.64 1734.87C1793.57 1734.87 1827.7 1691.28 1782.69 1628.7C1764.41 1603.29 1739.69 1612.37 1730.48 1602.18C1721.26 1591.99 1666.72 1090.01 1666.72 1090.01C1666.72 985.102 1789.91 900.057 1941.88 900.057Z" fill="#f6bf82" opacity="1"/>
<g opacity="1">
<path d="M1707.29 904.758L2180.26 904.758C2212.72 904.758 2239.04 949.179 2239.04 1003.97L2164.99 1651.47C2164.99 1706.27 2005.98 1766.74 1973.52 1766.74L1882.1 1788.88C1849.63 1788.88 1722.17 1711.04 1722.17 1656.24L1648.51 1003.97C1648.51 949.179 1674.83 904.758 1707.29 904.758Z" fill="#dfcfbd" opacity="1"/>
<path d="" fill="none" opacity="1"/>
</g>
<g opacity="1">
<path d="M2130.59 986.925L2234.86 892.222C2242.02 885.721 2264.57 898.888 2285.22 921.631L2563.39 1227.91C2584.04 1250.65 2594.98 1274.36 2587.83 1280.86L2483.55 1375.56C2476.39 1382.06 2453.85 1368.89 2433.19 1346.15L2155.03 1039.87C2134.37 1017.13 2123.43 993.425 2130.59 986.925Z" fill="#dfcfbd" opacity="1"/>
<path d="M2238.94 890.594C2240.43 890.462 2241.92 890.696 2243.41 891.031C2241.92 890.692 2240.44 890.462 2238.94 890.594ZM2243.41 891.031C2243.97 891.16 2244.51 891.332 2245.06 891.5C2244.51 891.329 2243.97 891.159 2243.41 891.031ZM2245.06 891.5C2245.81 891.731 2246.56 891.969 2247.28 892.25C2247.02 892.15 2246.77 892.001 2246.5 891.906C2246.04 891.742 2245.54 891.646 2245.06 891.5ZM2247.28 892.25C2248.73 892.797 2250.11 893.524 2251.5 894.219C2250.5 893.716 2249.54 893.122 2248.5 892.688C2248.11 892.525 2247.68 892.405 2247.28 892.25ZM2251.5 894.219C2252.62 894.778 2253.76 895.278 2254.84 895.906C2253.76 895.274 2252.62 894.779 2251.5 894.219ZM2254.84 895.906C2256.16 896.675 2257.42 897.503 2258.69 898.344C2257.42 897.503 2256.16 896.671 2254.84 895.906ZM2258.69 898.344C2259.61 898.955 2260.54 899.549 2261.44 900.188C2261.24 900.05 2261.07 899.886 2260.88 899.75C2260.17 899.256 2259.41 898.824 2258.69 898.344ZM2261.44 900.188C2263.43 901.601 2265.31 903.153 2267.22 904.688C2265.52 903.318 2263.87 901.9 2262.09 900.625C2261.88 900.472 2261.65 900.339 2261.44 900.188ZM2267.22 904.688C2268.54 905.749 2269.91 906.733 2271.19 907.844C2269.91 906.732 2268.54 905.749 2267.22 904.688ZM2280.03 916.156C2283.7 919.862 2287.15 923.768 2290.66 927.625C2290.29 927.221 2289.93 926.81 2289.56 926.406C2286.42 922.948 2283.32 919.479 2280.03 916.156ZM2130.59 986.938C2130.59 986.938 2128.59 997.24 2130.06 1001.59C2131.44 1005.65 2133.39 1009.51 2135.5 1013.25C2133.19 1008.74 2130.59 986.938 2130.59 986.938ZM2135.5 1013.25C2135.53 1013.3 2135.57 1013.48 2135.59 1013.53C2135.78 1013.87 2136.03 1014.17 2136.22 1014.5C2135.98 1014.09 2135.74 1013.67 2135.5 1013.25ZM2136.22 1014.5C2136.53 1015.04 2136.8 1015.62 2137.12 1016.16C2137.95 1017.53 2138.9 1018.82 2139.78 1020.16C2138.56 1018.29 2137.33 1016.43 2136.22 1014.5ZM2139.78 1020.16C2140.73 1021.61 2141.65 1023.08 2142.66 1024.5C2141.65 1023.08 2140.73 1021.61 2139.78 1020.16ZM2142.66 1024.5C2144.09 1026.51 2145.6 1028.47 2147.12 1030.41C2145.6 1028.46 2144.09 1026.51 2142.66 1024.5ZM2149.22 1033.12C2149.51 1033.47 2149.77 1033.84 2150.06 1034.19C2154.35 1039.33 2158.95 1044.22 2163.47 1049.16C2158.66 1043.87 2153.75 1038.65 2149.22 1033.12ZM2553.59 1217.12C2558.34 1222.36 2563.2 1227.53 2567.75 1232.94C2567.54 1232.69 2567.36 1232.43 2567.16 1232.19C2562.78 1227.05 2558.14 1222.11 2553.59 1217.12ZM2567.75 1232.94C2568.57 1233.91 2569.33 1234.92 2570.12 1235.91C2569.52 1235.15 2568.97 1234.34 2568.34 1233.59C2568.16 1233.37 2567.94 1233.16 2567.75 1232.94ZM2570.12 1235.91C2571.68 1237.83 2573.23 1239.78 2574.69 1241.78C2573.22 1239.78 2571.68 1237.84 2570.12 1235.91ZM2574.69 1241.78C2575.55 1242.96 2576.36 1244.2 2577.19 1245.41C2576.36 1244.19 2575.56 1242.97 2574.69 1241.78ZM2577.19 1245.41C2578.5 1247.32 2579.77 1249.24 2580.97 1251.22C2580.52 1250.48 2580.12 1249.7 2579.66 1248.97C2578.88 1247.75 2578 1246.6 2577.19 1245.41ZM2580.97 1251.22C2581.73 1252.47 2582.47 1253.74 2583.19 1255.03C2582.81 1254.34 2582.49 1253.62 2582.09 1252.94C2581.75 1252.35 2581.32 1251.8 2580.97 1251.22ZM2583.19 1255.03C2583.73 1256.01 2584.27 1257 2584.78 1258C2584.27 1256.99 2583.73 1256.02 2583.19 1255.03ZM2584.78 1258C2585.58 1259.57 2586.26 1261.19 2586.94 1262.81C2586.26 1261.19 2585.58 1259.57 2584.78 1258ZM2586.94 1262.81C2587.39 1263.89 2587.9 1264.96 2588.28 1266.06C2588.17 1265.74 2588.09 1265.42 2587.97 1265.09C2587.68 1264.31 2587.26 1263.58 2586.94 1262.81ZM2588.41 1266.44C2588.62 1267.09 2588.82 1267.74 2589 1268.41C2588.89 1268.03 2588.79 1267.6 2588.69 1267.25C2588.6 1266.97 2588.5 1266.71 2588.41 1266.44ZM2589.28 1269.47C2589.66 1271 2589.96 1272.78 2590 1274.53C2589.97 1272.79 2589.69 1271.08 2589.28 1269.47ZM2590 1274.53C2590.01 1275.27 2589.93 1275.99 2589.81 1276.69C2589.93 1275.97 2590.02 1275.28 2590 1274.53ZM2589.81 1276.69C2589.76 1277.01 2589.74 1277.34 2589.66 1277.66C2589.74 1277.34 2589.76 1277.01 2589.81 1276.69ZM2589.66 1277.66C2589.38 1278.68 2588.96 1279.65 2588.25 1280.44C2588.97 1279.63 2589.38 1278.67 2589.66 1277.66ZM2427.75 1340.16C2428.12 1340.56 2428.48 1340.97 2428.84 1341.38C2431.98 1344.83 2435.09 1348.3 2438.38 1351.62C2434.71 1347.92 2431.25 1344.01 2427.75 1340.16ZM2447.22 1359.94C2448.5 1361.05 2449.87 1362.03 2451.19 1363.09C2449.87 1362.03 2448.5 1361.05 2447.22 1359.94ZM2451.19 1363.09C2452.89 1364.46 2454.54 1365.88 2456.31 1367.16C2456.52 1367.31 2456.76 1367.44 2456.97 1367.59C2454.97 1366.18 2453.09 1364.63 2451.19 1363.09ZM2456.97 1367.59C2457.16 1367.73 2457.34 1367.9 2457.53 1368.03C2458.29 1368.56 2459.1 1369.02 2459.88 1369.53C2458.9 1368.89 2457.91 1368.26 2456.97 1367.59ZM2459.88 1369.53C2461.1 1370.34 2462.33 1371.14 2463.59 1371.88C2462.33 1371.13 2461.1 1370.34 2459.88 1369.53ZM2463.59 1371.88C2464.65 1372.49 2465.75 1372.98 2466.84 1373.53C2465.75 1372.98 2464.65 1372.49 2463.59 1371.88ZM2466.84 1373.53C2467.87 1374.05 2468.85 1374.65 2469.91 1375.09C2470.3 1375.26 2470.75 1375.37 2471.16 1375.53C2469.67 1374.97 2468.26 1374.25 2466.84 1373.53ZM2471.16 1375.53C2471.41 1375.63 2471.65 1375.78 2471.91 1375.88C2472.37 1376.04 2472.87 1376.14 2473.34 1376.28C2472.6 1376.05 2471.87 1375.81 2471.16 1375.53ZM2473.34 1376.28C2473.9 1376.45 2474.43 1376.62 2475 1376.75C2474.44 1376.62 2473.89 1376.45 2473.34 1376.28ZM2475 1376.75C2476.48 1377.09 2478 1377.32 2479.5 1377.19C2478 1377.32 2476.49 1377.09 2475 1376.75Z" fill="none" opacity="1"/>
</g>
<g opacity="1">
<path d="M1688.09 899.432L1836.57 899.432C1858.32 899.432 1875.96 928.032 1875.96 963.311L1875.96 1550.71C1875.96 1585.98 1858.32 1614.58 1836.57 1614.58L1715.48 1615.27C1693.72 1615.27 1692.84 1586.5 1692.84 1551.22L1648.71 963.311C1648.71 928.032 1666.34 899.432 1688.09 899.432Z" fill="#ba8851" opacity="1"/>
<path d="" fill="none" opacity="1"/>
</g>
<g opacity="1">
<path d="M2047.82 901.064L2196.3 901.064C2218.05 901.064 2235.68 929.18 2235.68 963.862L2186.87 1564.3C2186.87 1598.98 2101.83 1595.39 2080.08 1595.39L2047.82 1604.12C2026.07 1604.12 2008.44 1576.01 2008.44 1541.32L2008.44 963.862C2008.44 929.18 2026.07 901.064 2047.82 901.064Z" fill="#ba8851" opacity="1"/>
<path d="" fill="none" opacity="1"/>
</g>
<path d="M2539.52 1258.14L2539.52 1258.14C2577.79 1258.14 2608.82 1290.39 2608.82 1330.16L2608.82 1368.36C2608.82 1408.13 2577.79 1440.38 2539.52 1440.38L2539.52 1440.38C2501.24 1440.38 2470.21 1408.13 2470.21 1368.36L2470.21 1330.16C2470.21 1290.39 2501.24 1258.14 2539.52 1258.14Z" fill="#f1c390" opacity="1"/>
<g opacity="1">
<path d="M1944.62 896.546L1944.62 896.546C1958.38 896.546 1969.54 907.703 1969.54 921.465L1969.54 1065.16C1969.54 1078.93 1958.38 1090.08 1944.62 1090.08L1944.62 1090.08C1930.85 1090.08 1919.7 1078.93 1919.7 1065.16L1919.7 921.465C1919.7 907.703 1930.85 896.546 1944.62 896.546Z" fill="#c8b7a3" opacity="1"/>
<path d="" fill="none" opacity="1"/>
</g>
<g opacity="1">
<path d="M2405.71 1374.85L2459.01 1414.69C2462.67 1417.42 2474.19 1411.88 2484.75 1402.32L2626.93 1273.49C2637.49 1263.93 2643.08 1253.95 2639.42 1251.22L2586.12 1211.39C2582.47 1208.65 2570.94 1214.19 2560.38 1223.76L2418.2 1352.58C2407.65 1362.15 2402.05 1372.12 2405.71 1374.85Z" fill="#d5c2ad" opacity="1"/>
<path d="" fill="none" opacity="1"/>
</g>
<g opacity="1">
<path d="M1632.6 1669.03L2236.04 1669.03C2258.05 1669.03 2276.4 1709.83 2241.88 1715.63C2207.36 1721.44 2194.23 1714.09 2194.23 1714.09C2164.93 1698.92 2216.64 1714.82 2194.63 1714.82L1637.89 1718.32C1615.87 1718.32 1633.27 1722.18 1633.27 1699.55L1620.78 1697.4C1620.78 1674.76 1610.59 1669.03 1632.6 1669.03Z" fill="#582f01" opacity="1"/>
<path d="" fill="none" opacity="1"/>
</g>
</g>
<g opacity="1">
<g opacity="1">
<path d="M1087.95 240.366C1087.5 272.105 1085.97 303.9 1087.76 335.591C1090.54 384.655 1097.02 433.459 1099.96 482.514C1104.93 565.738 1108.28 649.097 1108.86 732.445C1109.17 777.015 1109.47 821.585 1109.78 866.154C1109.86 877.665 1109.07 889.236 1110.27 900.684C1110.82 905.946 1110.1 912.14 1113.45 916.235C1117.1 920.697 1124.32 920.382 1129.07 923.657C1137.39 929.404 1144.83 936.349 1152.36 943.105C1177.92 966.05 1201.4 992.042 1224.42 1017.48C1237.52 1031.95 1251.11 1046.16 1262.22 1062.21C1295.5 1110.29 1309.76 1170.29 1324.91 1225.75C1352.3 1326 1366.1 1429.72 1366.82 1533.59" fill="#b0a395" opacity="1"/>
<path d="M1087.94 240.375C1084.88 270.873 1080.98 301.342 1079.94 332C1078.36 378.507 1080.54 425.074 1080.09 471.594C1080.05 475.665 1080.06 479.742 1079.97 483.812C1079.06 524.977 1077.86 566.131 1076.44 607.281C1075.77 626.699 1074.9 646.112 1074.28 665.531C1074.13 670.285 1073.87 675.027 1073.78 679.781C1073.7 684.055 1073.93 688.351 1074 692.625C1074.14 701.248 1074.3 709.878 1074.5 718.5C1075.04 742.267 1075.67 766.038 1076.91 789.781C1078.07 812.086 1079.72 834.364 1081.88 856.594C1082.59 863.975 1083.3 871.367 1084 878.75C1084.66 885.74 1085.34 892.732 1086.53 899.656C1086.82 901.314 1087.23 902.918 1087.56 904.562C1088.02 906.838 1088.26 909.156 1088.69 911.438C1089.19 914.115 1089.85 916.69 1090.78 919.25C1094.12 928.412 1100.95 935.321 1110.19 938.531C1112.21 939.234 1114.3 939.734 1116.41 940.094C1117.07 940.208 1117.73 940.367 1118.41 940.375C1118.52 940.376 1118.7 940.418 1118.75 940.312C1118.8 940.208 1118.61 940.103 1118.56 940C1118.53 939.93 1118.42 939.781 1118.5 939.781C1118.7 939.781 1118.88 939.916 1119.06 940C1119.38 940.15 1119.69 940.336 1120 940.5C1125.83 943.578 1131.28 947.337 1136.66 951.125C1140.96 954.157 1145.28 957.168 1149.53 960.281C1158.7 967.001 1167.61 974.087 1176.31 981.406C1179.89 984.413 1183.36 987.55 1186.84 990.656C1198.71 1001.23 1210.21 1012.24 1221.47 1023.47C1226.65 1028.64 1231.93 1033.72 1237 1039C1242.56 1044.79 1247.96 1050.74 1253.06 1056.94C1256.61 1061.24 1259.88 1065.79 1263 1070.41C1272.45 1084.39 1280.15 1099.47 1286.84 1114.94C1289.02 1119.97 1291.01 1125.06 1293.03 1130.16C1296.43 1138.7 1299.79 1147.25 1302.81 1155.94C1309.65 1175.58 1315.36 1195.59 1321 1215.59C1325.5 1231.56 1330.02 1247.53 1333.94 1263.66C1342.1 1297.28 1348.74 1331.25 1353.91 1365.47C1358.07 1393.03 1361.15 1420.77 1363.25 1448.56C1360.17 1407.83 1355.15 1367.2 1348.09 1326.97C1343.61 1301.38 1338.24 1275.98 1332.19 1250.72C1329.61 1239.96 1326.84 1229.24 1324.06 1218.53C1318.53 1197.19 1313.23 1175.76 1307.16 1154.56C1304.6 1145.64 1302.04 1136.7 1298.97 1127.94C1297.33 1123.27 1295.51 1118.68 1293.66 1114.09C1289.27 1103.22 1284.38 1092.54 1278.81 1082.22C1272.33 1070.2 1265.11 1058.64 1256.97 1047.69C1252.78 1042.05 1248.32 1036.65 1243.88 1031.22C1238.28 1024.38 1232.63 1017.58 1227.06 1010.72C1224.11 1007.09 1221.26 1003.38 1218.34 999.719C1209.73 988.897 1201.18 978.045 1192.53 967.25C1187.7 961.222 1182.96 955.136 1178.03 949.188C1172.52 942.54 1166.88 936.022 1161.19 929.531C1155.82 923.408 1150.4 917.278 1144.44 911.719C1142.89 910.277 1141.33 908.782 1139.62 907.531C1137.61 906.055 1135.48 904.884 1133.25 903.812C1133.25 903.774 1133.25 903.725 1133.25 903.688C1133.44 901.118 1133.34 898.569 1133.5 896C1134.01 888.028 1135.38 880.124 1136.22 872.188C1136.49 869.65 1136.67 867.105 1136.88 864.562C1137.4 858.058 1137.99 851.569 1138.5 845.062C1139.22 835.787 1139.78 826.476 1140.31 817.188C1141.12 803.268 1141.61 789.341 1142.03 775.406C1142.52 759.265 1142.88 743.118 1142.94 726.969C1142.98 716.021 1142.92 705.071 1142.75 694.125C1142.69 690.622 1142.66 687.128 1142.59 683.625C1142.56 681.86 1142.54 680.075 1142.44 678.312C1142.17 673.948 1141.79 669.577 1141.44 665.219C1140.6 654.729 1139.65 644.251 1138.59 633.781C1136.75 615.47 1134.77 597.189 1132.66 578.906C1129.94 555.444 1126.85 532.031 1123.69 508.625C1121.83 494.875 1119.94 481.126 1117.88 467.406C1117.25 463.245 1116.68 459.059 1116 454.906C1112.34 432.569 1108.3 410.316 1104.34 388.031C1100.76 367.885 1097.23 347.683 1094.69 327.375C1091.07 298.502 1089.89 269.39 1087.94 240.375ZM1125.94 900.312C1126.01 900.158 1126.63 900.364 1126.66 900.375C1127.3 900.621 1127.92 900.995 1128.47 901.406C1128.62 901.522 1128.69 901.721 1128.84 901.844C1128.17 901.564 1127.5 901.278 1126.84 900.969C1126.77 900.935 1125.87 900.456 1125.94 900.312ZM1363.34 1449.88C1364.36 1463.52 1365.15 1477.2 1365.72 1490.88C1365.34 1481.33 1364.93 1471.79 1364.31 1462.25C1364.05 1458.12 1363.65 1454 1363.34 1449.88ZM1365.75 1491.66C1366.33 1505.63 1366.67 1519.61 1366.81 1533.59C1366.69 1519.61 1366.3 1505.63 1365.75 1491.66Z" fill="#828280" opacity="1"/>
</g>
<path d="M1253.28 1019.03C1251.05 1019.11 1248.79 1019.42 1246.53 1019.97C1228.46 1024.36 1217.39 1042.59 1221.78 1060.66C1227.92 1085.82 1234.08 1110.96 1240.19 1136.12C1249.54 1174.65 1258.78 1213.21 1268.06 1251.75C1289.13 1339.18 1310.27 1426.56 1332.06 1513.81C1352.23 1594.59 1374.14 1674.95 1393.19 1756C1400.93 1788.95 1408.17 1822.01 1414.72 1855.22C1418.12 1872.49 1434.88 1883.74 1452.16 1880.34C1469.43 1876.95 1480.68 1860.18 1477.28 1842.91C1455.36 1731.17 1425.25 1621.31 1398.38 1510.72C1377.4 1424.42 1357.31 1337.92 1336.84 1251.5C1320.51 1182.53 1303.89 1113.64 1287.22 1044.75C1283.38 1028.94 1268.93 1018.46 1253.28 1019.03Z" fill="#342a01" opacity="1"/>
</g>
</g>
</svg>
