<?xml version="1.0" encoding="UTF-8" standalone="no"?> <!-- Created with Vectornator for iOS (http://vectornator.io/) --><!DOCTYPE svg PUBLIC "-//W3C//DTD SVG 1.1//EN" "http://www.w3.org/Graphics/SVG/1.1/DTD/svg11.dtd">
<svg height="100%" style="fill-rule:nonzero;clip-rule:evenodd;stroke-linecap:round;stroke-linejoin:round;" version="1.1" viewBox="0 0 3370.82 2384.24" width="100%" xml:space="preserve" xmlns="http://www.w3.org/2000/svg" xmlns:vectornator="http://vectornator.io" xmlns:xlink="http://www.w3.org/1999/xlink">
<metadata>
<vectornator:setting key="IsTimeLapseWatermarkDisabled" value="false"/>
<vectornator:setting key="UndoHistoryDisabled" value="true"/>
<vectornator:setting key="VNDimensionsVisible" value="true"/>
<vectornator:setting key="VNSnapToGuides" value="true"/>
<vectornator:setting key="WDCMYKEnabledKey" value="false"/>
<vectornator:setting key="WDDisplayWhiteBackground" value="false"/>
<vectornator:setting key="WDDynamicGuides" value="false"/>
<vectornator:setting key="WDGuidesVisible" value="true"/>
<vectornator:setting key="WDIsolateActiveLayer" value="false"/>
<vectornator:setting key="WDOutlineMode" value="false"/>
<vectornator:setting key="WDRulersVisible" value="true"/>
<vectornator:setting key="WDSnapToEdges" value="false"/>
<vectornator:setting key="WDSnapToGrid" value="false"/>
<vectornator:setting key="WDSnapToPoints" value="false"/>
<vectornator:setting key="WDUnits" value="Millimeters"/>
</metadata>
<defs/>
<g id="Layer 1" vectornator:layerName="Layer 1">
<path d="M2914.85 25.3638L3050.12 25.3638C3058.05 25.3638 3064.47 30.2365 3064.47 36.2474L3064.47 516.802C3064.47 522.813 3058.05 527.686 3050.12 527.686L2914.85 527.686C2906.93 527.686 2900.51 522.813 2900.51 516.802L2900.51 36.2474C2900.51 30.2365 2906.93 25.3638 2914.85 25.3638Z" fill="#854f14" opacity="1"/>
<path d="M3093.06 25.6147L3218.83 25.6147C3226.2 25.6147 3232.17 30.4875 3232.17 36.4984L3232.17 517.053C3232.17 523.064 3226.2 527.937 3218.83 527.937L3093.06 527.937C3085.69 527.937 3079.72 523.064 3079.72 517.053L3079.72 36.4984C3079.72 30.4875 3085.69 25.6147 3093.06 25.6147Z" fill="#854f14" opacity="1"/>
<path d="M3063.68 145.57C2942.22 145.57 2843.78 198.326 2843.78 263.413L2843.78 583.663C2843.78 616.988 2869.69 647.009 2911.18 668.445C2922.27 684.289 2949.17 695.476 2980.65 695.476L2994.65 695.476C3016.39 699.329 3039.54 701.507 3063.68 701.507C3087.83 701.507 3111.01 699.329 3132.75 695.476L3139.28 695.476C3166.39 695.476 3190.06 687.177 3203.22 674.757C3252.3 653.143 3283.62 620.365 3283.62 583.663L3283.62 263.413C3283.62 198.326 3185.14 145.57 3063.68 145.57Z" fill="#f1c390" opacity="1"/>
<path d="M2893.76 557.285L3046.09 500.909C3055.03 497.602 3064.95 502.165 3068.26 511.101L3068.26 511.101C3071.56 520.037 3067 529.962 3058.07 533.269L2905.74 589.644C2896.8 592.951 2886.88 588.388 2883.57 579.453L2883.57 579.453C2880.26 570.517 2884.83 560.592 2893.76 557.285Z" fill="#000000" opacity="1"/>
<path d="M2949.22 50.3555L3172.97 50.3555C3230.12 50.3555 3276.46 106.606 3276.46 175.994L3276.46 175.994C3276.46 245.383 3230.12 301.633 3172.97 301.633L2949.22 301.633C2892.07 301.633 2845.74 245.383 2845.74 175.994L2845.74 175.994C2845.74 106.606 2892.07 50.3555 2949.22 50.3555Z" fill="#361e02" opacity="1"/>
<path d="M3056.21 376.938L3056.21 376.938C3070.17 376.938 3081.48 388.253 3081.48 402.211L3081.48 455.095C3081.48 469.053 3070.17 480.369 3056.21 480.369L3056.21 480.369C3042.25 480.369 3030.94 469.053 3030.94 455.095L3030.94 402.211C3030.94 388.253 3042.25 376.938 3056.21 376.938Z" fill="#e6a258" opacity="1"/>
<path d="M2901.85 48.8823L3037.12 48.8823C3045.05 48.8823 3051.47 53.7551 3051.47 59.766L3051.47 540.321C3051.47 546.332 3045.05 551.205 3037.12 551.205L2901.85 551.205C2893.93 551.205 2887.51 546.332 2887.51 540.321L2887.51 59.766C2887.51 53.7551 2893.93 48.8823 2901.85 48.8823Z" fill="#bd8b53" opacity="1"/>
<path d="M3077.84 501.152L3232.42 551.016C3241.49 553.941 3246.47 563.663 3243.55 572.731L3243.55 572.731C3240.62 581.799 3230.9 586.779 3221.83 583.854L3067.25 533.99C3058.18 531.065 3053.2 521.343 3056.13 512.275L3056.13 512.275C3059.05 503.207 3068.78 498.227 3077.84 501.152Z" fill="#000000" opacity="1"/>
<path d="M3080.06 49.1333L3205.83 49.1333C3213.2 49.1333 3219.17 54.0061 3219.17 60.017L3219.17 540.572C3219.17 546.583 3213.2 551.456 3205.83 551.456L3080.06 551.456C3072.69 551.456 3066.72 546.583 3066.72 540.572L3066.72 60.017C3066.72 54.0061 3072.69 49.1333 3080.06 49.1333Z" fill="#bd8b53" opacity="1"/>
<path d="M3254.96 28.5154L3317.01 28.5154C3320.64 28.5154 3323.59 33.1875 3323.59 38.9507L3323.59 499.708C3323.59 505.471 3320.64 510.143 3317.01 510.143L3254.96 510.143C3251.33 510.143 3248.38 505.471 3248.38 499.708L3248.38 38.9507C3248.38 33.1875 3251.33 28.5154 3254.96 28.5154Z" fill="#854f14" opacity="1"/>
<path d="M2825.13 25.4955L2880.77 25.4955C2884.03 25.4955 2886.68 30.2208 2886.68 36.0498L2886.68 502.061C2886.68 507.89 2884.03 512.616 2880.77 512.616L2825.13 512.616C2821.87 512.616 2819.22 507.89 2819.22 502.061L2819.22 36.0498C2819.22 30.2208 2821.87 25.4955 2825.13 25.4955Z" fill="#854f14" opacity="1"/>
<path d="M3294.04 34.3923L3330.44 34.3923C3332.58 34.3923 3334.31 39.1177 3334.31 44.9467L3334.31 510.958C3334.31 516.787 3332.58 521.513 3330.44 521.513L3294.04 521.513C3291.9 521.513 3290.18 516.787 3290.18 510.958L3290.18 44.9467C3290.18 39.1177 3291.9 34.3923 3294.04 34.3923Z" fill="#a1723d" opacity="1"/>
<path d="M3241.96 52.034L3304.01 52.034C3307.64 52.034 3310.59 56.706 3310.59 62.4693L3310.59 523.226C3310.59 528.99 3307.64 533.662 3304.01 533.662L3241.96 533.662C3238.33 533.662 3235.38 528.99 3235.38 523.226L3235.38 62.4693C3235.38 56.706 3238.33 52.034 3241.96 52.034Z" fill="#bd8b53" opacity="1"/>
<path d="M2788.31 30.5481L2824.72 30.5481C2826.85 30.5481 2828.58 35.2734 2828.58 41.1024L2828.58 507.114C2828.58 512.943 2826.85 517.668 2824.72 517.668L2788.31 517.668C2786.18 517.668 2784.45 512.943 2784.45 507.114L2784.45 41.1024C2784.45 35.2734 2786.18 30.5481 2788.31 30.5481Z" fill="#a1723d" opacity="1"/>
<path d="M2812.13 49.014L2867.77 49.014C2871.03 49.014 2873.68 53.7393 2873.68 59.5683L2873.68 525.58C2873.68 531.409 2871.03 536.134 2867.77 536.134L2812.13 536.134C2808.87 536.134 2806.22 531.409 2806.22 525.58L2806.22 59.5683C2806.22 53.7393 2808.87 49.014 2812.13 49.014Z" fill="#bd8b53" opacity="1"/>
<g opacity="1">
<g opacity="1">
<path d="M674.342 1614.23C671.05 1613.94 591.117 1607.11 588.269 1605.3C583.249 1602.11 560.538 1583.2 557.082 1577.93C550.132 1567.34 653.356 1577.79 647.972 1565.99C636.123 1540.02 624.753 1513.69 614.742 1486.62C604.477 1458.87 594.883 1430.67 587.206 1401.7C576.948 1362.99 567.556 1323.81 561.009 1283.85C553.882 1240.35 550.719 1195.89 546.26 1151.77C535.811 1048.42 527.426 944.555 523.573 840.237C521.695 789.416 520.338 738.526 520.114 687.569C519.919 643.293 520.17 598.946 522.316 554.611C524.341 512.78 527.972 470.952 532.618 429.26C535.766 401.003 541.325 373.047 545.678 344.94C556.08 277.788 565.585 211.005 579.418 144.556" fill="#b0a395" opacity="1"/>
<path d="M579.406 144.562C574.844 166.681 570.648 188.875 566.781 211.125C560.017 250.045 554.186 289.118 548.156 328.156C546.569 338.435 544.956 348.683 543.219 358.938C540.05 377.639 536.605 396.307 533.969 415.094C531.61 431.904 529.911 448.83 528.219 465.719C525.953 488.33 523.898 510.955 522.312 533.625C520.631 557.67 519.369 581.731 518.344 605.812C517.852 617.356 517.239 628.917 516.969 640.469C516.839 646.013 516.841 651.579 516.781 657.125C516.602 673.659 516.633 690.184 516.594 706.719C516.528 734.336 516.386 761.947 516.062 789.562C515.994 795.401 515.984 801.256 515.875 807.094C515.461 829.174 514.938 851.24 514.219 873.312C513.577 893.001 512.656 912.688 511.969 932.375C510.708 968.476 509.632 1004.59 509.5 1040.72C509.482 1045.63 509.567 1050.56 509.625 1055.47C509.702 1062.01 509.756 1068.55 509.906 1075.09C510.107 1083.8 510.46 1092.51 510.75 1101.22C511.004 1108.85 511.423 1116.44 511.812 1124.06C512.997 1147.25 514.65 1170.44 516.375 1193.59C517.84 1213.26 519.486 1232.92 521.875 1252.5C522.567 1258.18 523.307 1263.84 524.094 1269.5C524.419 1271.84 524.72 1274.2 525.125 1276.53C526.089 1282.09 527.328 1287.61 528.5 1293.12C533.192 1315.19 539.162 1336.91 545.469 1358.56C548.221 1368.01 551.159 1377.4 554.125 1386.78C557.993 1399.02 561.958 1411.22 566.25 1423.31C570.316 1434.77 574.746 1446.11 579.312 1457.38C590.043 1483.85 601.828 1509.95 614.688 1535.47C618.495 1543.02 622.38 1550.54 626.312 1558.03C625.771 1558.11 625.229 1558.18 624.688 1558.25C621.06 1558.73 617.393 1559.01 613.75 1559.34C602.439 1560.39 591.09 1561 579.781 1562.09C573.152 1562.73 566.372 1563.36 559.906 1565.03C555.473 1566.18 550.678 1568.15 548.719 1572.66C548.402 1573.39 548.153 1574.16 548 1574.94C547.85 1575.7 547.819 1576.5 547.844 1577.28C547.867 1578.02 547.979 1578.73 548.156 1579.44C549.065 1583.08 552.138 1585.75 554.844 1588.12C559.382 1592.11 564.235 1595.79 569.094 1599.38C572.881 1602.17 576.713 1604.91 580.625 1607.53C582.437 1608.74 584.578 1610.39 586.656 1611.06C588.102 1611.53 589.684 1611.62 591.188 1611.75C593.18 1611.92 595.191 1612.05 597.188 1612.16C603.308 1612.49 609.437 1612.68 615.562 1612.88C635.154 1613.5 654.746 1613.87 674.344 1614.22C655.409 1611.25 636.486 1608.27 617.594 1605.03C611.5 1603.99 605.385 1602.94 599.312 1601.78C596.997 1601.34 594.701 1600.89 592.406 1600.34C591.998 1600.25 591.592 1600.14 591.188 1600.03C591.124 1599.98 591.063 1599.93 591 1599.88C590.759 1599.68 590.488 1599.45 590.25 1599.25C589.774 1598.84 589.312 1598.45 588.844 1598.03C587.366 1596.73 585.91 1595.38 584.469 1594.03C580.678 1590.5 577.023 1586.81 573.406 1583.09C588.475 1583.34 603.54 1584.77 618.594 1585.41C624.472 1585.66 630.365 1585.86 636.25 1585.69C644.488 1585.44 654.205 1584.41 659.719 1577.47C660.311 1576.72 660.854 1575.96 661.312 1575.12C661.848 1574.15 662.34 1573.12 662.688 1572.06C663.041 1570.99 663.27 1569.87 663.406 1568.75C663.541 1567.64 663.583 1566.52 663.5 1565.41C663.42 1564.32 663.2 1563.24 662.938 1562.19C662.438 1560.18 661.478 1558.18 660.75 1556.25C657.838 1548.51 654.972 1540.76 652.188 1532.97C641.554 1503.22 632.142 1473.06 624.219 1442.47C621.337 1431.34 618.564 1420.18 616.156 1408.94C614.111 1399.39 612.215 1389.8 610.344 1380.22C606.322 1359.63 602.739 1338.97 599.625 1318.22C597.697 1305.37 595.987 1292.47 594.469 1279.56C593.963 1275.27 593.587 1270.95 593.094 1266.66C592.536 1261.8 591.726 1256.97 591.094 1252.12C589.934 1243.23 588.894 1234.31 587.844 1225.41C585.64 1206.72 583.741 1188 581.531 1169.31C579.571 1152.74 577.197 1136.21 574.875 1119.69C571.944 1098.83 568.774 1077.98 565.406 1057.19C564.28 1050.24 563.257 1043.28 562.062 1036.34C555.62 998.914 548.972 961.525 543.094 924C540.402 906.816 537.781 889.605 535.625 872.344C531.518 839.47 528.707 806.405 526.656 773.344C525.278 751.131 524.394 728.874 523.906 706.625C523.423 684.597 523.389 662.563 523.312 640.531C523.277 630.378 522.956 620.216 522.875 610.062C522.786 598.986 522.899 587.919 523.062 576.844C523.48 548.522 525.115 520.177 527.25 491.938C528.403 476.691 529.778 461.463 531.312 446.25C532.358 435.888 533.41 425.544 534.781 415.219C536.966 398.771 539.776 382.401 542.469 366.031C544.6 353.079 546.558 340.102 548.531 327.125C557.81 266.095 567.006 205.054 579.406 144.562ZM640 1555.34C640.014 1555.34 640.039 1555.36 640.031 1555.38C639.982 1555.45 639.71 1555.55 639.688 1555.56C639.553 1555.62 639.401 1555.67 639.25 1555.72C639.53 1555.58 639.767 1555.34 640 1555.34ZM564.469 1573.09C564.521 1573.08 564.533 1573.17 564.562 1573.22C564.678 1573.4 564.778 1573.59 564.875 1573.78C564.772 1573.64 564.624 1573.38 564.531 1573.22C564.507 1573.18 564.422 1573.11 564.469 1573.09ZM590.375 1599.75C590.425 1599.62 590.626 1599.82 590.75 1599.88C590.784 1599.89 590.811 1599.92 590.844 1599.94C590.678 1599.89 590.364 1599.78 590.375 1599.75Z" fill="#828280" opacity="1"/>
</g>
<path d="M583.978 1259.41L583.978 1259.41C609.45 1257.93 630.21 1280.49 630.347 1309.82L631.756 1611.81C631.893 1641.14 625.563 1633.01 600.091 1634.49L600.376 1633.97C574.904 1635.46 539.65 1646.52 539.513 1617.2L538.104 1315.2C537.967 1285.88 558.506 1260.9 583.978 1259.41Z" fill="#443802" opacity="1" stroke="#443802" stroke-linecap="round" stroke-linejoin="round" stroke-width="72.2275"/>
<path d="M517.203 1278.89L670.196 1302.59L670.077 1303.36L517.084 1279.66L517.203 1278.89Z" fill="none" opacity="1" stroke="#342a01" stroke-linecap="round" stroke-linejoin="round" stroke-width="21.8177"/>
<path d="M341.647 1251.99C835.817 1261.52 839.548 1260.43 839.548 1260.43" fill="none" opacity="1" stroke="#3e3d3b" stroke-linecap="round" stroke-linejoin="round" stroke-width="90.5299"/>
<path d="M508.195 1561.64L661.188 1585.34L661.069 1586.11L508.076 1562.41L508.195 1561.64Z" fill="none" opacity="1" stroke="#342a01" stroke-linecap="round" stroke-linejoin="round" stroke-width="21.8177"/>
<path d="M509.091 1589.95L662.083 1613.65L661.964 1614.42L508.971 1590.72L509.091 1589.95Z" fill="none" opacity="1" stroke="#342a01" stroke-linecap="round" stroke-linejoin="round" stroke-width="21.8177"/>
<g opacity="1">
<path d="M573.046 1580.52L573.046 1580.52C624.35 1576.91 667.303 1593.4 668.985 1617.34L669.165 1619.89C670.847 1643.83 630.62 1666.16 579.316 1669.76L579.316 1669.76C528.013 1673.37 485.059 1656.88 483.377 1632.94L483.198 1630.39C481.516 1606.45 521.742 1584.12 573.046 1580.52Z" fill="#b0a395" opacity="1"/>
<path d="M637.969 1572.19C618.71 1572.91 573.031 1580.53 573.031 1580.53C573.031 1580.53 595.156 1585.51 605.688 1589.62C611.791 1592.01 617.716 1594.78 623.406 1598.03C628.249 1600.8 632.927 1603.9 637.062 1607.66C638.796 1609.23 640.441 1610.91 641.812 1612.81C643.285 1614.85 644.399 1616.56 644.656 1619.09C644.684 1619.37 644.822 1619.64 644.781 1619.91C644.769 1619.99 644.606 1619.87 644.531 1619.91C644.396 1619.98 644.323 1620.33 644.188 1620.44C643.715 1620.83 643.117 1620.65 642.625 1620.41C642.317 1620.25 642.01 1620.01 641.781 1619.75C641.675 1619.63 641.467 1619.26 641.406 1619.44C641.155 1620.16 641.254 1620.97 641 1621.69C640.98 1621.74 640.884 1621.67 640.844 1621.62C640.766 1621.54 640.714 1621.42 640.656 1621.31C640.491 1621.02 640.355 1620.74 640.219 1620.44C639.827 1619.56 639.558 1618.43 638.875 1617.72C638.691 1617.53 637.859 1617.3 637.844 1617.28C637.793 1617.21 637.933 1617.03 637.844 1617.03C637.578 1617.05 637.348 1617.26 637.094 1617.34C636.925 1617.4 636.734 1617.37 636.562 1617.41C635.77 1617.6 635.056 1617.98 634.281 1618.22C634.191 1618.25 634.091 1618.2 634 1618.22C633.49 1618.34 633.154 1618.7 632.75 1619C632.32 1619.32 631.882 1619.63 631.438 1619.94C629.718 1621.11 627.975 1622.28 626.188 1623.34C619.949 1627.07 613.566 1630.54 607.125 1633.91C603.384 1635.86 599.713 1637.96 596 1639.97C594.787 1640.62 593.543 1641.22 592.344 1641.91C588.489 1644.1 584.643 1646.31 580.688 1648.31C579.724 1648.8 578.72 1649.21 577.75 1649.69C577.661 1649.73 578.152 1649.61 578.062 1649.66C570.235 1653.34 562.15 1656.78 553.75 1658.94C545.393 1661.09 536.665 1661.57 528.094 1660.84C518.632 1660.05 509.208 1657.07 501.062 1652.19C499.027 1650.97 497.117 1649.58 495.219 1648.16C493.925 1647.19 492.645 1646.24 491.469 1645.12C489.01 1642.8 487.026 1640.05 485.812 1636.88C485.177 1635.21 484.924 1633.47 484.719 1631.72C484.554 1630.31 484.365 1628.92 484.406 1627.5C484.513 1623.78 485.775 1620.15 487.594 1616.94C489.476 1613.61 491.95 1610.66 494.719 1608.03C501.448 1601.65 509.733 1596.95 518.156 1593.19C523.86 1590.64 573.031 1580.53 573.031 1580.53C573.031 1580.53 545.155 1583.81 531.719 1587.94C523.235 1590.55 514.872 1593.8 507.094 1598.09C501.325 1601.28 495.786 1605.09 491.188 1609.84C487.815 1613.33 484.898 1617.34 483.25 1621.94C482.082 1625.2 481.793 1628.51 481.875 1631.94C481.936 1634.47 482.224 1636.97 482.938 1639.41C483.731 1642.12 484.983 1644.7 486.531 1647.06C487.875 1649.11 489.394 1651.1 491.125 1652.84C492.525 1654.25 494.118 1655.48 495.719 1656.66C501.868 1661.16 508.887 1664.33 515.875 1667.28C524.417 1670.88 533.15 1674.02 541.906 1677.06C554.751 1681.52 567.417 1686.4 580.594 1689.84C580.685 1689.87 580.783 1689.82 580.875 1689.84C587.935 1691.58 595.11 1693.25 602.375 1693.88C613.786 1694.86 625.434 1694.15 636.562 1691.38C647.958 1688.54 659.019 1684.09 668.844 1677.59C671.032 1676.15 673.176 1674.64 675.25 1673.03C675.657 1672.72 676.084 1672.4 676.469 1672.06C678.028 1670.68 679.482 1669.03 680.844 1667.47C682.196 1665.92 683.601 1664.23 684.844 1662.59C690.847 1654.69 695.285 1645.32 697.094 1635.53C697.949 1630.9 698.205 1626.16 697.781 1621.47C697.7 1620.57 697.535 1619.01 697.344 1618.09C697.141 1617.13 696.786 1616.18 696.562 1615.22C696.051 1613.01 695.636 1610.82 694.938 1608.66C693.423 1603.97 691.131 1599.56 688.219 1595.59C685.546 1591.95 682.363 1588.73 678.812 1585.94C668.955 1578.19 656.672 1574.19 644.406 1572.34C642.943 1572.12 640.72 1572.08 637.969 1572.19Z" fill="#828280" opacity="1"/>
</g>
<path d="M511.317 1310.36L664.31 1334.06L664.19 1334.83L511.198 1311.13L511.317 1310.36Z" fill="none" opacity="1" stroke="#342a01" stroke-linecap="round" stroke-linejoin="round" stroke-width="21.8177"/>
<path d="M510.236 1338.36L663.229 1362.06L663.109 1362.83L510.116 1339.13L510.236 1338.36Z" fill="none" opacity="1" stroke="#342a01" stroke-linecap="round" stroke-linejoin="round" stroke-width="21.8177"/>
<path d="M508.109 1365.87L661.102 1389.57L660.982 1390.34L507.99 1366.64L508.109 1365.87Z" fill="none" opacity="1" stroke="#342a01" stroke-linecap="round" stroke-linejoin="round" stroke-width="21.8177"/>
<path d="M507.028 1393.87L660.021 1417.57L659.901 1418.34L506.909 1394.64L507.028 1393.87Z" fill="none" opacity="1" stroke="#342a01" stroke-linecap="round" stroke-linejoin="round" stroke-width="21.8177"/>
<path d="M507.155 1422.5L660.148 1446.19L660.029 1446.96L507.036 1423.27L507.155 1422.5Z" fill="none" opacity="1" stroke="#342a01" stroke-linecap="round" stroke-linejoin="round" stroke-width="21.8177"/>
<path d="M508.05 1450.8L661.043 1474.5L660.924 1475.27L507.931 1451.57L508.05 1450.8Z" fill="none" opacity="1" stroke="#342a01" stroke-linecap="round" stroke-linejoin="round" stroke-width="21.8177"/>
<path d="M508.888 1478.77L661.881 1502.47L661.762 1503.24L508.769 1479.54L508.888 1478.77Z" fill="none" opacity="1" stroke="#342a01" stroke-linecap="round" stroke-linejoin="round" stroke-width="21.8177"/>
<path d="M507.357 1533.67L660.35 1557.37L660.231 1558.14L507.238 1534.44L507.357 1533.67Z" fill="none" opacity="1" stroke="#342a01" stroke-linecap="round" stroke-linejoin="round" stroke-width="21.8177"/>
<path d="M509.784 1507.08L662.776 1530.78L662.657 1531.55L509.664 1507.85L509.784 1507.08Z" fill="none" opacity="1" stroke="#342a01" stroke-linecap="round" stroke-linejoin="round" stroke-width="21.8177"/>
</g>
<g opacity="1">
<path d="M4021.65 1190.81L4021.65 1190.81C4041.27 1190.81 4057.17 1206.72 4057.17 1226.33L4057.17 1227.07C4057.17 1246.68 4041.27 1262.59 4021.65 1262.59L4021.65 1262.59C4002.04 1262.59 3986.13 1246.68 3986.13 1227.07L3986.13 1226.33C3986.13 1206.72 4002.04 1190.81 4021.65 1190.81Z" fill="#abaaaa" opacity="1"/>
<path d="" fill="none" opacity="1"/>
</g>
<g opacity="1">
<path d="M4021.65 1190.81L4021.65 1190.81C4041.27 1190.81 4057.17 1206.72 4057.17 1226.33L4057.17 1227.07C4057.17 1246.68 4041.27 1262.59 4021.65 1262.59L4021.65 1262.59C4002.04 1262.59 3986.13 1246.68 3986.13 1227.07L3986.13 1226.33C3986.13 1206.72 4002.04 1190.81 4021.65 1190.81Z" fill="#abaaaa" opacity="1"/>
<path d="" fill="none" opacity="1"/>
</g>
<g opacity="1">
<g opacity="1">
<path d="M1001.16 907.332L1107.49 907.332L1107.49 1618.53L1001.16 1618.53L1001.16 907.332Z" fill="#703d04" opacity="1"/>
<path d="M1001.16 895.75C994.758 895.75 989.562 900.946 989.562 907.344C989.61 1205.08 989.609 1105.82 989.625 1205.06C989.635 1270.04 989.656 1335.03 989.688 1400C989.714 1454.25 989.745 1508.47 989.781 1562.72C989.789 1574.14 989.774 1585.58 989.781 1597C989.783 1599.8 989.779 1602.58 989.781 1605.38C989.783 1608.7 989.81 1612.05 989.812 1615.38C989.813 1616.2 989.812 1617.02 989.812 1617.84C989.813 1617.96 989.736 1618.43 989.812 1618.53C992.67 1622.2 995.217 1626.12 998.375 1629.53C998.81 1630 999.647 1629.75 1000.28 1629.84C1001.11 1629.96 1001.98 1629.88 1002.81 1629.88C1005.58 1629.87 1008.36 1629.88 1011.12 1629.88C1022.76 1629.87 1034.4 1629.85 1046.03 1629.84C1062.65 1629.83 1079.26 1629.82 1095.88 1629.81C1098.64 1629.81 1101.39 1629.81 1104.16 1629.81C1105.95 1629.81 1107.81 1629.92 1109.56 1629.5C1112.61 1628.77 1115.29 1626.88 1116.97 1624.22C1119.32 1620.48 1118.78 1615.8 1118.78 1611.59C1118.78 1610.2 1118.78 1608.8 1118.78 1607.41C1118.77 1597.22 1118.76 1587.06 1118.75 1576.88C1118.72 1537.52 1118.71 1498.14 1118.69 1458.78C1118.6 1323.12 1118.54 1187.45 1118.5 1051.78C1118.49 1015.67 1118.47 979.553 1118.47 943.438C1118.47 934.177 1118.47 924.917 1118.47 915.656C1118.47 913.804 1118.47 911.977 1118.47 910.125C1118.47 908.573 1118.53 906.959 1118.19 905.438C1117.9 904.148 1117.39 902.934 1116.69 901.812C1116.16 900.979 1115.59 900.241 1114.88 899.562C1113.38 898.139 1111.5 897.166 1109.5 896.688C1107.35 896.175 1104.68 896.344 1102.5 896.344C1101.39 896.344 1100.3 896.344 1099.19 896.344C1096.97 896.344 1094.75 896.344 1092.53 896.344C1090.32 896.344 1088.12 896.344 1085.91 896.344C1058.69 896.346 1078.16 896.369 1004.25 896.375C1003.24 896.089 1002.26 895.75 1001.16 895.75ZM1012.75 918.312C1049.85 918.315 1052.64 918.311 1072.59 918.312C1080.35 918.313 1088.12 918.312 1095.88 918.312C1096.09 918.313 1096.31 918.312 1096.53 918.312C1096.53 919.746 1096.53 921.191 1096.53 922.625C1096.53 931.885 1096.5 941.146 1096.5 950.406C1096.5 978.651 1096.51 1006.88 1096.5 1035.12C1096.46 1161.53 1096.43 1287.94 1096.34 1414.34C1096.31 1459.72 1096.28 1505.09 1096.25 1550.47C1096.24 1565.75 1096.23 1581.03 1096.22 1596.31C1096.22 1599.96 1096.22 1603.6 1096.22 1607.25C1095.54 1607.25 1094.86 1607.25 1094.19 1607.25C1086.99 1607.25 1079.79 1607.22 1072.59 1607.22C1056.53 1607.21 1040.47 1607.2 1024.41 1607.19C1020.45 1607.18 1016.49 1607.18 1012.53 1607.19C1012.53 1602.34 1012.53 1597.5 1012.53 1592.66C1012.54 1575.91 1012.55 1559.15 1012.56 1542.41C1012.59 1491.9 1012.63 1441.42 1012.66 1390.91C1012.69 1327.62 1012.68 1264.32 1012.69 1201.03C1012.7 1106.79 1012.71 1173.67 1012.75 918.312Z" fill="#a19f99" opacity="1"/>
</g>
<g opacity="1">
<path d="M1139.67 900.201L1246 900.201L1246 1620.04L1139.67 1620.04L1139.67 900.201Z" fill="#703d04" opacity="1"/>
<path d="M1139.66 888.625C1133.26 888.625 1128.09 893.79 1128.09 900.188C1128.14 1201.54 1128.11 1101.11 1128.12 1201.56C1128.14 1267.33 1128.16 1333.08 1128.19 1398.84C1128.21 1453.75 1128.25 1508.66 1128.28 1563.56C1128.29 1575.12 1128.31 1586.66 1128.31 1598.22C1128.31 1601.05 1128.31 1603.89 1128.31 1606.72C1128.31 1610.09 1128.31 1613.48 1128.31 1616.84C1128.31 1617.68 1128.31 1618.51 1128.31 1619.34C1128.31 1619.46 1128.23 1619.93 1128.31 1620.03C1131.16 1623.7 1133.69 1627.62 1136.84 1631.03C1137.28 1631.51 1138.14 1631.25 1138.78 1631.34C1139.61 1631.47 1140.51 1631.41 1141.34 1631.41C1144.11 1631.4 1146.86 1631.38 1149.62 1631.38C1161.26 1631.37 1172.9 1631.38 1184.53 1631.38C1201.15 1631.36 1217.76 1631.35 1234.38 1631.34C1237.14 1631.34 1239.92 1631.31 1242.69 1631.31C1244.49 1631.31 1246.33 1631.43 1248.09 1631C1251.15 1630.26 1253.83 1628.37 1255.5 1625.69C1257.83 1621.94 1257.28 1617.2 1257.28 1613C1257.28 1611.59 1257.28 1610.19 1257.28 1608.78C1257.27 1598.47 1257.26 1588.18 1257.25 1577.88C1257.22 1538.04 1257.21 1498.18 1257.19 1458.34C1257.1 1321.5 1257.04 1184.66 1257 1047.81C1256.99 1011.26 1256.97 974.711 1256.97 938.156C1256.97 928.783 1256.97 919.404 1256.97 910.031C1256.97 908.625 1256.97 907.219 1256.97 905.812C1256.97 902.01 1257.36 898.118 1255.25 894.719C1254.73 893.884 1254.11 893.15 1253.41 892.469C1251.91 891.027 1250.05 890.05 1248.03 889.562C1245.88 889.042 1243.22 889.219 1241.03 889.219C1239.92 889.219 1238.79 889.219 1237.69 889.219C1235.47 889.219 1233.28 889.219 1231.06 889.219C1228.85 889.219 1226.62 889.219 1224.41 889.219C1197.15 889.221 1216.96 889.213 1142.62 889.219C1141.66 888.958 1140.7 888.625 1139.66 888.625ZM1151.25 911.156C1188.36 911.159 1191.17 911.186 1211.12 911.188C1218.88 911.188 1226.62 911.187 1234.38 911.188C1234.59 911.188 1234.81 911.187 1235.03 911.188C1235.03 912.677 1235.03 914.167 1235.03 915.656C1235.03 925.029 1235.03 934.408 1235.03 943.781C1235.03 972.369 1235.01 1000.94 1235 1029.53C1234.96 1157.47 1234.93 1285.44 1234.84 1413.38C1234.81 1459.3 1234.78 1505.23 1234.75 1551.16C1234.74 1566.62 1234.73 1582.07 1234.72 1597.53C1234.72 1601.27 1234.72 1605.01 1234.72 1608.75C1234.05 1608.75 1233.38 1608.75 1232.72 1608.75C1225.52 1608.75 1218.32 1608.72 1211.12 1608.72C1195.06 1608.71 1179 1608.7 1162.94 1608.69C1158.97 1608.68 1155 1608.68 1151.03 1608.69C1151.03 1603.74 1151.03 1598.79 1151.03 1593.84C1151.04 1576.89 1151.05 1559.95 1151.06 1543C1151.09 1491.44 1151.13 1439.88 1151.16 1388.31C1151.19 1324.24 1151.21 1260.16 1151.22 1196.09C1151.23 1101.12 1151.21 1168.71 1151.25 911.156Z" fill="#a19f99" opacity="1"/>
</g>
<g opacity="1">
<path d="M1277.06 906.013L1383.4 906.013L1383.4 1631.72L1277.06 1631.72L1277.06 906.013Z" fill="#703d04" opacity="1"/>
<path d="M1277.06 894.438C1270.66 894.438 1265.47 899.602 1265.47 906C1265.52 1209.81 1265.52 1108.54 1265.53 1209.81C1265.54 1276.11 1265.56 1342.42 1265.59 1408.72C1265.62 1464.07 1265.65 1519.43 1265.69 1574.78C1265.7 1586.44 1265.68 1598.1 1265.69 1609.75C1265.69 1612.6 1265.69 1615.46 1265.69 1618.31C1265.69 1621.71 1265.72 1625.1 1265.72 1628.5C1265.72 1629.34 1265.72 1630.16 1265.72 1631C1265.72 1631.12 1265.64 1631.62 1265.72 1631.72C1268.56 1635.38 1271.07 1639.31 1274.22 1642.72C1274.66 1643.2 1275.51 1642.94 1276.16 1643.03C1276.99 1643.15 1277.88 1643.06 1278.72 1643.06C1281.49 1643.06 1284.26 1643.06 1287.03 1643.06C1298.66 1643.05 1310.31 1643.07 1321.94 1643.06C1338.55 1643.05 1355.17 1643.01 1371.78 1643C1374.55 1643 1377.29 1643 1380.06 1643C1381.87 1643 1383.73 1643.09 1385.5 1642.66C1388.56 1641.91 1391.25 1640 1392.91 1637.31C1395.22 1633.57 1394.69 1628.82 1394.69 1624.62C1394.69 1623.21 1394.69 1621.79 1394.69 1620.38C1394.68 1609.98 1394.66 1599.58 1394.66 1589.19C1394.63 1549.03 1394.59 1508.88 1394.56 1468.72C1394.47 1330.76 1394.45 1192.8 1394.41 1054.84C1394.4 1017.99 1394.38 981.134 1394.38 944.281C1394.37 934.832 1394.38 925.387 1394.38 915.938C1394.37 914.52 1394.37 913.105 1394.38 911.688C1394.37 907.89 1394.75 903.962 1392.66 900.562C1391.9 899.333 1390.93 898.278 1389.78 897.406C1388.25 896.245 1386.43 895.495 1384.53 895.188C1383.1 894.956 1381.51 895.031 1380.06 895.031C1378.4 895.031 1376.76 895.031 1375.09 895.031C1372.88 895.031 1370.65 895.031 1368.44 895.031C1366.22 895.031 1364.03 895.031 1361.81 895.031C1334.55 895.033 1354.43 895.026 1280 895.031C1279.04 894.772 1278.11 894.437 1277.06 894.438ZM1288.66 916.969C1325.76 916.972 1328.55 916.998 1348.5 917C1356.25 917.001 1364.03 916.999 1371.78 917C1371.99 917 1372.2 917 1372.41 917C1372.41 918.534 1372.41 920.06 1372.41 921.594C1372.41 931.043 1372.41 940.488 1372.41 949.938C1372.4 978.758 1372.42 1007.59 1372.41 1036.41C1372.37 1165.39 1372.33 1294.39 1372.25 1423.38C1372.22 1469.68 1372.19 1515.98 1372.16 1562.28C1372.15 1577.87 1372.14 1593.44 1372.12 1609.03C1372.12 1612.83 1372.13 1616.64 1372.12 1620.44C1371.45 1620.44 1370.77 1620.44 1370.09 1620.44C1362.89 1620.43 1355.7 1620.41 1348.5 1620.41C1332.44 1620.4 1316.37 1620.39 1300.31 1620.38C1296.35 1620.37 1292.4 1620.37 1288.44 1620.38C1288.44 1615.36 1288.43 1610.33 1288.44 1605.31C1288.45 1588.22 1288.46 1571.15 1288.47 1554.06C1288.5 1502.08 1288.51 1450.08 1288.53 1398.09C1288.56 1333.5 1288.58 1268.94 1288.59 1204.34C1288.61 1108.56 1288.62 1176.92 1288.66 916.969Z" fill="#a19f99" opacity="1"/>
</g>
<g opacity="1">
<path d="M1415.57 890.496L1521.91 890.496L1521.91 1625.02L1415.57 1625.02L1415.57 890.496Z" fill="#703d04" opacity="1"/>
<path d="M1415.56 878.906C1409.16 878.906 1404 884.102 1404 890.5C1404.05 1196.61 1404.02 1094.56 1404.03 1196.59C1404.04 1263.72 1404.06 1330.85 1404.09 1397.97C1404.12 1454.44 1404.15 1510.91 1404.19 1567.38C1404.2 1579.17 1404.21 1590.99 1404.22 1602.78C1404.22 1605.67 1404.22 1608.55 1404.22 1611.44C1404.22 1614.88 1404.22 1618.31 1404.22 1621.75C1404.22 1622.6 1404.22 1623.43 1404.22 1624.28C1404.22 1624.4 1404.14 1624.9 1404.22 1625C1407.05 1628.66 1409.58 1632.6 1412.72 1636C1413.17 1636.49 1414 1636.21 1414.66 1636.31C1415.49 1636.44 1416.41 1636.38 1417.25 1636.38C1420.02 1636.37 1422.76 1636.38 1425.53 1636.38C1436.61 1636.37 1447.7 1636.35 1458.78 1636.34C1475.95 1636.33 1493.11 1636.32 1510.28 1636.31C1513.05 1636.31 1515.82 1636.31 1518.59 1636.31C1520.41 1636.31 1522.28 1636.38 1524.06 1635.94C1527.13 1635.18 1529.82 1633.27 1531.47 1630.56C1533.75 1626.82 1533.19 1622.03 1533.19 1617.84C1533.19 1616.41 1533.19 1614.97 1533.19 1613.53C1533.18 1603.01 1533.16 1592.49 1533.16 1581.97C1533.13 1541.32 1533.12 1500.68 1533.09 1460.03C1533 1320.4 1532.95 1180.76 1532.91 1041.12C1532.9 1003.83 1532.88 966.519 1532.88 929.219C1532.87 919.655 1532.88 910.096 1532.88 900.531C1532.87 899.097 1532.88 897.653 1532.88 896.219C1532.87 892.428 1533.26 888.524 1531.19 885.125C1530.44 883.893 1529.46 882.784 1528.31 881.906C1526.77 880.727 1524.97 880.001 1523.06 879.688C1521.63 879.452 1520.05 879.531 1518.59 879.531C1516.93 879.531 1515.26 879.531 1513.59 879.531C1511.38 879.531 1509.18 879.531 1506.97 879.531C1504.75 879.531 1502.53 879.531 1500.31 879.531C1473.11 879.533 1492.5 879.526 1418.69 879.531C1417.68 879.243 1416.67 878.906 1415.56 878.906ZM1427.16 901.469C1464.27 901.472 1467.08 901.467 1487.03 901.469C1494.78 901.469 1502.53 901.468 1510.28 901.469C1510.5 901.469 1510.72 901.469 1510.94 901.469C1510.94 903.07 1510.94 904.68 1510.94 906.281C1510.94 915.845 1510.94 925.405 1510.94 934.969C1510.94 964.139 1510.92 993.298 1510.91 1022.47C1510.87 1153.02 1510.83 1283.58 1510.75 1414.12C1510.72 1460.99 1510.69 1507.85 1510.66 1554.72C1510.65 1570.5 1510.64 1586.28 1510.62 1602.06C1510.62 1605.95 1510.63 1609.83 1510.62 1613.72C1509.96 1613.72 1509.29 1613.72 1508.62 1613.72C1501.43 1613.71 1494.23 1613.72 1487.03 1613.72C1470.97 1613.71 1454.91 1613.7 1438.84 1613.69C1434.88 1613.68 1430.9 1613.65 1426.94 1613.66C1426.94 1608.54 1426.93 1603.43 1426.94 1598.31C1426.95 1581.02 1426.96 1563.7 1426.97 1546.41C1427 1493.79 1427.04 1441.18 1427.06 1388.56C1427.09 1323.19 1427.11 1257.81 1427.12 1192.44C1427.14 1095.45 1427.12 1165.02 1427.16 901.469Z" fill="#a19f99" opacity="1"/>
</g>
<g opacity="1">
<path d="M995.407 1019.93L1520.85 1019.93C1532.58 1019.93 1542.08 1029.43 1542.08 1041.16L1542.08 1041.16C1542.08 1052.88 1532.58 1062.39 1520.85 1062.39L995.407 1062.39C983.682 1062.39 974.177 1052.88 974.177 1041.16L974.177 1041.16C974.177 1029.43 983.682 1019.93 995.407 1019.93Z" fill="#9b5a11" opacity="1"/>
<path d="M995.406 1019.94C995.406 1019.94 988.887 1020.66 985.906 1022.16C983.47 1023.38 981.27 1025.08 979.469 1027.12C981.27 1025.08 995.406 1019.94 995.406 1019.94ZM979.469 1027.12C978.608 1028.1 977.872 1029.16 977.219 1030.25C977.87 1029.17 978.606 1028.1 979.469 1027.12ZM977.219 1030.25C977.047 1030.54 976.907 1030.83 976.75 1031.12C976.907 1030.83 977.048 1030.54 977.219 1030.25ZM976.75 1031.12C976.317 1031.93 975.916 1032.75 975.594 1033.59C975.915 1032.75 976.316 1031.93 976.75 1031.12ZM975.594 1033.59C975.433 1034.02 975.32 1034.45 975.188 1034.88C975.32 1034.45 975.434 1034.01 975.594 1033.59ZM975.188 1034.88C974.962 1035.6 974.771 1036.35 974.625 1037.09C974.77 1036.34 974.96 1035.61 975.188 1034.88ZM974.625 1037.09C974.536 1037.55 974.465 1038.01 974.406 1038.47C974.465 1038.01 974.537 1037.55 974.625 1037.09ZM974.406 1038.47C974.303 1039.27 974.262 1040.07 974.25 1040.88C974.26 1040.07 974.305 1039.27 974.406 1038.47ZM974.25 1040.88C974.245 1041.29 974.199 1041.71 974.219 1042.12C974.2 1041.7 974.244 1041.3 974.25 1040.88ZM974.219 1042.12C974.264 1043.14 974.402 1044.15 974.594 1045.16C974.403 1044.16 974.266 1043.14 974.219 1042.12ZM1522.31 1019.97C1523.93 1020.08 1525.5 1020.43 1527.03 1020.91C1525.51 1020.43 1523.94 1020.08 1522.31 1019.97ZM1527.03 1020.91C1527.63 1021.09 1528.18 1021.36 1528.75 1021.59C1528.17 1021.36 1527.63 1021.09 1527.03 1020.91ZM1528.75 1021.59C1529.71 1021.99 1530.64 1022.44 1531.53 1022.97C1530.64 1022.44 1529.72 1021.99 1528.75 1021.59ZM1531.53 1022.97C1532.08 1023.3 1532.64 1023.63 1533.16 1024C1532.63 1023.62 1532.09 1023.3 1531.53 1022.97ZM1533.16 1024C1534.09 1024.67 1534.96 1025.44 1535.78 1026.25C1534.96 1025.44 1534.1 1024.68 1533.16 1024ZM1535.78 1026.25C1536.36 1026.83 1536.9 1027.43 1537.41 1028.06C1536.89 1027.42 1536.36 1026.82 1535.78 1026.25ZM1537.41 1028.06C1538.18 1029.03 1538.9 1030.05 1539.5 1031.16C1538.9 1030.06 1538.19 1029.04 1537.41 1028.06ZM1539.5 1031.16C1539.71 1031.53 1539.88 1031.93 1540.06 1032.31C1539.97 1032.1 1539.95 1031.87 1539.84 1031.66C1539.75 1031.47 1539.6 1031.34 1539.5 1031.16ZM1540.06 1032.31C1540.65 1033.59 1541.12 1034.9 1541.44 1036.25C1541.11 1034.89 1540.66 1033.57 1540.06 1032.31ZM1541.44 1036.25C1541.49 1036.46 1541.58 1036.66 1541.62 1036.88C1541.58 1036.66 1541.49 1036.46 1541.44 1036.25ZM1541.62 1036.88C1541.96 1038.52 1542.09 1040.18 1542.06 1041.88C1542.15 1040.15 1541.96 1038.5 1541.62 1036.88ZM1542.06 1041.88C1541.89 1045.32 1540.97 1048.61 1539.38 1051.5C1541.03 1048.59 1542.01 1045.29 1542.06 1041.88ZM974.844 1046.31C975.1 1047.34 975.43 1048.35 975.844 1049.34C975.431 1048.35 975.101 1047.34 974.844 1046.31ZM976.094 1049.84C976.401 1050.53 976.678 1051.22 977.062 1051.88C977.198 1052.11 977.387 1052.31 977.531 1052.53C976.982 1051.67 976.507 1050.76 976.094 1049.84ZM977.531 1052.53C977.772 1052.91 978.046 1053.26 978.312 1053.62C978.049 1053.26 977.772 1052.91 977.531 1052.53ZM978.312 1053.62C978.826 1054.33 979.374 1054.99 979.969 1055.62C979.367 1054.98 978.82 1054.32 978.312 1053.62ZM979.969 1055.62C980.128 1055.8 980.24 1055.99 980.406 1056.16C980.49 1056.24 980.602 1056.29 980.688 1056.38C980.437 1056.13 980.207 1055.88 979.969 1055.62ZM980.688 1056.38C980.927 1056.61 981.125 1056.87 981.375 1057.09C982.075 1057.71 982.881 1058.2 983.656 1058.72C982.611 1058.02 981.594 1057.25 980.688 1056.38ZM983.656 1058.72C983.999 1058.95 984.301 1059.23 984.656 1059.44C984.303 1059.23 983.997 1058.95 983.656 1058.72ZM984.656 1059.44C986.058 1060.26 987.54 1060.95 989.094 1061.44C987.533 1060.95 986.06 1060.27 984.656 1059.44ZM989.094 1061.44C990.532 1061.88 991.985 1062.09 993.438 1062.22C991.983 1062.09 990.535 1061.89 989.094 1061.44ZM993.438 1062.22C994.373 1062.3 995.333 1062.33 996.281 1062.34C995.326 1062.33 994.375 1062.3 993.438 1062.22ZM1537.5 1054.28C1536.8 1055.16 1536.04 1055.99 1535.22 1056.75C1536.04 1055.98 1536.81 1055.17 1537.5 1054.28ZM1535.22 1056.75C1533.6 1058.25 1531.75 1059.5 1529.75 1060.44C1531.8 1059.5 1533.62 1058.24 1535.22 1056.75ZM1526.5 1061.62C1524.7 1062.12 1522.84 1062.27 1520.97 1062.34C1522.82 1062.29 1524.67 1062.13 1526.5 1061.62ZM1520.97 1062.34C1519.91 1062.38 1518.86 1062.37 1517.78 1062.38C1516.41 1062.38 1515.03 1062.38 1513.66 1062.38C1516.07 1062.38 1518.53 1062.44 1520.97 1062.34Z" fill="none" opacity="1"/>
</g>
<g opacity="1">
<path d="M990.59 1196.37L1516.04 1196.37C1527.76 1196.37 1537.27 1205.87 1537.27 1217.6L1537.27 1217.6C1537.27 1229.32 1527.76 1238.83 1516.04 1238.83L990.59 1238.83C978.865 1238.83 969.36 1229.32 969.36 1217.6L969.36 1217.6C969.36 1205.87 978.865 1196.37 990.59 1196.37Z" fill="#9b5a11" opacity="1"/>
<path d="" fill="none" opacity="1"/>
</g>
<g opacity="1">
<path d="M995.374 1394.37L1520.44 1374.52C1532.16 1374.08 1542.02 1383.22 1542.46 1394.93L1542.46 1394.93C1542.9 1406.65 1533.77 1416.51 1522.05 1416.95L996.978 1436.8C985.261 1437.25 975.403 1428.11 974.96 1416.39L974.96 1416.39C974.517 1404.67 983.657 1394.82 995.374 1394.37Z" fill="#9b5a11" opacity="1"/>
<path d="" fill="none" opacity="1"/>
</g>
<g opacity="1">
<path d="M1062.42 1010.77L1062.42 1010.77C1078.59 1010.77 1091.7 1023.88 1091.7 1040.04L1091.7 1040.65C1091.7 1056.82 1078.59 1069.92 1062.42 1069.92L1062.42 1069.92C1046.26 1069.92 1033.15 1056.82 1033.15 1040.65L1033.15 1040.04C1033.15 1023.88 1046.26 1010.77 1062.42 1010.77Z" fill="#abaaaa" opacity="1"/>
<path d="" fill="none" opacity="1"/>
</g>
<g opacity="1">
<path d="M1482.66 1008.28L1482.66 1008.28C1498.83 1008.28 1511.93 1021.39 1511.93 1037.55L1511.93 1038.16C1511.93 1054.33 1498.83 1067.43 1482.66 1067.43L1482.66 1067.43C1466.49 1067.43 1453.39 1054.33 1453.39 1038.16L1453.39 1037.55C1453.39 1021.39 1466.49 1008.28 1482.66 1008.28Z" fill="#abaaaa" opacity="1"/>
<path d="" fill="none" opacity="1"/>
</g>
<g opacity="1">
<path d="M1057.59 1185.16L1057.59 1185.16C1073.75 1185.16 1086.86 1198.27 1086.86 1214.44L1086.86 1215.04C1086.86 1231.21 1073.75 1244.31 1057.59 1244.31L1057.59 1244.31C1041.42 1244.31 1028.31 1231.21 1028.31 1215.04L1028.31 1214.44C1028.31 1198.27 1041.42 1185.16 1057.59 1185.16Z" fill="#abaaaa" opacity="1"/>
<path d="" fill="none" opacity="1"/>
</g>
<g opacity="1">
<path d="M1467.77 1187.82L1467.77 1187.82C1483.93 1187.82 1497.04 1200.93 1497.04 1217.09L1497.04 1217.7C1497.04 1233.87 1483.93 1246.97 1467.77 1246.97L1467.77 1246.97C1451.6 1246.97 1438.49 1233.87 1438.49 1217.7L1438.49 1217.09C1438.49 1200.93 1451.6 1187.82 1467.77 1187.82Z" fill="#abaaaa" opacity="1"/>
<path d="" fill="none" opacity="1"/>
</g>
<g opacity="1">
<path d="M1060.48 1382.43L1060.48 1382.43C1076.65 1382.43 1089.75 1395.54 1089.75 1411.7L1089.75 1412.31C1089.75 1428.48 1076.65 1441.58 1060.48 1441.58L1060.48 1441.58C1044.32 1441.58 1031.21 1428.48 1031.21 1412.31L1031.21 1411.7C1031.21 1395.54 1044.32 1382.43 1060.48 1382.43Z" fill="#abaaaa" opacity="1"/>
<path d="" fill="none" opacity="1"/>
</g>
<g opacity="1">
<path d="M1468.85 1371.05L1468.85 1371.05C1485.01 1371.05 1498.12 1384.15 1498.12 1400.32L1498.12 1400.93C1498.12 1417.09 1485.01 1430.2 1468.85 1430.2L1468.85 1430.2C1452.68 1430.2 1439.57 1417.09 1439.57 1400.93L1439.57 1400.32C1439.57 1384.15 1452.68 1371.05 1468.85 1371.05Z" fill="#abaaaa" opacity="1"/>
<path d="" fill="none" opacity="1"/>
</g>
</g>
<g opacity="1">
<g opacity="1">
<path d="M202.136 28.9219C194.348 59.6932 185.487 90.2673 179.887 121.511C171.218 169.883 166.214 218.861 157.701 267.26C143.257 349.372 127.196 431.239 108.44 512.451C98.4099 555.879 88.3801 599.306 78.3503 642.734C75.7599 653.95 72.3125 665.022 70.8227 676.437C70.1379 681.683 67.9983 687.541 70.3084 692.3C72.8256 697.486 79.9284 698.854 83.7838 703.14C90.5479 710.66 96.1768 719.14 101.933 727.456C121.483 755.701 138.3 786.427 154.797 816.504C164.186 833.621 174.115 850.59 181.203 868.779C202.434 923.263 202.396 984.938 204.283 1042.4C207.692 1146.26 197.082 1250.36 173.707 1351.57" fill="#b0a395" opacity="1"/>
<path d="M202.125 28.9375C192.083 57.8965 181.21 86.605 173.094 116.188C160.782 161.063 152.122 206.881 140.906 252.031C139.925 255.983 139 259.936 137.969 263.875C127.545 303.708 116.822 343.486 105.906 383.188C100.755 401.922 95.4163 420.597 90.3125 439.344C89.0632 443.932 87.7211 448.489 86.5312 453.094C85.4617 457.233 84.7027 461.482 83.7812 465.656C81.9222 474.077 80.0568 482.474 78.25 490.906C73.2692 514.152 68.3598 537.428 64.0625 560.812C60.0257 582.779 56.4653 604.845 53.4062 626.969C52.3905 634.315 51.3784 641.657 50.3438 649C49.3642 655.952 48.4187 662.927 47.9688 669.938C47.861 671.616 47.9043 673.261 47.8438 674.938C47.76 677.257 47.4552 679.588 47.3438 681.906C47.2129 684.627 47.2474 687.293 47.5625 690C48.69 699.687 53.7291 707.956 61.9688 713.219C63.7715 714.37 65.6901 715.349 67.6562 716.188C68.2783 716.453 68.9066 716.773 69.5625 716.938C69.6747 716.966 69.836 717.029 69.9062 716.938C69.9758 716.846 69.8072 716.737 69.7812 716.625C69.7635 716.549 69.7052 716.357 69.7812 716.375C69.9737 716.421 70.0955 716.595 70.25 716.719C70.5249 716.939 70.7977 717.174 71.0625 717.406C76.0175 721.75 80.4565 726.662 84.8125 731.594C88.2996 735.542 91.7757 739.487 95.1875 743.5C102.551 752.162 109.608 761.114 116.375 770.25C119.155 774.003 121.797 777.857 124.469 781.688C133.564 794.726 142.185 808.126 150.531 821.656C154.374 827.886 158.326 834.031 162.031 840.344C166.093 847.265 169.972 854.322 173.5 861.531C175.95 866.538 178.097 871.724 180.062 876.938C186.017 892.731 190.007 909.177 192.938 925.781C193.89 931.179 194.649 936.608 195.438 942.031C196.761 951.131 198.041 960.224 198.969 969.375C201.066 990.062 201.993 1010.83 202.844 1031.59C203.522 1048.17 204.21 1064.75 204.281 1081.34C204.43 1115.95 202.995 1150.55 200.094 1185.03C197.736 1213.06 194.264 1240.98 189.812 1268.75C196.322 1228.16 200.9 1187.27 203.375 1146.25C204.939 1120.32 205.626 1094.32 205.594 1068.34C205.58 1057.28 205.344 1046.22 205.125 1035.16C204.688 1013.11 204.53 991.059 203.531 969.031C203.111 959.763 202.675 950.482 201.719 941.25C201.209 936.331 200.488 931.421 199.75 926.531C198 914.935 195.712 903.396 192.688 892.062C189.168 878.873 184.82 865.984 179.438 853.438C176.669 846.986 173.627 840.689 170.562 834.375C166.707 826.429 162.764 818.522 158.938 810.562C156.911 806.347 154.986 802.079 153 797.844C147.128 785.32 141.349 772.755 135.438 760.25C132.136 753.266 128.917 746.242 125.5 739.312C121.682 731.57 117.719 723.914 113.688 716.281C109.884 709.081 106.011 701.883 101.5 695.094C100.33 693.333 99.1837 691.519 97.8125 689.906C96.1962 688.006 94.3549 686.37 92.4375 684.812C92.4508 684.771 92.4873 684.728 92.5 684.688C93.28 682.232 93.7448 679.712 94.5 677.25C96.8428 669.613 100.002 662.276 102.656 654.75C103.505 652.344 104.274 649.895 105.062 647.469C107.08 641.262 109.154 635.086 111.156 628.875C114.011 620.02 116.701 611.099 119.375 602.188C123.382 588.833 127.107 575.364 130.75 561.906C134.969 546.319 139.045 530.696 142.844 515C145.419 504.359 147.944 493.72 150.312 483.031C151.07 479.61 151.814 476.173 152.562 472.75C152.94 471.025 153.352 469.302 153.656 467.562C154.41 463.255 155.016 458.946 155.688 454.625C157.305 444.227 158.82 433.805 160.219 423.375C162.665 405.134 164.975 386.869 167.156 368.594C169.955 345.141 172.399 321.657 174.75 298.156C176.131 284.351 177.455 270.544 178.625 256.719C178.98 252.526 179.387 248.322 179.688 244.125C181.306 221.548 182.564 198.971 183.875 176.375C185.061 155.947 186.301 135.47 188.531 115.125C191.702 86.1989 197.296 57.6144 202.125 28.9375ZM189.812 1268.75C187.594 1282.59 185.151 1296.43 182.469 1310.19C184.342 1300.66 186.174 1291.13 187.812 1281.56C188.542 1277.3 189.128 1273.02 189.812 1268.75ZM86.1562 679.688C86.2672 679.556 86.7866 679.92 86.8125 679.938C87.3807 680.326 87.904 680.816 88.3438 681.344C88.4731 681.499 88.5035 681.714 88.625 681.875C88.0339 681.445 87.4467 681.018 86.875 680.562C86.8126 680.513 86.0533 679.81 86.1562 679.688ZM182.438 1310.38C179.749 1324.16 176.833 1337.88 173.719 1351.56C176.853 1337.88 179.727 1324.14 182.438 1310.38Z" fill="#828280" opacity="1"/>
</g>
<path d="M175.719 824.062C157.124 824.147 142.135 839.28 142.219 857.875C142.36 883.774 142.514 909.694 142.625 935.594C142.794 975.233 142.867 1014.86 142.969 1054.5C143.199 1144.43 143.525 1234.35 144.5 1324.28C145.402 1407.53 148.099 1490.77 147.844 1574.03C147.74 1607.87 147.108 1641.71 145.781 1675.53C145.083 1693.12 158.752 1707.96 176.344 1708.66C193.935 1709.35 208.771 1695.65 209.469 1678.06C214.036 1564.29 210.234 1450.43 209.719 1336.62C209.317 1247.82 209.788 1159.03 209.906 1070.22C210.001 999.339 209.818 928.442 209.562 857.562C209.478 838.968 194.314 823.978 175.719 824.062Z" fill="#342a01" opacity="1"/>
</g>
<g opacity="1">
<g opacity="1">
<path d="M1522.12 97.8645L1662.95 100.466C1672.62 100.645 1680 125.69 1679.43 156.407L1671.79 570.077C1671.22 600.794 1662.92 625.55 1653.26 625.371L1512.42 622.77C1502.75 622.591 1495.38 597.545 1495.94 566.829L1503.59 153.159C1504.15 122.442 1512.45 97.6859 1522.12 97.8645Z" fill="#dfcfbd" opacity="1"/>
<path d="" fill="none" opacity="1"/>
</g>
<path d="M1537.72 614.219L1537.72 614.219C1564.24 586.622 1608.99 586.593 1637.67 614.155L1665.2 640.622C1693.88 668.184 1695.63 712.899 1669.11 740.496L1669.11 740.496C1642.59 768.092 1597.84 768.121 1569.16 740.559L1541.62 714.092C1512.94 686.531 1511.19 641.816 1537.72 614.219Z" fill="#f1c390" opacity="1"/>
<g opacity="1">
<path d="M1450.61 582.912L1464.2 648.048C1465.14 652.519 1477.44 655.994 1491.69 655.81L1683.53 653.334C1697.78 653.15 1708.57 649.377 1707.64 644.906L1694.05 579.77C1693.11 575.299 1680.81 571.824 1666.56 572.007L1474.72 574.484C1460.47 574.668 1449.68 578.441 1450.61 582.912Z" fill="#d5c2ad" opacity="1"/>
<path d="" fill="none" opacity="1"/>
</g>
</g>
<g opacity="1">
<path d="M2054.96 72.9543L2054.96 72.9543C2206.92 72.9543 2330.12 158 2330.12 262.909L2276.66 785.749C2276.66 890.658 2210.92 910.909 2058.95 910.909L2014.72 907.771C1906.65 907.771 1940.78 864.181 1895.77 801.6C1877.5 776.184 1852.77 785.268 1843.56 775.076C1834.34 764.885 1779.8 262.909 1779.8 262.909C1779.8 158 1902.99 72.9543 2054.96 72.9543Z" fill="#f6bf82" opacity="1"/>
<g opacity="1">
<path d="M1820.37 77.6554L2293.34 77.6554C2325.8 77.6554 2352.12 122.076 2352.12 176.871L2278.07 824.372C2278.07 879.167 2119.06 939.636 2086.6 939.636L1995.18 961.774C1962.72 961.774 1835.25 883.935 1835.25 829.139L1761.59 176.871C1761.59 122.076 1787.91 77.6554 1820.37 77.6554Z" fill="#dfcfbd" opacity="1"/>
<path d="" fill="none" opacity="1"/>
</g>
<g opacity="1">
<path d="M2243.67 159.822L2347.95 65.1188C2355.1 58.6186 2377.65 71.7854 2398.3 94.5279L2676.47 400.805C2697.12 423.548 2708.07 447.254 2700.91 453.754L2596.63 548.457C2589.48 554.958 2566.93 541.791 2546.28 519.048L2268.11 212.771C2247.46 190.028 2236.51 166.322 2243.67 159.822Z" fill="#dfcfbd" opacity="1"/>
<path d="M2352 63.5C2353.5 63.3681 2355.01 63.6018 2356.5 63.9375C2355.02 63.5981 2353.5 63.3678 2352 63.5ZM2356.5 63.9375C2357.12 64.0787 2357.71 64.2507 2358.31 64.4375C2357.71 64.2468 2357.12 64.0773 2356.5 63.9375ZM2358.31 64.4375C2358.94 64.6338 2359.55 64.8314 2360.16 65.0625C2359.96 64.9911 2359.79 64.8809 2359.59 64.8125C2359.18 64.6659 2358.74 64.5702 2358.31 64.4375ZM2360.16 65.0625C2361.82 65.6822 2363.41 66.4986 2365 67.3125C2363.86 66.7299 2362.77 66.0577 2361.59 65.5625C2361.14 65.3711 2360.63 65.2432 2360.16 65.0625ZM2365 67.3125C2365.96 67.8037 2366.94 68.2391 2367.88 68.7812C2366.94 68.2359 2365.96 67.8049 2365 67.3125ZM2367.88 68.7812C2369.37 69.6535 2370.82 70.6005 2372.25 71.5625C2370.81 70.5973 2369.37 69.6499 2367.88 68.7812ZM2374.31 72.9062C2376.66 74.5622 2378.87 76.3973 2381.09 78.2188C2379.14 76.6232 2377.23 74.9719 2375.19 73.5C2374.9 73.2949 2374.6 73.1092 2374.31 72.9062ZM2381.09 78.2188C2382.14 79.0778 2383.26 79.8598 2384.28 80.75C2383.25 79.8578 2382.15 79.0795 2381.09 78.2188ZM2243.69 159.812C2243.69 159.812 2241.68 170.146 2243.16 174.5C2244.52 178.54 2246.47 182.372 2248.56 186.094C2246.25 181.504 2243.69 159.813 2243.69 159.812ZM2248.56 186.094C2248.6 186.161 2248.62 186.378 2248.66 186.438C2248.86 186.793 2249.11 187.116 2249.31 187.469C2249.05 187.018 2248.82 186.549 2248.56 186.094ZM2249.31 187.469C2249.62 187.992 2249.88 188.545 2250.19 189.062C2251.1 190.585 2252.15 192.018 2253.12 193.5C2251.81 191.513 2250.51 189.529 2249.31 187.469ZM2253.12 193.5C2253.94 194.731 2254.71 195.984 2255.56 197.188C2254.71 195.983 2253.94 194.731 2253.12 193.5ZM2255.56 197.188C2256.8 198.937 2258.12 200.618 2259.44 202.312C2258.13 200.621 2256.8 198.933 2255.56 197.188ZM2259.44 202.312C2260.29 203.416 2261.09 204.575 2261.97 205.656C2262.2 205.936 2262.46 206.19 2262.69 206.469C2261.57 205.114 2260.52 203.703 2259.44 202.312ZM2262.69 206.469C2262.85 206.663 2262.99 206.869 2263.16 207.062C2266.12 210.617 2269.31 213.99 2272.44 217.406C2269.14 213.804 2265.8 210.231 2262.69 206.469ZM2272.44 217.406C2273.92 219.028 2275.34 220.718 2276.81 222.344C2277.17 222.742 2277.54 223.133 2277.91 223.531C2276.07 221.508 2274.29 219.425 2272.44 217.406ZM2670.06 393.781C2673.69 397.737 2677.36 401.679 2680.81 405.781C2680.61 405.544 2680.42 405.298 2680.22 405.062C2676.94 401.211 2673.49 397.512 2670.06 393.781ZM2680.81 405.781C2681.66 406.783 2682.43 407.854 2683.25 408.875C2682.62 408.098 2682.08 407.266 2681.44 406.5C2681.23 406.256 2681.02 406.024 2680.81 405.781ZM2683.25 408.875C2684.81 410.81 2686.35 412.743 2687.81 414.75C2686.35 412.748 2684.8 410.806 2683.25 408.875ZM2687.81 414.75C2688.61 415.848 2689.36 416.974 2690.12 418.094C2689.36 416.975 2688.61 415.846 2687.81 414.75ZM2690.12 418.094C2691.53 420.141 2692.9 422.219 2694.19 424.344C2693.69 423.518 2693.24 422.656 2692.72 421.844C2691.9 420.559 2690.99 419.349 2690.12 418.094ZM2694.19 424.344C2694.87 425.468 2695.55 426.599 2696.19 427.75C2695.84 427.12 2695.52 426.466 2695.16 425.844C2694.86 425.33 2694.49 424.853 2694.19 424.344ZM2696.19 427.75C2696.75 428.75 2697.29 429.76 2697.81 430.781C2697.29 429.756 2696.75 428.754 2696.19 427.75ZM2697.81 430.781C2698.67 432.465 2699.41 434.193 2700.12 435.938C2699.41 434.188 2698.67 432.468 2697.81 430.781ZM2700.12 435.938C2700.55 436.984 2701.04 437.992 2701.41 439.062C2701.29 438.707 2701.16 438.334 2701.03 437.969C2700.78 437.272 2700.41 436.624 2700.12 435.938ZM2701.41 439.062C2701.68 439.862 2701.9 440.685 2702.12 441.5C2702 441.057 2701.91 440.556 2701.78 440.156C2701.67 439.786 2701.53 439.418 2701.41 439.062ZM2702.12 441.5C2702.21 441.791 2702.3 442.069 2702.38 442.375C2702.36 442.318 2702.36 442.244 2702.34 442.188C2702.29 441.955 2702.19 441.731 2702.12 441.5ZM2702.38 442.375C2702.75 443.904 2703.06 445.69 2703.09 447.438C2703.07 445.697 2702.78 443.988 2702.38 442.375ZM2703.09 447.438C2703.1 448.192 2703.03 448.911 2702.91 449.625C2703.03 448.898 2703.11 448.195 2703.09 447.438ZM2702.91 449.625C2702.86 449.926 2702.86 450.24 2702.78 450.531C2702.86 450.241 2702.86 449.927 2702.91 449.625ZM2702.78 450.531C2702.5 451.563 2702.05 452.517 2701.34 453.312C2702.07 452.5 2702.5 451.558 2702.78 450.531ZM2560.31 532.812C2561.53 533.873 2562.84 534.828 2564.09 535.844C2562.84 534.828 2561.53 533.872 2560.31 532.812ZM2564.09 535.844C2565.85 537.265 2567.57 538.742 2569.41 540.062C2569.62 540.216 2569.85 540.348 2570.06 540.5C2568 539.042 2566.06 537.43 2564.09 535.844ZM2570.06 540.5C2570.26 540.637 2570.43 540.801 2570.62 540.938C2571.54 541.578 2572.52 542.134 2573.47 542.75C2572.32 542.005 2571.17 541.288 2570.06 540.5ZM2573.47 542.75C2574.46 543.394 2575.42 544.06 2576.44 544.656C2575.42 544.056 2574.46 543.395 2573.47 542.75ZM2576.44 544.656C2577.67 545.383 2578.97 545.961 2580.25 546.594C2578.97 545.963 2577.67 545.377 2576.44 544.656ZM2580.25 546.594C2581.17 547.049 2582.05 547.602 2583 548C2583.39 548.163 2583.82 548.282 2584.22 548.438C2582.86 547.923 2581.56 547.239 2580.25 546.594ZM2584.22 548.438C2584.48 548.538 2584.73 548.687 2585 548.781C2585.46 548.945 2585.96 549.041 2586.44 549.188C2585.69 548.956 2584.94 548.718 2584.22 548.438ZM2586.44 549.188C2586.99 549.359 2587.53 549.528 2588.09 549.656C2587.53 549.527 2586.99 549.356 2586.44 549.188ZM2588.09 549.656C2589.58 549.996 2591.06 550.226 2592.56 550.094C2591.07 550.226 2589.58 549.992 2588.09 549.656Z" fill="none" opacity="1"/>
</g>
<g opacity="1">
<path d="M1801.18 72.3297L1949.65 72.3297C1971.4 72.3297 1989.04 100.929 1989.04 136.208L1989.04 723.603C1989.04 758.882 1971.4 787.482 1949.65 787.482L1828.56 788.171C1806.81 788.171 1805.92 759.396 1805.92 724.117L1761.79 136.208C1761.79 100.929 1779.42 72.3297 1801.18 72.3297Z" fill="#ba8851" opacity="1"/>
<path d="" fill="none" opacity="1"/>
</g>
<g opacity="1">
<path d="M2160.9 73.9615L2309.38 73.9615C2331.13 73.9615 2348.76 102.077 2348.76 136.76L2299.95 737.197C2299.95 771.879 2214.91 768.287 2193.16 768.287L2160.9 777.019C2139.15 777.019 2121.52 748.904 2121.52 714.221L2121.52 136.76C2121.52 102.077 2139.15 73.9615 2160.9 73.9615Z" fill="#ba8851" opacity="1"/>
<path d="" fill="none" opacity="1"/>
</g>
<path d="M2652.6 431.039L2652.6 431.039C2690.88 431.039 2721.9 463.283 2721.9 503.059L2721.9 541.255C2721.9 581.03 2690.88 613.275 2652.6 613.275L2652.6 613.275C2614.32 613.275 2583.3 581.03 2583.3 541.255L2583.3 503.059C2583.3 463.283 2614.32 431.039 2652.6 431.039Z" fill="#f1c390" opacity="1"/>
<g opacity="1">
<path d="M2057.7 69.4438L2057.7 69.4438C2071.46 69.4438 2082.62 80.6004 2082.62 94.3627L2082.62 238.062C2082.62 251.824 2071.46 262.981 2057.7 262.981L2057.7 262.981C2043.94 262.981 2032.78 251.824 2032.78 238.062L2032.78 94.3627C2032.78 80.6004 2043.94 69.4438 2057.7 69.4438Z" fill="#c8b7a3" opacity="1"/>
<path d="" fill="none" opacity="1"/>
</g>
<g opacity="1">
<path d="M2518.79 547.75L2572.09 587.584C2575.75 590.318 2587.28 584.78 2597.83 575.214L2740.01 446.389C2750.57 436.823 2756.16 426.852 2752.51 424.117L2699.21 384.284C2695.55 381.55 2684.02 387.088 2673.47 396.654L2531.29 525.479C2520.73 535.045 2515.14 545.016 2518.79 547.75Z" fill="#d5c2ad" opacity="1"/>
<path d="" fill="none" opacity="1"/>
</g>
<g opacity="1">
<path d="M1745.68 841.924L2349.12 841.924C2371.14 841.924 2389.48 882.724 2354.96 888.53C2320.44 894.336 2307.31 886.985 2307.31 886.985C2278.01 871.813 2329.72 887.717 2307.71 887.717L1750.97 891.221C1728.95 891.221 1746.35 895.082 1746.35 872.444L1733.86 870.297C1733.86 847.659 1723.67 841.924 1745.68 841.924Z" fill="#582f01" opacity="1"/>
<path d="" fill="none" opacity="1"/>
</g>
</g>
<g opacity="1">
<g opacity="1">
<path d="M2607.43 1171.66L2607.43 1171.66C2648.83 1174.15 2679.56 1200.08 2676.06 1229.56L2633.06 1414.62C2629.56 1444.1 2618.11 1433.01 2576.7 1430.51L2576.7 1430.51C2535.3 1428.02 2550.28 1418.02 2553.78 1388.54C2553.78 1388.54 2544.54 1329.15 2541.06 1311.24C2529.57 1252.19 2526.13 1220.54 2526.13 1220.54C2529.63 1191.05 2566.03 1169.17 2607.43 1171.66Z" fill="#f1c390" opacity="1"/>
<path d="" fill="none" opacity="1"/>
</g>
<g opacity="1">
<path d="M2567.58 859.002L2695.46 867.057C2708.06 867.851 2717.52 877.026 2716.59 887.551L2688.67 1202.57C2687.74 1213.09 2676.77 1220.98 2664.16 1220.19L2536.29 1212.13C2523.68 1211.34 2514.22 1202.16 2515.15 1191.64L2543.07 876.621C2544 866.097 2554.97 858.208 2567.58 859.002Z" fill="#71491c" opacity="1"/>
<path d="" fill="none" opacity="1"/>
</g>
<g opacity="1">
<path d="M2516.19 1194.88L2691.35 1204.89C2697.74 1205.26 2699.95 1213.71 2696.29 1223.77L2696.29 1223.77C2692.64 1233.83 2684.49 1241.69 2678.1 1241.32L2502.95 1231.31C2496.56 1230.94 2494.34 1222.49 2498 1212.43L2498 1212.43C2501.65 1202.37 2509.8 1194.51 2516.19 1194.88Z" fill="#582f01" opacity="1"/>
<path d="" fill="none" opacity="1"/>
</g>
<g opacity="1">
<path d="M3058.34 1173.26L3058.34 1173.26C3019.26 1179.01 2991.9 1208.09 2997.23 1238.22L3050.64 1425.69C3055.98 1455.82 3066.07 1443.5 3105.16 1437.75L3105.16 1437.75C3144.24 1432 3129.36 1422.84 3124.02 1392.71C3124.02 1392.71 3128.72 1330.79 3130.8 1312.05C3137.66 1250.29 3138.76 1217.4 3138.76 1217.4C3133.43 1187.27 3097.43 1167.51 3058.34 1173.26Z" fill="#f1c390" opacity="1"/>
<path d="" fill="none" opacity="1"/>
</g>
<g opacity="1">
<path d="M3077.98 863.577L2958.54 888.282C2946.77 890.717 2938.37 901.482 2939.77 912.325L2981.9 1236.89C2983.31 1247.73 2994 1254.55 3005.77 1252.11L3125.21 1227.41C3136.98 1224.97 3145.38 1214.21 3143.97 1203.36L3101.84 878.801C3100.43 867.957 3089.75 861.141 3077.98 863.577Z" fill="#71491c" opacity="1"/>
<path d="" fill="none" opacity="1"/>
</g>
<g opacity="1">
<path d="M3143.16 1206.87L2979.52 1239.65C2973.55 1240.84 2971.9 1249.93 2975.84 1259.94L2975.84 1259.94C2979.78 1269.95 2987.81 1277.1 2993.78 1275.9L3157.42 1243.13C3163.39 1241.93 3165.04 1232.84 3161.1 1222.83L3161.1 1222.83C3157.17 1212.82 3149.13 1205.67 3143.16 1206.87Z" fill="#582f01" opacity="1"/>
<path d="" fill="none" opacity="1"/>
</g>
<g opacity="1">
<path d="M2490.39 1427.88L2538.7 1415.74L2532.14 1376.96C2602.16 1418.67 2683.59 1340.87 2686.41 1380.94L2665.54 1404.06C2668.36 1444.13 2636.64 1480.91 2594.68 1486.22L2475.08 1501.35C2433.13 1506.65 2396.83 1478.47 2394.01 1438.4L2394.01 1438.4C2391.2 1398.34 2448.44 1433.19 2490.39 1427.88Z" fill="#71491c" opacity="1"/>
<path d="" fill="none" opacity="1"/>
</g>
<g opacity="1">
<path d="M3207.75 1427.02L3153.77 1425.86L3154.36 1389.63C3086.03 1441.33 2985.47 1387.78 2989.13 1424.41L3015.43 1441.01C3019.09 1477.64 3059.35 1504.32 3105.35 1500.61L3236.49 1490.04C3282.49 1486.33 3316.81 1453.62 3313.15 1416.99L3313.15 1416.99C3309.48 1380.36 3253.75 1423.31 3207.75 1427.02Z" fill="#71491c" opacity="1"/>
<path d="" fill="none" opacity="1"/>
</g>
</g>
</g>
</svg>
