<?xml version="1.0" encoding="UTF-8" standalone="no"?> <!-- Created with Vectornator for iOS (http://vectornator.io/) --><!DOCTYPE svg PUBLIC "-//W3C//DTD SVG 1.1//EN" "http://www.w3.org/Graphics/SVG/1.1/DTD/svg11.dtd">
<svg height="100%" style="fill-rule:nonzero;clip-rule:evenodd;stroke-linecap:round;stroke-linejoin:round;" xmlns:xlink="http://www.w3.org/1999/xlink" xmlns="http://www.w3.org/2000/svg" xml:space="preserve" width="100%" xmlns:vectornator="http://vectornator.io" version="1.1" viewBox="0 0 3370.82 2384.24">
<metadata>
<vectornator:setting key="DimensionsVisible" value="1"/>
<vectornator:setting key="PencilOnly" value="0"/>
<vectornator:setting key="SnapToPoints" value="0"/>
<vectornator:setting key="OutlineMode" value="0"/>
<vectornator:setting key="RulersVisible" value="1"/>
<vectornator:setting key="CMYKEnabledKey" value="0"/>
<vectornator:setting key="GuidesVisible" value="1"/>
<vectornator:setting key="SnapToEdges" value="0"/>
<vectornator:setting key="DisplayWhiteBackground" value="0"/>
<vectornator:setting key="doHistoryDisabled" value="0"/>
<vectornator:setting key="TimeLapseWatermarkDisabled" value="0"/>
<vectornator:setting key="SnapToGuides" value="1"/>
<vectornator:setting key="Units" value="Millimeters"/>
<vectornator:setting key="SnapToGrid" value="0"/>
<vectornator:setting key="DynamicGuides" value="0"/>
<vectornator:setting key="IsolateActiveLayer" value="0"/>
</metadata>
<defs/>
<g id="Layer 1" vectornator:layerName="Layer 1">
<path d="M2166.66-4.4039L2166.66-4.4039C2166.98-4.4039+2167.23-4.14845+2167.23-3.83334L2167.23+20.2998C2167.23+20.6149+2166.98+20.8703+2166.66+20.8703L2166.66+20.8703C2166.35+20.8703+2166.09+20.6149+2166.09+20.2998L2166.09-3.83334C2166.09-4.14845+2166.35-4.4039+2166.66-4.4039Z" opacity="1" fill="#ffffff"/>
<path stroke="#000000" stroke-width="113.33" d="M1707.01+487.123L1751.45+487.123C2151.75+487.123+2476.25+811.627+2476.25+1211.92L2476.25+1256.36C2476.25+1656.65+2151.75+1981.16+1751.45+1981.16L1707.01+1981.16C1306.72+1981.16+982.215+1656.65+982.215+1256.36L982.215+1211.92C982.215+811.627+1306.72+487.123+1707.01+487.123Z" fill="none" stroke-linecap="butt" opacity="1" stroke-linejoin="round"/>
<path stroke="#000000" stroke-width="113.955" d="M1727.92+666.919L1727.92+666.919C1728.49+666.919+1728.95+667.352+1728.95+667.886L1728.95+1264.42C1728.95+1264.96+1728.49+1265.39+1727.92+1265.39L1727.92+1265.39C1727.35+1265.39+1726.89+1264.96+1726.89+1264.42L1726.89+667.886C1726.89+667.352+1727.35+666.919+1727.92+666.919Z" fill="none" stroke-linecap="round" opacity="1" stroke-linejoin="round"/>
<path stroke="#000000" stroke-width="161.078" d="M1729.23+1152.42L1729.23+1152.42C1774.37+1152.42+1810.96+1189.01+1810.96+1234.14L1810.96+1234.14C1810.96+1279.28+1774.37+1315.86+1729.23+1315.86L1729.23+1315.86C1684.1+1315.86+1647.51+1279.28+1647.51+1234.14L1647.51+1234.14C1647.51+1189.01+1684.1+1152.42+1729.23+1152.42Z" fill="none" stroke-linecap="round" opacity="1" stroke-linejoin="round"/>
<path stroke="#000000" stroke-width="97.6364" d="M2145.49+1571.77L2145.49+1571.77C2145.18+1572.26+2144.59+1572.39+2144.18+1572.06L1687.67+1206.36C1687.26+1206.03+1687.18+1205.37+1687.49+1204.88L1687.49+1204.88C1687.81+1204.4+1688.39+1204.27+1688.8+1204.6L2145.32+1570.3C2145.72+1570.63+2145.8+1571.29+2145.49+1571.77Z" fill="none" stroke-linecap="round" opacity="1" stroke-linejoin="round"/>
<path stroke="#000000" stroke-width="31.3845" d="M1729.23+1789.07L1729.23+1789.07C1729.05+1789.07+1728.9+1789.19+1728.9+1789.35L1728.9+1959.36C1728.9+1959.51+1729.05+1959.63+1729.23+1959.63L1729.23+1959.63C1729.41+1959.63+1729.56+1959.51+1729.56+1959.36L1729.56+1789.35C1729.56+1789.19+1729.41+1789.07+1729.23+1789.07Z" fill="none" stroke-linecap="round" opacity="1" stroke-linejoin="round"/>
<path stroke="#000000" stroke-width="31.3845" d="M1729.23+487.123L1729.23+487.123C1729.05+487.123+1728.9+487.247+1728.9+487.399L1728.9+657.408C1728.9+657.561+1729.05+657.684+1729.23+657.684L1729.23+657.684C1729.41+657.684+1729.56+657.561+1729.56+657.408L1729.56+487.399C1729.56+487.247+1729.41+487.123+1729.23+487.123Z" fill="none" stroke-linecap="round" opacity="1" stroke-linejoin="round"/>
<path stroke="#000000" stroke-width="31.3845" d="M1183.54+1243.38L1183.54+1243.38C1183.54+1243.2+1183.41+1243.05+1183.26+1243.05L1013.25+1243.05C1013.1+1243.05+1012.98+1243.2+1012.98+1243.38L1012.98+1243.38C1012.98+1243.56+1013.1+1243.71+1013.25+1243.71L1183.26+1243.71C1183.41+1243.71+1183.54+1243.56+1183.54+1243.38Z" fill="none" stroke-linecap="round" opacity="1" stroke-linejoin="round"/>
<path stroke="#000000" stroke-width="31.3845" d="M2485.49+1243.38L2485.49+1243.38C2485.49+1243.2+2485.36+1243.05+2485.21+1243.05L2315.2+1243.05C2315.05+1243.05+2314.93+1243.2+2314.93+1243.38L2314.93+1243.38C2314.93+1243.56+2315.05+1243.71+2315.2+1243.71L2485.21+1243.71C2485.36+1243.71+2485.49+1243.56+2485.49+1243.38Z" fill="none" stroke-linecap="round" opacity="1" stroke-linejoin="round"/>
<path d="M1139.4+104.626L1139.4+104.626C1243.7+45.5236+1376.05+81.9633+1435.01+186.016L1435.01+186.016C1493.97+290.069+1457.21+422.332+1352.9+481.434L1352.9+481.434C1248.6+540.536+1116.25+504.097+1057.29+400.044L1057.29+400.044C998.329+295.991+1035.09+163.728+1139.4+104.626Z" opacity="1" fill="none"/>
</g>
</svg>
